STARTFONT 2.1
COMMENT
COMMENT Converted from OpenType font "OldStandard-Bold.ttf" by "otf2bdf 3.0".
COMMENT
FONT -FreeType-Old Standard TT-Bold-R-Normal--48-480-72-72-P-258-ISO10646-1
SIZE 48 72 72
FONTBOUNDINGBOX 133 60 -41 -14
STARTPROPERTIES 19
FOUNDRY "FreeType"
FAMILY_NAME "Old Standard TT"
WEIGHT_NAME "Bold"
SLANT "R"
SETWIDTH_NAME "Normal"
ADD_STYLE_NAME ""
PIXEL_SIZE 48
POINT_SIZE 480
RESOLUTION_X 72
RESOLUTION_Y 72
SPACING "P"
AVERAGE_WIDTH 258
CHARSET_REGISTRY "ISO10646"
CHARSET_ENCODING "1"
FONT_ASCENT 45
FONT_DESCENT 14
COPYRIGHT "Copyright (C) 2006-2008 Alexey Kryukov <alexios@thessalonica.org.ru>"
_OTF_FONTFILE "OldStandard-Bold.ttf"
_OTF_PSNAME "OldStandardTT-Bold"
ENDPROPERTIES
CHARS 1376
STARTCHAR 0020
ENCODING 32
SWIDTH 270 0
DWIDTH 13 0
BBX 0 0 0 0
BITMAP
ENDCHAR
STARTCHAR 0021
ENCODING 33
SWIDTH 291 0
DWIDTH 14 0
BBX 8 34 3 1
BITMAP
7E
7E
FF
FF
FF
FF
FF
FF
7E
7E
7E
7E
3C
3C
3C
3C
3C
18
18
18
18
18
18
18
18
00
00
00
7E
FF
FF
FF
FF
7E
ENDCHAR
STARTCHAR 0022
ENCODING 34
SWIDTH 375 0
DWIDTH 18 0
BBX 12 12 3 23
BITMAP
2040
F1E0
F9F0
F9F0
F9F0
F9F0
F9F0
70E0
70E0
70E0
70E0
70E0
ENDCHAR
STARTCHAR 0023
ENCODING 35
SWIDTH 708 0
DWIDTH 34 0
BBX 28 34 3 0
BITMAP
00700E00
00700E00
00700E00
00700E00
00F01E00
00E01C00
00E01C00
00E01C00
00E01C00
FFFFFFF0
FFFFFFF0
FFFFFFF0
01C03800
01C03800
01C03800
01C03800
03C03800
03807800
03807000
03807000
03807000
03807000
FFFFFFE0
FFFFFFE0
FFFFFFE0
0700E000
0700E000
0700E000
0700E000
0F01E000
0E01E000
0E01C000
0E01C000
0E01C000
ENDCHAR
STARTCHAR 0024
ENCODING 36
SWIDTH 583 0
DWIDTH 28 0
BBX 23 42 2 -4
BITMAP
00C300
00C300
00C300
00C300
03FFC0
07C370
1CC318
3CC30C
38C30E
78C30E
78C31E
78C33E
7CC37E
7EC37E
7FC37C
7FC338
3FF300
3FFB00
1FFF00
1FFF80
07FFC0
03FFF0
00FFF8
00FFF8
00DFFC
00C7FC
7CC3FE
7CC3FE
FCC37E
FCC33E
F8C31E
F0C31E
E0C31C
60C31C
70C338
38C338
1CC360
07FFC0
00C300
00C300
00C300
00C300
ENDCHAR
STARTCHAR 0025
ENCODING 37
SWIDTH 854 0
DWIDTH 41 0
BBX 33 35 4 0
BITMAP
0000003000
0FC0006000
3CF000E000
387000C000
7878018000
7878018000
F87C030000
F87C070000
F87C060000
F87C0E0000
F87C0C0000
F87C180000
7878180000
7878300000
38F0700000
1CE0600000
0FC0C00000
0000C00000
000180F000
0003839C00
0003079E00
00070F0F00
00060F0F00
000C1F0F80
000C1F0F80
00181F0F80
00381F0F80
00301F0F80
00601F0F80
00601F0F80
00C00F0F00
01C00F0F00
0180070E00
0380079E00
030001F800
ENDCHAR
STARTCHAR 0026
ENCODING 38
SWIDTH 770 0
DWIDTH 37 0
BBX 33 34 2 1
BITMAP
001FE00000
0070700000
00E0300000
00E0180000
01E0180000
01E0180000
01E0180000
01F0380000
01F0300000
01F8600000
01F8C00000
00FF800000
00FF000000
007E000000
003F000000
00FF81FF80
01DF803E00
038FC01C00
070FE01800
0E07E03800
1E03F03000
3C01F83000
7C01F86000
7C00FC6000
FC007EC000
FC007F8000
FC003F8000
FE001F8000
FF001F8000
FF000FC180
7FC03FE100
3FF8F7F300
1FFFC3FE00
0FFE00FC00
ENDCHAR
STARTCHAR 0027
ENCODING 39
SWIDTH 229 0
DWIDTH 11 0
BBX 5 12 3 23
BITMAP
20
F0
F8
F8
F8
F8
F8
70
70
70
70
70
ENDCHAR
STARTCHAR 0028
ENCODING 40
SWIDTH 375 0
DWIDTH 18 0
BBX 14 43 3 -8
BITMAP
001C
0038
0070
00E0
01C0
0380
0700
0F00
0E00
1E00
1E00
3C00
3C00
7C00
7C00
7C00
FC00
FC00
FC00
FC00
FC00
FC00
FC00
FC00
FC00
FC00
7C00
7C00
7C00
7C00
3C00
3C00
1E00
1E00
0E00
0F00
0700
0380
01C0
00E0
0070
0038
000C
ENDCHAR
STARTCHAR 0029
ENCODING 41
SWIDTH 354 0
DWIDTH 17 0
BBX 13 43 1 -8
BITMAP
C000
E000
3000
1800
1C00
0E00
0700
0780
0380
03C0
01E0
01E0
01E0
01F0
01F0
01F0
01F8
01F8
01F8
01F8
01F8
01F8
01F8
01F8
01F8
01F8
01F8
01F0
01F0
01F0
01E0
01E0
03C0
03C0
0380
0780
0700
0E00
1C00
3800
7000
E000
8000
ENDCHAR
STARTCHAR 002A
ENCODING 42
SWIDTH 500 0
DWIDTH 24 0
BBX 17 19 4 13
BITMAP
018000
03C000
03C000
E3C300
F18780
F88F80
FC9F80
7EBF00
03C000
03C000
7EBF00
FC9F80
F88F80
F18780
E1C300
03C000
03C000
03C000
018000
ENDCHAR
STARTCHAR 002B
ENCODING 43
SWIDTH 937 0
DWIDTH 45 0
BBX 41 41 2 -7
BITMAP
00001C000000
00001C000000
00001C000000
00001C000000
00001C000000
00001C000000
00001C000000
00001C000000
00001C000000
00001C000000
00001C000000
00001C000000
00001C000000
00001C000000
00001C000000
00001C000000
00001C000000
00001C000000
00001C000000
FFFFFFFFFF80
FFFFFFFFFF80
FFFFFFFFFF80
00001C000000
00001C000000
00001C000000
00001C000000
00001C000000
00001C000000
00001C000000
00001C000000
00001C000000
00001C000000
00001C000000
00001C000000
00001C000000
00001C000000
00001C000000
00001C000000
00001C000000
00001C000000
00001C000000
ENDCHAR
STARTCHAR 002C
ENCODING 44
SWIDTH 270 0
DWIDTH 13 0
BBX 9 15 2 -8
BITMAP
7E00
FF00
FF80
FF80
FF80
7F80
0180
0180
0180
0300
0200
0600
1C00
3800
6000
ENDCHAR
STARTCHAR 002D
ENCODING 45
SWIDTH 375 0
DWIDTH 18 0
BBX 12 5 3 10
BITMAP
FFF0
FFF0
FFF0
FFF0
FFF0
ENDCHAR
STARTCHAR 002E
ENCODING 46
SWIDTH 291 0
DWIDTH 14 0
BBX 8 6 3 1
BITMAP
7E
FF
FF
FF
FF
7E
ENDCHAR
STARTCHAR 002F
ENCODING 47
SWIDTH 458 0
DWIDTH 22 0
BBX 16 44 3 -9
BITMAP
0007
000F
000E
000E
000E
001E
001C
001C
003C
0038
0038
0078
0070
0070
00F0
00E0
00E0
00E0
01E0
01C0
01C0
03C0
0380
0380
0780
0700
0700
0F00
0E00
0E00
0E00
1E00
1C00
1C00
3C00
3800
3800
7800
7000
7000
F000
E000
E000
E000
ENDCHAR
STARTCHAR 0030
ENCODING 48
SWIDTH 583 0
DWIDTH 28 0
BBX 23 35 2 0
BITMAP
001000
00FE00
03C780
0783C0
0F01E0
0F01E0
1F01F0
3F01F8
3F01F8
7F01F8
7F01FC
7F01FC
7F01FC
FF01FE
FF01FE
FF01FE
FF01FE
FF01FE
FF01FE
FF01FE
FF01FE
FF01FE
FF01FE
7F01FC
7F01FC
7F01FC
7F01FC
3F01F8
3F01F8
1F01F0
0F01E0
0F01E0
0783C0
03C780
00FE00
ENDCHAR
STARTCHAR 0031
ENCODING 49
SWIDTH 583 0
DWIDTH 28 0
BBX 16 34 6 0
BITMAP
00F0
00F0
01F0
07F0
FFF0
07F0
07F0
07F0
07F0
07F0
07F0
07F0
07F0
07F0
07F0
07F0
07F0
07F0
07F0
07F0
07F0
07F0
07F0
07F0
07F0
07F0
07F0
07F0
07F0
07F0
07F0
07F0
FFFF
FFFF
ENDCHAR
STARTCHAR 0032
ENCODING 50
SWIDTH 583 0
DWIDTH 28 0
BBX 21 34 3 1
BITMAP
07FF00
0E0FC0
1C07E0
3807F0
7803F0
7803F8
F803F8
FC03F8
FF03F8
FF03F8
FF07F8
7F07F0
3F0FF0
0C0FE0
001FC0
003F80
007F00
00FC00
01F000
03C000
078000
0E0018
0C0018
180018
300018
600018
6FC038
7FFFF8
FFFFF0
EFFFF0
C3FFF0
C1FFE0
C0FFC0
C03F80
ENDCHAR
STARTCHAR 0033
ENCODING 51
SWIDTH 583 0
DWIDTH 28 0
BBX 22 34 3 1
BITMAP
07FF00
0E0FC0
1C07E0
3807F0
7803F0
7C03F8
7E03F8
7F03F8
7F03F8
7F03F8
3F03F0
1E03F0
0007E0
0007C0
000F00
07F800
001F80
000FC0
0007E0
0007F0
0003F8
0003F8
3E03FC
7F03FC
FF03FC
FF03FC
FF03FC
FE03FC
FC03F8
F807F8
7807F0
380FE0
1E1FC0
0FFF00
ENDCHAR
STARTCHAR 0034
ENCODING 52
SWIDTH 583 0
DWIDTH 28 0
BBX 23 34 2 0
BITMAP
0007C0
000FC0
000FC0
001FC0
003FC0
003FC0
007FC0
007FC0
00FFC0
00DFC0
01DFC0
019FC0
039FC0
071FC0
061FC0
0E1FC0
0C1FC0
1C1FC0
181FC0
381FC0
701FC0
601FC0
E01FC0
FFFFFE
001FC0
001FC0
001FC0
001FC0
001FC0
001FC0
001FC0
001FC0
07FFFC
07FFFC
ENDCHAR
STARTCHAR 0035
ENCODING 53
SWIDTH 583 0
DWIDTH 28 0
BBX 21 34 4 0
BITMAP
2000C0
3C0780
3FFF80
3FFF00
3FFE00
3FF800
3FE000
3F0000
300000
300000
300000
300000
300000
31FC00
363F00
3C0FC0
380FE0
300FE0
2007F0
0007F0
0007F8
0007F8
0807F8
3E07F8
7E07F8
FE07F8
FE07F8
FE07F0
F807F0
F007E0
700FC0
300FC0
1C1F00
0FFC00
ENDCHAR
STARTCHAR 0036
ENCODING 54
SWIDTH 583 0
DWIDTH 28 0
BBX 22 34 3 1
BITMAP
00FF80
03C0C0
07C060
0F80F0
1F83F0
1F07F0
3F0FF0
3F0FF0
7F0FE0
7F07C0
7F0300
7F0000
FF0000
FF0000
FF3F00
FFFFC0
FFC3E0
FF83F0
FF03F8
FF01F8
FF01FC
FF01FC
FF01FC
7F01FC
7F01FC
7F01FC
7F01FC
3F01F8
3F01F8
1F01F8
0F81F0
0783E0
03C3C0
01FF00
ENDCHAR
STARTCHAR 0037
ENCODING 55
SWIDTH 583 0
DWIDTH 28 0
BBX 20 34 5 1
BITMAP
47E0E0
CFF0E0
DFF870
FFFC30
FFFE30
FFFFF0
FFFFF0
E01FB0
C00020
C00060
800060
8000C0
8001C0
000180
000380
000700
000F00
000E00
001E00
003C00
007C00
00FC00
01FC00
01F800
03F800
03F800
07F800
07F800
07F800
07F800
07F800
07F800
03F800
03F000
ENDCHAR
STARTCHAR 0038
ENCODING 56
SWIDTH 583 0
DWIDTH 28 0
BBX 23 34 3 1
BITMAP
01FF80
0700C0
0C0060
1C0030
380018
380018
780018
780018
7C0018
7E0018
7F0030
7FC020
7FF060
3FFF80
3FFF00
1FFFC0
0FFFF0
07FFF8
0FFFF8
183FFC
300FFC
7003FE
6000FE
E0007E
E0003E
E0001E
E0001E
E0000C
F0001C
700018
380018
1C0030
0F00C0
03FF00
ENDCHAR
STARTCHAR 0039
ENCODING 57
SWIDTH 583 0
DWIDTH 28 0
BBX 22 34 3 1
BITMAP
03FE00
0F0F00
1F0780
3E07C0
7E03E0
7E03F0
7E03F0
FE03F8
FE03F8
FE03F8
FE03F8
FE03FC
FE03FC
FE03FC
7E03FC
7F07FC
3F07FC
1F0FFC
0FFFFC
03F3FC
0003FC
0003FC
0003F8
0703F8
1F83F8
1FC3F8
3FC3F0
3FC3F0
3F83E0
3E07E0
3C07C0
1C0F80
0E1F00
07FC00
ENDCHAR
STARTCHAR 003A
ENCODING 58
SWIDTH 291 0
DWIDTH 14 0
BBX 8 22 3 1
BITMAP
7E
FF
FF
FF
FF
7E
00
00
00
00
00
00
00
00
00
00
7E
FF
FF
FF
FF
7E
ENDCHAR
STARTCHAR 003B
ENCODING 59
SWIDTH 270 0
DWIDTH 13 0
BBX 9 32 2 -9
BITMAP
3F00
7F80
7F80
7F80
7F80
3F00
0000
0000
0000
0000
0000
0000
0000
0000
0000
0000
3C00
7F00
FF00
FF80
FF80
FF80
3980
0180
0180
0300
0300
0600
0C00
3800
F000
4000
ENDCHAR
STARTCHAR 003C
ENCODING 60
SWIDTH 937 0
DWIDTH 45 0
BBX 37 40 4 -7
BITMAP
0000000030
00000000F0
00000001F8
00000007E0
0000001F80
0000007E00
000001FC00
000007F000
00000FC000
00003F0000
0000FC0000
0003F00000
000FE00000
003F800000
007E000000
01F8000000
07E0000000
1F80000000
7F00000000
FC00000000
F800000000
7E00000000
1F80000000
0FE0000000
03F8000000
00FC000000
003F000000
000FC00000
0003F00000
0001FC0000
00007F0000
00001FC000
000007E000
000001F800
0000007E00
0000003F80
0000000FE0
00000003F8
00000000F8
0000000030
ENDCHAR
STARTCHAR 003D
ENCODING 61
SWIDTH 937 0
DWIDTH 45 0
BBX 41 13 2 6
BITMAP
FFFFFFFFFF80
FFFFFFFFFF80
FFFFFFFFFF80
000000000000
000000000000
000000000000
000000000000
000000000000
000000000000
000000000000
FFFFFFFFFF80
FFFFFFFFFF80
FFFFFFFFFF80
ENDCHAR
STARTCHAR 003E
ENCODING 62
SWIDTH 937 0
DWIDTH 45 0
BBX 37 40 4 -7
BITMAP
6000000000
7800000000
FC00000000
3F00000000
0FC0000000
03F0000000
01FC000000
007F000000
001F800000
0007E00000
0001F80000
00007E0000
00003F8000
00000FE000
000003F000
000000FC00
0000003F00
0000000FC0
00000007F0
00000001F8
00000000F8
00000003F0
0000000FC0
0000003F80
000000FE00
000001F800
000007E000
00001F8000
00007E0000
0001FC0000
0007F00000
001FC00000
003F000000
00FC000000
03F0000000
0FE0000000
3F80000000
FE00000000
F800000000
6000000000
ENDCHAR
STARTCHAR 003F
ENCODING 63
SWIDTH 458 0
DWIDTH 22 0
BBX 15 34 3 1
BITMAP
1FF0
3BF8
60FC
60FC
C07E
C07E
C07E
C07E
C07E
40FC
60FC
30F8
01F0
01E0
03C0
0380
0700
0700
0E00
0C10
0C10
0C10
0C10
0620
03C0
0000
0000
0080
03E0
07F0
07F0
07F0
07F0
03E0
ENDCHAR
STARTCHAR 0040
ENCODING 64
SWIDTH 812 0
DWIDTH 39 0
BBX 35 34 2 1
BITMAP
000FFF0000
003801E000
00E0007000
0180001C00
0700000E00
0E00000700
0C00F80300
1C03CDF380
380787F180
380F07E1C0
701F07E1C0
703E07E0E0
703E07E0E0
E07C07C0E0
E07C07C0E0
E07C07C0E0
E0FC0FC0E0
E0F80F80E0
E0F80F80E0
E0F80F81C0
E0F81F81C0
E0F81F8180
70F81F0380
70F83F0300
70786F0600
383CC78C00
381F03F000
1C00000000
0E00000000
0700000000
0380000000
01C0006000
007801C000
001FFF0000
ENDCHAR
STARTCHAR 0041
ENCODING 65
SWIDTH 750 0
DWIDTH 36 0
BBX 33 35 2 0
BITMAP
0000C00000
0001C00000
0001E00000
0001E00000
0003E00000
0003F00000
0003F00000
0007F00000
0007F80000
0007F80000
000FF80000
000FFC0000
000FFC0000
0019FC0000
0019FE0000
0019FE0000
0030FE0000
0030FF0000
0020FF0000
00607F0000
00607F8000
00407F8000
00C03F8000
00C03FC000
00FFFFC000
01FFFFC000
01801FE000
01001FE000
03000FE000
03000FF000
02000FF000
060007F000
0F0007F800
1F000FFC00
FFF0FFFF80
ENDCHAR
STARTCHAR 0042
ENCODING 66
SWIDTH 687 0
DWIDTH 33 0
BBX 28 34 3 0
BITMAP
FFFFF000
0FE07E00
0FE01F00
0FE01F80
0FE00FC0
0FE00FC0
0FE00FE0
0FE00FE0
0FE00FE0
0FE00FE0
0FE00FE0
0FE00FC0
0FE00FC0
0FE01F80
0FE01E00
0FE03C00
0FFFE000
0FE07C00
0FE03F00
0FE01F80
0FE00FC0
0FE00FE0
0FE00FF0
0FE00FF0
0FE00FF0
0FE00FF0
0FE00FF0
0FE00FF0
0FE00FE0
0FE00FE0
0FE01FC0
0FE01F80
0FE07E00
FFFFF800
ENDCHAR
STARTCHAR 0043
ENCODING 67
SWIDTH 645 0
DWIDTH 31 0
BBX 26 34 3 1
BITMAP
007FC180
01E0F180
03C03F80
0F801F80
0F800F80
1F000F80
3F000780
3F000780
7F000380
7F000380
7F000380
7F000180
FF000180
FF000180
FF000180
FF000000
FF000000
FF000000
FF000000
FF000000
FF000000
FF0000C0
7F0000C0
7F0000C0
7F000080
3F000180
3F000180
3F000180
1F800300
0F800300
07800600
03C00C00
01E03800
007FE000
ENDCHAR
STARTCHAR 0044
ENCODING 68
SWIDTH 770 0
DWIDTH 37 0
BBX 32 34 3 0
BITMAP
FFFFF800
0FE01F00
0FE00780
0FE003E0
0FE001F0
0FE001F0
0FE000F8
0FE000FC
0FE000FC
0FE000FE
0FE000FE
0FE000FE
0FE000FF
0FE000FF
0FE000FF
0FE000FF
0FE000FF
0FE000FF
0FE000FF
0FE000FF
0FE000FF
0FE000FE
0FE000FE
0FE000FE
0FE000FE
0FE000FC
0FE000FC
0FE000F8
0FE001F0
0FE001E0
0FE003C0
0FE00780
0FE01E00
FFFFF800
ENDCHAR
STARTCHAR 0045
ENCODING 69
SWIDTH 687 0
DWIDTH 33 0
BBX 27 34 3 0
BITMAP
FFFFFFE0
0FE01FE0
0FE007E0
0FE003E0
0FE001E0
0FE001E0
0FE000E0
0FE000E0
0FE00060
0FE03060
0FE03060
0FE03000
0FE07000
0FE07000
0FE0F000
0FE1F000
0FFFF000
0FE1F000
0FE0F000
0FE07000
0FE07020
0FE03060
0FE03060
0FE03060
0FE00060
0FE00060
0FE000E0
0FE000E0
0FE001E0
0FE003E0
0FE003E0
0FE00FE0
FFFFFFE0
FFFFFFE0
ENDCHAR
STARTCHAR 0046
ENCODING 70
SWIDTH 666 0
DWIDTH 32 0
BBX 28 34 3 0
BITMAP
FFFFFFF0
07F00FF0
07F003F0
07F001F0
07F001F0
07F000F0
07F000F0
07F00070
07F00070
07F01830
07F01830
07F01830
07F03830
07F03800
07F07800
07F0F800
07FFF800
07F0F800
07F07800
07F03800
07F03800
07F01800
07F01800
07F01800
07F00000
07F00000
07F00000
07F00000
07F00000
07F00000
07F00000
07F00000
07F00000
FFFF8000
ENDCHAR
STARTCHAR 0047
ENCODING 71
SWIDTH 729 0
DWIDTH 35 0
BBX 30 34 3 1
BITMAP
007FE0C0
00E078C0
03C01FC0
07800FC0
0F8007C0
1F0007C0
1F0003C0
3F0003C0
3F0001C0
7F0001C0
7F0001C0
7F0000C0
FF0000C0
FF0000C0
FF000000
FF000000
FF000000
FF03FFFC
FF03FFFC
FF001FC0
FF001FC0
FF001FC0
7F001FC0
7F001FC0
7F001FC0
7F001FC0
3F001FC0
3F001FC0
1F001FC0
0F8039C0
0F8031C0
07C060C0
01E0C0C0
007F80C0
ENDCHAR
STARTCHAR 0048
ENCODING 72
SWIDTH 812 0
DWIDTH 39 0
BBX 34 34 3 0
BITMAP
FFFF3FFFC0
07F001FC00
07F001FC00
07F001FC00
07F001FC00
07F001FC00
07F001FC00
07F001FC00
07F001FC00
07F001FC00
07F001FC00
07F001FC00
07F001FC00
07F001FC00
07F001FC00
07F001FC00
07FFFFFC00
07F001FC00
07F001FC00
07F001FC00
07F001FC00
07F001FC00
07F001FC00
07F001FC00
07F001FC00
07F001FC00
07F001FC00
07F001FC00
07F001FC00
07F001FC00
07F001FC00
07F001FC00
07F001FC00
FFFF3FFFC0
ENDCHAR
STARTCHAR 0049
ENCODING 73
SWIDTH 437 0
DWIDTH 21 0
BBX 16 34 3 0
BITMAP
FFFF
07F0
07F0
07F0
07F0
07F0
07F0
07F0
07F0
07F0
07F0
07F0
07F0
07F0
07F0
07F0
07F0
07F0
07F0
07F0
07F0
07F0
07F0
07F0
07F0
07F0
07F0
07F0
07F0
07F0
07F0
07F0
07F0
FFFF
ENDCHAR
STARTCHAR 004A
ENCODING 74
SWIDTH 541 0
DWIDTH 26 0
BBX 23 34 2 0
BITMAP
01FFFE
000FE0
000FE0
000FE0
000FE0
000FE0
000FE0
000FE0
000FE0
000FE0
000FE0
000FE0
000FE0
000FE0
000FE0
000FE0
000FE0
000FE0
000FE0
000FE0
000FE0
1E0FE0
7E0FE0
7F0FE0
FF0FE0
FF0FE0
FE0FE0
FE0FE0
F80FC0
700FC0
600F80
301F00
181E00
0FF800
ENDCHAR
STARTCHAR 004B
ENCODING 75
SWIDTH 770 0
DWIDTH 37 0
BBX 33 34 3 0
BITMAP
FFFF1FFE00
07F007F000
07F003C000
07F0038000
07F0030000
07F0070000
07F00E0000
07F00C0000
07F0180000
07F0300000
07F0600000
07F0E00000
07F0E00000
07F1F00000
07F3F00000
07F7F80000
07FFFC0000
07FFFC0000
07F9FE0000
07F1FE0000
07F0FF0000
07F0FF0000
07F07F8000
07F07F8000
07F03FC000
07F03FC000
07F01FE000
07F01FE000
07F00FF000
07F00FF000
07F007F800
07F007F800
07F007FC00
FFFF3FFF80
ENDCHAR
STARTCHAR 004C
ENCODING 76
SWIDTH 666 0
DWIDTH 32 0
BBX 28 34 3 0
BITMAP
FFFF0000
07F00000
07F00000
07F00000
07F00000
07F00000
07F00000
07F00000
07F00000
07F00000
07F00000
07F00000
07F00000
07F00000
07F00000
07F00000
07F00000
07F00000
07F00000
07F00030
07F00030
07F00030
07F00070
07F00070
07F00070
07F000F0
07F000F0
07F000F0
07F001F0
07F003F0
07F003F0
07F007F0
FFFFFFF0
FFFFFFF0
ENDCHAR
STARTCHAR 004D
ENCODING 77
SWIDTH 895 0
DWIDTH 43 0
BBX 39 34 2 0
BITMAP
FFF0003FFE
07F0003FC0
07F8003FC0
07F8003FC0
07F8007FC0
07FC007FC0
07FC005FC0
07FC005FC0
07FE00DFC0
06FE00DFC0
06FF009FC0
067F009FC0
067F019FC0
067F819FC0
063F811FC0
063F811FC0
063FC31FC0
061FC21FC0
061FE21FC0
060FE21FC0
060FE61FC0
060FF41FC0
0607F41FC0
0607F41FC0
0607FC1FC0
0603F81FC0
0603F81FC0
0601F81FC0
0601F81FC0
0601F01FC0
0600F01FC0
0F00F01FC0
3FC0F01FC0
FFF061FFFE
ENDCHAR
STARTCHAR 004E
ENCODING 78
SWIDTH 770 0
DWIDTH 37 0
BBX 34 35 2 -1
BITMAP
FFE00FFFC0
1FF003FF00
0FF000FC00
0FF8007800
07FC003000
03FE003000
03FE003000
03FF003000
03FF803000
03FF803000
037FC03000
033FE03000
031FE03000
031FF03000
030FF83000
0307F83000
0307FC3000
0303FE3000
0301FF3000
0301FF3000
0300FFB000
03007FF000
03007FF000
03003FF000
03001FF000
03000FF000
03000FF000
030007F000
030003F000
030003F000
078001F000
0FC000F000
3FF000F000
FFFC007000
0000003000
ENDCHAR
STARTCHAR 004F
ENCODING 79
SWIDTH 687 0
DWIDTH 33 0
BBX 28 34 3 1
BITMAP
003FC000
00E07000
03C03800
07801E00
0F801E00
0F000F00
1F000F80
3F000FC0
3F000FC0
7F000FC0
7F000FE0
7F000FE0
7F000FE0
FF000FF0
FF000FF0
FF000FF0
FF000FF0
FF000FF0
FF000FF0
FF000FF0
FF000FF0
7F000FE0
7F000FE0
7F000FE0
7F000FC0
3F000FC0
3F000FC0
1F000F80
0F000F00
0F801F00
07801E00
03C03C00
00E07000
003FC000
ENDCHAR
STARTCHAR 0050
ENCODING 80
SWIDTH 708 0
DWIDTH 34 0
BBX 29 34 3 0
BITMAP
FFFFF800
07F03F00
07F00FC0
07F00FE0
07F00FF0
07F007F0
07F007F8
07F007F8
07F007F8
07F007F8
07F007F8
07F007F8
07F007F0
07F00FF0
07F00FE0
07F00FC0
07F01F00
07FFFC00
07F00000
07F00000
07F00000
07F00000
07F00000
07F00000
07F00000
07F00000
07F00000
07F00000
07F00000
07F00000
07F00000
07F00000
07F00000
FFFF8000
ENDCHAR
STARTCHAR 0051
ENCODING 81
SWIDTH 687 0
DWIDTH 33 0
BBX 28 45 3 -10
BITMAP
003FC000
00E07000
03C03800
07801E00
0F801E00
0F000F00
1F000F80
3F000F80
3F000FC0
7F000FC0
7F000FE0
7F000FE0
7F000FE0
FF000FF0
FF000FF0
FF000FF0
FF000FF0
FF000FF0
FF000FF0
FF000FF0
FF000FF0
FF000FF0
7F000FE0
7F000FE0
7F000FE0
3F000FC0
3F0F0FC0
1F118F80
0FA0DF00
0FA0DF00
07A0FE00
03E0FC10
00F0F810
007FE010
0000E010
0000E010
0000E030
0000F030
0000F870
0000FFF0
0000FFE0
00007FE0
00007FC0
00003F80
00001F00
ENDCHAR
STARTCHAR 0052
ENCODING 82
SWIDTH 750 0
DWIDTH 36 0
BBX 32 36 3 -2
BITMAP
FFFFF000
07F07E00
07F03F00
07F03F80
07F01FC0
07F01FC0
07F01FE0
07F01FE0
07F01FE0
07F01FE0
07F01FE0
07F01FC0
07F03FC0
07F03F00
07F07E00
07FFF000
07F0F000
07F03E00
07F03F00
07F01F80
07F01F80
07F01FC0
07F01FC0
07F01FC0
07F01FC0
07F01FC3
07F01FC3
07F01FC3
07F01FC3
07F01FC3
07F01FC6
07F01FC6
07F00FEE
FFFF87FC
000003F8
00000060
ENDCHAR
STARTCHAR 0053
ENCODING 83
SWIDTH 604 0
DWIDTH 29 0
BBX 23 34 4 1
BITMAP
07FC18
180F18
3803F8
7001F8
7000F8
F00078
F80078
F80038
FC0018
FE0018
FF8018
FFE008
7FF000
7FFC00
3FFE00
1FFF80
0FFFC0
03FFF0
01FFF8
807FF8
C01FFC
C00FFC
C003FE
E001FE
E0007E
E0003E
F0001E
F8001E
F8001C
FC001C
FE0018
EF0030
C38060
C1FF80
ENDCHAR
STARTCHAR 0054
ENCODING 84
SWIDTH 708 0
DWIDTH 34 0
BBX 29 34 3 0
BITMAP
FFFFFFF8
FF3FE7F8
FC1FC1F8
F81FC0F8
F81FC0F8
F01FC078
E01FC038
E01FC038
E01FC038
C01FC018
C01FC018
C01FC018
C01FC018
801FC008
001FC000
001FC000
001FC000
001FC000
001FC000
001FC000
001FC000
001FC000
001FC000
001FC000
001FC000
001FC000
001FC000
001FC000
001FC000
001FC000
001FC000
001FC000
001FC000
03FFFE00
ENDCHAR
STARTCHAR 0055
ENCODING 85
SWIDTH 791 0
DWIDTH 38 0
BBX 33 34 3 0
BITMAP
FFFF07FF80
0FE001FE00
0FE0007800
0FE0003000
0FE0003000
0FE0003000
0FE0003000
0FE0003000
0FE0003000
0FE0003000
0FE0003000
0FE0003000
0FE0003000
0FE0003000
0FE0003000
0FE0003000
0FE0003000
0FE0003000
0FE0003000
0FE0003000
0FE0003000
0FE0003000
0FE0003000
0FE0003000
0FE0003000
0FE0003000
07E0003000
07E0006000
07F0006000
03F000C000
01F801C000
00FC038000
007F9F0000
001FFC0000
ENDCHAR
STARTCHAR 0056
ENCODING 86
SWIDTH 770 0
DWIDTH 37 0
BBX 34 34 2 0
BITMAP
FFFF87FFC0
0FF8007E00
07F8003800
07F8003800
03F8003000
03FC003000
03FC003000
01FE006000
01FE006000
00FE006000
00FF00C000
00FF00C000
007F00C000
007F818000
007F818000
003F818000
003FC30000
003FC30000
001FC30000
001FE60000
000FE60000
000FF60000
000FFC0000
0007FC0000
0007FC0000
0007F80000
0003F80000
0003F80000
0003F00000
0001F00000
0001F00000
0000E00000
0000E00000
0000E00000
ENDCHAR
STARTCHAR 0057
ENCODING 87
SWIDTH 1083 0
DWIDTH 52 0
BBX 49 34 2 0
BITMAP
FFFF3FFFCFFF80
1FFC07FE00FC00
07F803FC007000
07F801FC007000
03F801FE006000
03FC01FE006000
03FC00FE006000
01FC00FE00C000
01FE01FF00C000
01FE01FF00C000
00FE01FF018000
00FF037F818000
00FF033F818000
007F033F818000
007F873FC30000
007F861FC30000
003F861FC30000
003FC61FE70000
001FCC0FE60000
001FCC0FE60000
001FEC0FF60000
000FF807FC0000
000FF807FC0000
000FF807FC0000
0007F803FC0000
0007F003F80000
0007F003F80000
0003F001F80000
0003E001F00000
0003E001F00000
0001E000F00000
0001C000F00000
0001C000E00000
0000C000600000
ENDCHAR
STARTCHAR 0058
ENCODING 88
SWIDTH 750 0
DWIDTH 36 0
BBX 33 34 2 0
BITMAP
7FFF1FFE00
1FFC03F000
07F803C000
03F8038000
03FC038000
01FC030000
01FE070000
00FF060000
00FF0C0000
007F8C0000
007F980000
003FF00000
003FF00000
001FE00000
001FE00000
000FF00000
000FF80000
0007F80000
0007FC0000
0007FC0000
000FFE0000
001DFE0000
0018FF0000
0038FF0000
00307F8000
00607F8000
00E03FC000
00C03FE000
01801FE000
03801FF000
03800FF000
07800FF800
1F801FFC00
FFF07FFF80
ENDCHAR
STARTCHAR 0059
ENCODING 89
SWIDTH 729 0
DWIDTH 35 0
BBX 32 34 2 0
BITMAP
FFFE0FFF
1FF801F8
0FF800F0
07F800E0
07F800C0
03FC00C0
03FC00C0
01FC0180
01FE0180
00FE0300
00FF0300
00FF0300
007F8600
007F8600
003FC400
003FCC00
001FCC00
001FF800
000FF800
000FF800
0007F000
0007F000
0007F000
0007F000
0007F000
0007F000
0007F000
0007F000
0007F000
0007F000
0007F000
0007F000
0007F000
00FFFF00
ENDCHAR
STARTCHAR 005A
ENCODING 90
SWIDTH 645 0
DWIDTH 31 0
BBX 25 34 3 0
BITMAP
7FFFFF80
7F807F80
7E00FF00
7C00FF00
7801FE00
7803FE00
7003FC00
7007FC00
6007F800
600FF800
600FF000
401FE000
001FE000
003FC000
003FC000
007F8000
007F8000
00FF0000
00FF0000
01FE0000
03FE0080
03FC0080
07F80080
07F80080
0FF00180
0FF00180
1FE00380
1FE00380
3FC00780
3FC00F80
7F801F80
7F803F80
FFFFFF80
FFFFFF80
ENDCHAR
STARTCHAR 005B
ENCODING 91
SWIDTH 375 0
DWIDTH 18 0
BBX 11 42 4 -8
BITMAP
FFE0
F800
F800
F800
F800
F800
F800
F800
F800
F800
F800
F800
F800
F800
F800
F800
F800
F800
F800
F800
F800
F800
F800
F800
F800
F800
F800
F800
F800
F800
F800
F800
F800
F800
F800
F800
F800
F800
F800
F800
F800
FFE0
ENDCHAR
STARTCHAR 005C
ENCODING 92
SWIDTH 458 0
DWIDTH 22 0
BBX 16 44 3 -9
BITMAP
E000
E000
E000
F000
7000
7000
7800
3800
3800
3C00
1C00
1C00
1E00
0E00
0E00
0E00
0F00
0700
0700
0780
0380
0380
03C0
01C0
01C0
01E0
00E0
00E0
00E0
00F0
0070
0070
0078
0038
0038
003C
001C
001C
001E
000E
000E
000E
000F
0007
ENDCHAR
STARTCHAR 005D
ENCODING 93
SWIDTH 375 0
DWIDTH 18 0
BBX 11 42 3 -8
BITMAP
FFE0
03E0
03E0
03E0
03E0
03E0
03E0
03E0
03E0
03E0
03E0
03E0
03E0
03E0
03E0
03E0
03E0
03E0
03E0
03E0
03E0
03E0
03E0
03E0
03E0
03E0
03E0
03E0
03E0
03E0
03E0
03E0
03E0
03E0
03E0
03E0
03E0
03E0
03E0
03E0
03E0
FFE0
ENDCHAR
STARTCHAR 005E
ENCODING 94
SWIDTH 583 0
DWIDTH 28 0
BBX 22 17 3 18
BITMAP
003000
007000
007800
00FC00
00FC00
01FE00
03CF00
038F00
078780
0F0380
0F03C0
1E01E0
3C00E0
3C00F0
780078
700038
F0003C
ENDCHAR
STARTCHAR 005F
ENCODING 95
SWIDTH 520 0
DWIDTH 25 0
BBX 25 3 0 -8
BITMAP
FFFFFF80
FFFFFF80
FFFFFF80
ENDCHAR
STARTCHAR 0060
ENCODING 96
SWIDTH 437 0
DWIDTH 21 0
BBX 8 9 4 25
BITMAP
60
F0
F8
7C
3C
1E
0F
03
01
ENDCHAR
STARTCHAR 0061
ENCODING 97
SWIDTH 500 0
DWIDTH 24 0
BBX 21 22 2 1
BITMAP
0FF800
183E00
383F00
781F00
7C1F80
7E1F80
7E1F80
3E1F80
083F80
01FF80
079F80
1E1F80
3E1F80
7C1F80
7C1F80
FC1F80
FC1F88
FC1F88
FC1F98
FE3F90
7F7FF0
3F8FE0
ENDCHAR
STARTCHAR 0062
ENCODING 98
SWIDTH 520 0
DWIDTH 25 0
BBX 22 34 1 0
BITMAP
FF8000
1F8000
1F8000
1F8000
1F8000
1F8000
1F8000
1F8000
1F8000
1F8000
1F8000
1F8000
1F9F80
1FB3E0
1FE1E0
1FC1F0
1FC1F8
1FC0F8
1FC0F8
1F80FC
1F80FC
1F80FC
1F80FC
1F80FC
1F80FC
1F80FC
1F80FC
1F80F8
1FC0F8
1FC1F8
1DC1F0
18E1E0
1863C0
103F80
ENDCHAR
STARTCHAR 0063
ENCODING 99
SWIDTH 458 0
DWIDTH 22 0
BBX 18 22 2 1
BITMAP
03FC00
0F0600
1F0300
3E0380
3E0780
7E0F80
7C1F80
FC1F80
FC1F00
FC0E00
FC0000
FC0000
FC0000
FC0000
FC0000
7C0040
7C00C0
3E0080
3E0080
1E0100
0F8200
03FC00
ENDCHAR
STARTCHAR 0064
ENCODING 100
SWIDTH 541 0
DWIDTH 26 0
BBX 23 34 2 0
BITMAP
003FE0
0007E0
0007E0
0007E0
0007E0
0007E0
0007E0
0007E0
0007E0
0007E0
0007E0
0007E0
07E7E0
1F17E0
1E1FE0
3E0FE0
7E0FE0
7C0FE0
7C07E0
FC07E0
FC07E0
FC07E0
FC07E0
FC07E0
FC07E0
FC07E0
FC07E0
7C07E0
7C0FE0
7E0FE0
3E0FE0
1E1FE0
0F17E0
07E7FE
ENDCHAR
STARTCHAR 0065
ENCODING 101
SWIDTH 479 0
DWIDTH 23 0
BBX 18 22 2 1
BITMAP
03FC00
0E1E00
1E1F00
3E0F80
3C0F80
7C0F80
7C0FC0
FC0FC0
FC0FC0
FC0FC0
FFFFC0
FC0000
FC0000
FC0000
FC0040
7C0040
7C00C0
3E00C0
3E0080
1F0100
0F8300
03FC00
ENDCHAR
STARTCHAR 0066
ENCODING 102
SWIDTH 333 0
DWIDTH 16 0
BBX 18 34 1 1
BITMAP
00FF00
01C780
07C780
07C7C0
0F8FC0
0F8FC0
1F8FC0
1F8F80
1F8780
1F8000
1F8000
1F8000
FFF000
1F8000
1F8000
1F8000
1F8000
1F8000
1F8000
1F8000
1F8000
1F8000
1F8000
1F8000
1F8000
1F8000
1F8000
1F8000
1F8000
1F8000
1F8000
1F8000
1F8000
FFF000
ENDCHAR
STARTCHAR 0067
ENCODING 103
SWIDTH 562 0
DWIDTH 27 0
BBX 24 33 2 -10
BITMAP
07FE3E
1F0F47
3F078F
3E07CF
7E07EE
7E07E4
7E07E0
7E07E0
7E07E0
3E07C0
1F0F80
0F0F00
03FC00
0C0000
300000
300000
700000
700000
7FFF80
7FFFE0
3FFFF0
1FFFF0
07FFF8
3C01F8
600078
C00038
C00038
C00030
C00070
600060
3001C0
1E0780
03FC00
ENDCHAR
STARTCHAR 0068
ENCODING 104
SWIDTH 562 0
DWIDTH 27 0
BBX 24 34 1 0
BITMAP
FF8000
1F8000
1F8000
1F8000
1F8000
1F8000
1F8000
1F8000
1F8000
1F8000
1F8000
1F8100
1F8FE0
1F91F0
1FA0F8
1FA0FC
1FC0FC
1FC0FC
1FC0FC
1F80FC
1F80FC
1F80FC
1F80FC
1F80FC
1F80FC
1F80FC
1F80FC
1F80FC
1F80FC
1F80FC
1F80FC
1F80FC
1F80FC
FFE3FF
ENDCHAR
STARTCHAR 0069
ENCODING 105
SWIDTH 312 0
DWIDTH 15 0
BBX 11 35 2 0
BITMAP
0400
1F00
3F80
3F80
3F80
3F80
1F00
0400
0000
0000
0000
0000
0000
FF00
3F00
3F00
3F00
3F00
3F00
3F00
3F00
3F00
3F00
3F00
3F00
3F00
3F00
3F00
3F00
3F00
3F00
3F00
3F00
3F00
FFE0
ENDCHAR
STARTCHAR 006A
ENCODING 106
SWIDTH 333 0
DWIDTH 16 0
BBX 15 46 -2 -11
BITMAP
0010
007C
00FE
00FE
00FE
00FE
007C
0010
0000
0000
0000
0000
0000
07FC
00FC
00FC
00FC
00FC
00FC
00FC
00FC
00FC
00FC
00FC
00FC
00FC
00FC
00FC
00FC
00FC
00FC
00FC
00FC
00FC
00FC
00FC
00FC
38FC
7CFC
FCFC
FCFC
F8F8
F8F8
71F0
31E0
1F80
ENDCHAR
STARTCHAR 006B
ENCODING 107
SWIDTH 562 0
DWIDTH 27 0
BBX 25 34 1 0
BITMAP
FF800000
1F800000
1F800000
1F800000
1F800000
1F800000
1F800000
1F800000
1F800000
1F800000
1F800000
1F800000
1F83FE00
1F80F000
1F806000
1F80C000
1F808000
1F818000
1F830000
1F860000
1F8F0000
1F9F0000
1F9F8000
1FBF8000
1FEFC000
1FC7E000
1F87E000
1F83F000
1F81F800
1F81F800
1F80FC00
1F80FC00
1F80FE00
FFF3FF80
ENDCHAR
STARTCHAR 006C
ENCODING 108
SWIDTH 291 0
DWIDTH 14 0
BBX 12 34 1 0
BITMAP
FF80
1F80
1F80
1F80
1F80
1F80
1F80
1F80
1F80
1F80
1F80
1F80
1F80
1F80
1F80
1F80
1F80
1F80
1F80
1F80
1F80
1F80
1F80
1F80
1F80
1F80
1F80
1F80
1F80
1F80
1F80
1F80
1F80
FFF0
ENDCHAR
STARTCHAR 006D
ENCODING 109
SWIDTH 770 0
DWIDTH 37 0
BBX 34 22 2 1
BITMAP
FF1FC1F800
3F23E67C00
3F43E43E00
3F83F83F00
3F83F83F00
3F83F83F00
3F03F03F00
3F03F03F00
3F03F03F00
3F03F03F00
3F03F03F00
3F03F03F00
3F03F03F00
3F03F03F00
3F03F03F00
3F03F03F00
3F03F03F00
3F03F03F00
3F03F03F00
3F03F03F00
3F03F03F00
FFCFFCFFC0
ENDCHAR
STARTCHAR 006E
ENCODING 110
SWIDTH 562 0
DWIDTH 27 0
BBX 23 22 2 1
BITMAP
FF1FC0
3F23E0
3F41F0
3F41F8
3F81F8
3F81F8
3F01F8
3F01F8
3F01F8
3F01F8
3F01F8
3F01F8
3F01F8
3F01F8
3F01F8
3F01F8
3F01F8
3F01F8
3F01F8
3F01F8
3F01F8
FFC7FE
ENDCHAR
STARTCHAR 006F
ENCODING 111
SWIDTH 500 0
DWIDTH 24 0
BBX 20 22 2 1
BITMAP
03FC00
0F0F00
1E0780
3E07C0
3E07C0
7C03E0
7C03E0
FC03F0
FC03F0
FC03F0
FC03F0
FC03F0
FC03F0
FC03F0
FC03F0
7C03E0
7C03E0
3E07C0
3E07C0
1E0780
0F0F00
03FC00
ENDCHAR
STARTCHAR 0070
ENCODING 112
SWIDTH 520 0
DWIDTH 25 0
BBX 22 33 1 -10
BITMAP
FF9F80
1FA3C0
1FE1E0
1FC1F0
1FC0F8
1FC0F8
1FC0F8
1F80FC
1F80FC
1F80FC
1F80FC
1F80FC
1F80FC
1F80FC
1F80FC
1FC0FC
1FC0F8
1FC0F8
1FC1F0
1FE1F0
1FB3E0
1F9F80
1F8000
1F8000
1F8000
1F8000
1F8000
1F8000
1F8000
1F8000
1F8000
1F8000
FFF000
ENDCHAR
STARTCHAR 0071
ENCODING 113
SWIDTH 520 0
DWIDTH 25 0
BBX 22 33 2 -10
BITMAP
07F020
0F1860
1E1C60
3E0EE0
7E0FE0
7C0FE0
7C07E0
FC07E0
FC07E0
FC07E0
FC07E0
FC07E0
FC07E0
FC07E0
FC07E0
7C07E0
7C0FE0
7E0FE0
3E0FE0
1E1FE0
1F17E0
07E7E0
0007E0
0007E0
0007E0
0007E0
0007E0
0007E0
0007E0
0007E0
0007E0
0007E0
003FFC
ENDCHAR
STARTCHAR 0072
ENCODING 114
SWIDTH 416 0
DWIDTH 20 0
BBX 17 22 2 1
BITMAP
FF1F00
3F3F80
3F4F80
3F4F80
3F9F80
3F9F80
3F9F00
3F0E00
3F0000
3F0000
3F0000
3F0000
3F0000
3F0000
3F0000
3F0000
3F0000
3F0000
3F0000
3F0000
3F0000
FFC000
ENDCHAR
STARTCHAR 0073
ENCODING 115
SWIDTH 437 0
DWIDTH 21 0
BBX 16 22 3 1
BITMAP
1FC4
3074
603C
E01C
E01C
F00C
F804
FE04
7F80
7FE0
3FF0
1FFC
07FE
81FE
C07F
C01F
E00F
E007
F007
F806
CC0E
87F8
ENDCHAR
STARTCHAR 0074
ENCODING 116
SWIDTH 354 0
DWIDTH 17 0
BBX 15 32 1 0
BITMAP
0180
0180
0180
0180
0180
0380
0380
0780
0F80
3F80
FFF8
1F80
1F80
1F80
1F80
1F80
1F80
1F80
1F80
1F80
1F80
1F80
1F82
1F82
1F82
1F82
1F86
1F86
1F84
0FC4
0FF8
07F0
ENDCHAR
STARTCHAR 0075
ENCODING 117
SWIDTH 541 0
DWIDTH 26 0
BBX 24 22 1 0
BITMAP
FF8FF8
1F81F8
1F81F8
1F81F8
1F81F8
1F81F8
1F81F8
1F81F8
1F81F8
1F81F8
1F81F8
1F81F8
1F81F8
1F81F8
1F81F8
1F81F8
1F83F8
1F83F8
1F85F8
0F85F8
0FC9F8
07F1FF
ENDCHAR
STARTCHAR 0076
ENCODING 118
SWIDTH 520 0
DWIDTH 25 0
BBX 23 23 1 -1
BITMAP
FFF1FE
3FC078
1F8030
0FC030
0FC020
07C060
07E060
07E040
03E0C0
03F080
03F080
01F180
01F900
00F900
00FF00
00FE00
007E00
007E00
007C00
003C00
003C00
001800
001800
ENDCHAR
STARTCHAR 0077
ENCODING 119
SWIDTH 770 0
DWIDTH 37 0
BBX 35 23 1 -1
BITMAP
FFE7FF1FE0
3F81FC0780
1F80FC0300
0F80FC0200
0FC07C0200
0FC07C0600
07C07E0400
07E0FE0400
03E0BF0C00
03E0BF0800
03F19F1800
01F11F9000
01F11F9000
01FB1FB000
00FA0FE000
00FA0FE000
00FE0FE000
007C07C000
007C07C000
003C07C000
0038038000
0038038000
0018030000
ENDCHAR
STARTCHAR 0078
ENCODING 120
SWIDTH 520 0
DWIDTH 25 0
BBX 23 22 1 0
BITMAP
FFE7FC
3FC0F0
1FC0E0
0FC0C0
0FE180
07E300
03F200
03FE00
01FC00
01FC00
00FC00
007E00
007F00
007F00
00DF80
019FC0
030FC0
020FE0
0607E0
0E07F0
1E07F8
FFCFFE
ENDCHAR
STARTCHAR 0079
ENCODING 121
SWIDTH 520 0
DWIDTH 25 0
BBX 23 33 1 -11
BITMAP
FFF1FE
3FC078
1F8030
0FC020
0FC020
0FC060
07E040
07E040
03F0C0
03F080
01F880
01F980
00F900
00FD00
00FD00
007E00
007E00
003E00
003C00
001C00
001C00
000C00
000800
000800
000800
0F1000
1F1000
3F9000
3F2000
3E2000
3E4000
1FC000
0F0000
ENDCHAR
STARTCHAR 007A
ENCODING 122
SWIDTH 458 0
DWIDTH 22 0
BBX 18 22 2 0
BITMAP
7FFFC0
7C0FC0
781F80
703F00
603F00
607E00
407E00
40FC00
01F800
01F800
03F000
03F000
07E040
0FC040
0FC040
1F80C0
1F00C0
3F01C0
7E01C0
7E03C0
FC0FC0
FFFFC0
ENDCHAR
STARTCHAR 007B
ENCODING 123
SWIDTH 416 0
DWIDTH 20 0
BBX 14 43 3 -9
BITMAP
003C
00F0
03C0
0780
0780
0F80
0F80
0F80
0F80
0F80
0F80
0F80
0F80
0F80
0F80
0F80
0F80
0F80
0F00
0F00
1C00
F000
3C00
1E00
0F00
0F80
0F80
0F80
0F80
0F80
0F80
0F80
0F80
0F80
0F80
0F80
0F80
0F80
0780
0780
03C0
00F0
003C
ENDCHAR
STARTCHAR 007C
ENCODING 124
SWIDTH 270 0
DWIDTH 13 0
BBX 3 44 5 -9
BITMAP
E0
E0
E0
E0
E0
E0
E0
E0
E0
E0
E0
E0
E0
E0
E0
E0
E0
E0
E0
E0
E0
E0
E0
E0
E0
E0
E0
E0
E0
E0
E0
E0
E0
E0
E0
E0
E0
E0
E0
E0
E0
E0
E0
E0
ENDCHAR
STARTCHAR 007D
ENCODING 125
SWIDTH 416 0
DWIDTH 20 0
BBX 15 43 3 -9
BITMAP
F000
3C00
0F00
0780
0780
07C0
07C0
07C0
07C0
07C0
07C0
07C0
07C0
07C0
07C0
07C0
07C0
07C0
03C0
03C0
00F0
003E
00F0
01E0
03C0
07C0
07C0
07C0
07C0
07C0
07C0
07C0
07C0
07C0
07C0
07C0
07C0
07C0
0780
0780
0F00
3C00
F000
ENDCHAR
STARTCHAR 007E
ENCODING 126
SWIDTH 645 0
DWIDTH 31 0
BBX 27 9 2 8
BITMAP
1F800180
3FF000C0
7FFE0060
FFFF8060
C1FFF060
C03FFFE0
C00FFFC0
6001FF80
30003F00
ENDCHAR
STARTCHAR 00A0
ENCODING 160
SWIDTH 270 0
DWIDTH 13 0
BBX 0 0 0 0
BITMAP
ENDCHAR
STARTCHAR 00A1
ENCODING 161
SWIDTH 291 0
DWIDTH 14 0
BBX 8 35 3 -11
BITMAP
3C
7E
FF
FF
FF
7E
3C
00
00
00
18
18
18
18
18
18
18
18
3C
3C
3C
3C
7E
7E
7E
7E
FE
FF
FF
FF
FF
FF
FF
7E
3C
ENDCHAR
STARTCHAR 00A2
ENCODING 162
SWIDTH 583 0
DWIDTH 28 0
BBX 18 34 5 -6
BITMAP
006000
006000
006000
006000
006000
01F000
07EC00
0F6700
1E6300
3E6380
7E6780
7E6F80
7C6F80
FC6F80
FC6700
FC6000
FC6000
FC6000
FC6000
FC6000
FC6000
7C60C0
7C60C0
3E6080
3E6180
1E6100
0F6300
07FC00
00F800
006000
006000
006000
006000
006000
ENDCHAR
STARTCHAR 00A3
ENCODING 163
SWIDTH 708 0
DWIDTH 34 0
BBX 29 34 3 1
BITMAP
0001FF00
000781C0
001F00E0
001F00E0
003F00F0
007E01F0
007E03F0
00FE03F0
00FE03E0
00FE01C0
00FE0000
00FE0000
00FE0000
00FE0000
0FFE0000
187E0600
007FFC00
007F0000
003F0000
003F0000
003F0000
003F0000
001F0000
001F0000
001E0000
001E0018
1E1C0038
7FDC0070
C3F800E0
80FFFFE0
807FFFC0
80FFFF80
C1CFFF00
7F03FC00
ENDCHAR
STARTCHAR 00A4
ENCODING 164
SWIDTH 583 0
DWIDTH 28 0
BBX 24 22 2 5
BITMAP
607E06
F3FFCF
7FFFFE
3F81FC
1E0078
3C003C
38001C
38001C
70000E
70000E
70000E
70000E
70000E
70000E
38001C
38001C
3C003C
1E0078
3F81FC
7FFFFE
F3FFCF
607E06
ENDCHAR
STARTCHAR 00A5
ENCODING 165
SWIDTH 583 0
DWIDTH 28 0
BBX 26 34 1 0
BITMAP
FFF83FC0
3FE00F00
1FE00E00
1FE00C00
1FE00C00
0FF00800
0FF00800
07F01800
07F81000
03F83000
03FC2000
03FC6000
01FE4000
01FEC000
00FE8000
00FF8000
00FF0000
3FFFFE00
007F0000
007F0000
007F0000
007F0000
3FFFFE00
007F0000
007F0000
007F0000
007F0000
007F0000
007F0000
007F0000
007F0000
007F0000
007F0000
07FFF800
ENDCHAR
STARTCHAR 00A6
ENCODING 166
SWIDTH 270 0
DWIDTH 13 0
BBX 3 42 5 -8
BITMAP
E0
E0
E0
E0
E0
E0
E0
E0
E0
E0
E0
E0
E0
E0
E0
E0
E0
00
00
00
00
00
00
00
00
E0
E0
E0
E0
E0
E0
E0
E0
E0
E0
E0
E0
E0
E0
E0
E0
E0
ENDCHAR
STARTCHAR 00A7
ENCODING 167
SWIDTH 625 0
DWIDTH 30 0
BBX 22 43 2 -8
BITMAP
01FF00
0701C0
0E00E0
1C00E0
1C01F0
3C03F0
3C07F0
3C07F0
3E07E0
3E03C0
3F0000
1FC000
1FF800
0FFE00
1FFF80
37FFC0
61FFF0
607FF8
E01FF8
E007FC
F001FC
FC007C
FF003C
FFC01C
7FF018
3FFC18
1FFF10
0FFFA0
03FFC0
00FFE0
003FE0
000FF0
0603F0
1F81F0
3F80F0
3F80F0
3F80F0
3F00F0
3E00E0
1C01C0
1C03C0
0F0700
03FC00
ENDCHAR
STARTCHAR 00A8
ENCODING 168
SWIDTH 437 0
DWIDTH 21 0
BBX 15 6 3 26
BITMAP
783C
FC7E
FC7E
FC7E
FC7E
783C
ENDCHAR
STARTCHAR 00A9
ENCODING 169
SWIDTH 812 0
DWIDTH 39 0
BBX 35 34 2 1
BITMAP
000FFE0000
007003C000
00C0006000
0380003800
0600001C00
0C00000600
1803E18600
180F198300
301E0F8180
303E078180
603C0380C0
607C0380C0
607C0180C0
C0FC018060
C0FC018060
C0FC000060
C0FC000060
C0FC000060
C0FC000060
C0FC008060
C0FC008060
407C0080C0
607C0180C0
603C0100C0
303E030180
301E020180
180F0C0300
1803F80600
0C00000600
0600000C00
0380003800
00C0006000
007001C000
000FFE0000
ENDCHAR
STARTCHAR 00AA
ENCODING 170
SWIDTH 375 0
DWIDTH 18 0
BBX 14 17 2 17
BITMAP
1F00
33C0
61E0
71E0
79E0
39E0
07E0
39E0
71E0
F1E0
F1E4
F1E4
F1E4
7EF8
0000
7FFC
7FFC
ENDCHAR
STARTCHAR 00AB
ENCODING 171
SWIDTH 479 0
DWIDTH 23 0
BBX 13 20 5 1
BITMAP
0400
1C18
1830
3870
7060
70E0
F1E0
F1E0
F1E0
F1E0
F1E0
F1E0
F1E0
70E0
70E0
7060
3830
1810
0C00
0400
ENDCHAR
STARTCHAR 00AC
ENCODING 172
SWIDTH 562 0
DWIDTH 27 0
BBX 23 13 2 6
BITMAP
FFFFFE
FFFFFE
FFFFFE
00000E
00000E
00000E
00000E
00000E
00000E
00000E
00000E
00000E
00000E
ENDCHAR
STARTCHAR 00AD
ENCODING 173
SWIDTH 375 0
DWIDTH 18 0
BBX 12 5 3 10
BITMAP
FFF0
FFF0
FFF0
FFF0
FFF0
ENDCHAR
STARTCHAR 00AE
ENCODING 174
SWIDTH 812 0
DWIDTH 39 0
BBX 35 34 2 1
BITMAP
000FFE0000
007003C000
00C0006000
0380003800
0600001C00
0C00000600
18FFFC0600
183E1F0300
303E0F8180
303E0FC180
603E0FC0C0
603E0FC0C0
603E0FC0C0
C03E0F8060
C03E1F0060
C03FF80060
C03E3C0060
C03E1E0060
C03E0F0060
C03E0F8060
C03E0F8060
403E0F80C0
603E0F88C0
603E0F88C0
303E0F8980
303E0F9180
18FFE7F300
180003E600
0C00000600
0600000C00
0380003800
00C0006000
007001C000
000FFE0000
ENDCHAR
STARTCHAR 00AF
ENCODING 175
SWIDTH 416 0
DWIDTH 20 0
BBX 12 3 4 28
BITMAP
FFF0
FFF0
FFF0
ENDCHAR
STARTCHAR 00B0
ENCODING 176
SWIDTH 583 0
DWIDTH 28 0
BBX 16 15 6 20
BITMAP
0FF0
1FF8
3E7C
781E
F00E
E007
E007
E007
E007
E00E
700E
7C3C
3FFC
1FF0
03C0
ENDCHAR
STARTCHAR 00B1
ENCODING 177
SWIDTH 937 0
DWIDTH 45 0
BBX 41 36 2 -3
BITMAP
00001C000000
00001C000000
00001C000000
00001C000000
00001C000000
00001C000000
00001C000000
00001C000000
00001C000000
00001C000000
00001C000000
00001C000000
00001C000000
00001C000000
FFFFFFFFFF80
FFFFFFFFFF80
FFFFFFFFFF80
00001C000000
00001C000000
00001C000000
00001C000000
00001C000000
00001C000000
00001C000000
00001C000000
00001C000000
00001C000000
00001C000000
00001C000000
00001C000000
000000000000
000000000000
000000000000
FFFFFFFFFF00
FFFFFFFFFF00
FFFFFFFFFF00
ENDCHAR
STARTCHAR 00B2
ENCODING 178
SWIDTH 437 0
DWIDTH 21 0
BBX 14 21 4 14
BITMAP
1FF0
30F8
607C
E07C
F07C
F87C
F878
78F8
01F0
01E0
0380
0600
0C04
1004
2004
200C
7FFC
7FFC
4FF8
47F8
01E0
ENDCHAR
STARTCHAR 00B3
ENCODING 179
SWIDTH 458 0
DWIDTH 22 0
BBX 16 21 3 14
BITMAP
1FE0
30F8
707C
707C
7C7C
7C7C
3C7C
0078
00E0
0F80
00F0
007C
003E
103F
7C3F
FC3F
FC3F
F03F
707E
70FC
1FF0
ENDCHAR
STARTCHAR 00B4
ENCODING 180
SWIDTH 437 0
DWIDTH 21 0
BBX 8 9 9 25
BITMAP
06
0F
1F
3E
3C
78
F0
C0
80
ENDCHAR
STARTCHAR 00B5
ENCODING 181
SWIDTH 604 0
DWIDTH 29 0
BBX 24 35 3 -12
BITMAP
7803C0
7C03C0
FC07E0
FC07E0
FC07E0
FC07E0
FC07E0
FC07E0
FC07E0
F807E0
F807E0
7807C0
7003C0
7003C1
700381
300383
300787
3007FF
380FFE
3E3EFE
2FFC7E
23F83C
200000
300000
700000
700000
780000
7C0000
7C0000
7C0000
7E0000
7E0000
7E0000
3E0000
1C0000
ENDCHAR
STARTCHAR 00B6
ENCODING 182
SWIDTH 583 0
DWIDTH 28 0
BBX 23 41 3 -7
BITMAP
03FFFE
0FF0E0
3FF0E0
7FF0E0
7FF0E0
FFF0E0
FFF0E0
FFF0E0
FFF0E0
FFF0E0
FFF0E0
FFF0E0
FFF0E0
FFF0E0
7FF0E0
3FF0E0
1FF0E0
07F0E0
0070E0
0070E0
0070E0
0070E0
0070E0
0070E0
0070E0
0070E0
0070E0
0070E0
0070E0
0070E0
0070E0
0070E0
0070E0
0070E0
0070E0
0070E0
0070E0
0070E0
0070E0
0070E0
0070E0
ENDCHAR
STARTCHAR 00B7
ENCODING 183
SWIDTH 291 0
DWIDTH 14 0
BBX 8 7 3 12
BITMAP
3C
7E
FF
FF
FF
7E
3C
ENDCHAR
STARTCHAR 00B8
ENCODING 184
SWIDTH 437 0
DWIDTH 21 0
BBX 10 10 5 -10
BITMAP
0800
0800
1800
0F00
0780
03C0
03C0
03C0
C780
3F00
ENDCHAR
STARTCHAR 00B9
ENCODING 185
SWIDTH 437 0
DWIDTH 21 0
BBX 11 20 5 14
BITMAP
0700
0F00
FF00
1F00
1F00
1F00
1F00
1F00
1F00
1F00
1F00
1F00
1F00
1F00
1F00
1F00
1F00
1F00
1F00
FFE0
ENDCHAR
STARTCHAR 00BA
ENCODING 186
SWIDTH 395 0
DWIDTH 19 0
BBX 13 17 3 17
BITMAP
0F80
18C0
38E0
7070
7070
F078
F078
F078
F078
F078
F078
7070
70E0
38E0
0F80
0000
FFF8
ENDCHAR
STARTCHAR 00BB
ENCODING 187
SWIDTH 479 0
DWIDTH 23 0
BBX 13 20 5 1
BITMAP
0100
C180
60C0
70E0
3070
3870
3878
3C78
3C78
3C78
3C78
3C78
3C78
3870
3870
3070
60E0
40C0
0180
0100
ENDCHAR
STARTCHAR 00BC
ENCODING 188
SWIDTH 916 0
DWIDTH 44 0
BBX 36 36 5 -1
BITMAP
0000003000
0700003000
0700006000
1F0000E000
FF0000C000
1F0001C000
1F00018000
1F00030000
1F00070000
1F00060000
1F000E0000
1F000C0000
1F00180000
1F00180000
1F00300000
1F00700F00
1F00601F00
1F00E01F00
1F00C03F00
1F01807F00
FFE3807F00
000300DF00
0007019F00
0006019F00
000C031F00
000C021F00
0018061F00
00380C1F00
00300FFFF0
0070001F00
0060001F00
00C0001F00
01C0001F00
0180001F00
038001FFE0
0300000000
ENDCHAR
STARTCHAR 00BD
ENCODING 189
SWIDTH 895 0
DWIDTH 43 0
BBX 35 36 5 -1
BITMAP
0000003800
0700003000
0700007000
1F0000E000
FF0000C000
1F0001C000
1F00018000
1F00038000
1F00030000
1F00070000
1F000E0000
1F000C0000
1F001C0000
1F00180000
1F00387E00
1F00718F80
1F006307C0
1F00E703E0
1F00C703E0
1F01C783E0
FFE387C3E0
000303C7C0
0007018780
0006000F00
000E001E00
000C003800
0018006000
0038008020
0030010020
0070020020
006002FFE0
00C007FFE0
01C006FFC0
0180047FC0
0380043F80
0300000000
ENDCHAR
STARTCHAR 00BE
ENCODING 190
SWIDTH 916 0
DWIDTH 44 0
BBX 38 36 3 -1
BITMAP
0000000C00
1FE0000C00
30F8001800
707C003800
707C003000
7C7C007000
7C7C006000
3C7C00C000
007801C000
00E0018000
0F80038000
00F0030000
007C070000
003E060000
103F0C0000
7C3F1C03C0
FC3F1807C0
FC3F3807C0
F03F300FC0
707E701FC0
70FCE01FC0
1FF0C037C0
0001C067C0
00018067C0
000380C7C0
00030087C0
00060187C0
000E0307C0
000C03FFFC
001C0007C0
00180007C0
00380007C0
00700007C0
00600007C0
00E0007FF8
00C0000000
ENDCHAR
STARTCHAR 00BF
ENCODING 191
SWIDTH 479 0
DWIDTH 23 0
BBX 16 35 3 -11
BITMAP
0700
0F80
1FC0
1FC0
1FC0
0F80
0700
0000
0000
0780
0CE0
1030
1030
1030
1030
0060
00E0
00C0
03C0
0780
0F80
1F00
1F04
3E04
7E06
7C02
FC03
FC03
FC03
FC03
FC06
7E06
3F0C
1FF8
07E0
ENDCHAR
STARTCHAR 00C0
ENCODING 192
SWIDTH 750 0
DWIDTH 36 0
BBX 33 45 2 0
BITMAP
0038000000
003C000000
003E000000
003E000000
001F000000
0007000000
0003800000
0001C00000
0000400000
0000000000
0000C00000
0001C00000
0001E00000
0001E00000
0003E00000
0003F00000
0003F00000
0007F00000
0007F80000
0007F80000
000FF80000
000FFC0000
000FFC0000
0019FC0000
0019FE0000
0019FE0000
0030FE0000
0030FF0000
0020FF0000
00607F0000
00607F8000
00407F8000
00C03F8000
00C03FC000
00FFFFC000
01FFFFC000
01801FE000
01001FE000
03000FE000
03000FF000
02000FF000
060007F000
0F0007F800
1F000FFC00
FFF0FFFF80
ENDCHAR
STARTCHAR 00C1
ENCODING 193
SWIDTH 750 0
DWIDTH 36 0
BBX 33 45 2 0
BITMAP
00000E0000
00000F0000
00001F0000
00003E0000
00003C0000
0000780000
0000F00000
0000C00000
0000800000
0000000000
0000C00000
0001C00000
0001E00000
0001E00000
0003E00000
0003F00000
0003F00000
0007F00000
0007F80000
0007F80000
000FF80000
000FFC0000
000FFC0000
0019FC0000
0019FE0000
0019FE0000
0030FE0000
0030FF0000
0020FF0000
00607F0000
00607F8000
00407F8000
00C03F8000
00C03FC000
00FFFFC000
01FFFFC000
01801FE000
01001FE000
03000FE000
03000FF000
06000FF000
060007F000
0F0007F800
FFF0FFFF80
FFF0FFFF80
ENDCHAR
STARTCHAR 00C2
ENCODING 194
SWIDTH 750 0
DWIDTH 36 0
BBX 33 44 2 0
BITMAP
0001C00000
0001E00000
0003E00000
0007F00000
000F780000
001E1E0000
0078070000
0040018000
0000000000
0000C00000
0001C00000
0001E00000
0001E00000
0003E00000
0003F00000
0003F00000
0007F00000
0007F80000
0007F80000
000FF80000
000FFC0000
000FFC0000
0019FC0000
0019FE0000
0019FE0000
0030FE0000
0030FF0000
0020FF0000
00607F0000
00607F8000
00407F8000
00C03F8000
00C03FC000
00FFFFC000
01FFFFC000
01801FE000
01001FE000
03000FE000
03000FF000
02000FF000
060007F000
0F0007F800
1F000FFC00
FFF0FFFF80
ENDCHAR
STARTCHAR 00C3
ENCODING 195
SWIDTH 750 0
DWIDTH 36 0
BBX 33 43 2 0
BITMAP
000F010000
001FE30000
003FFE0000
0021FE0000
00207C0000
0000000000
0000000000
0000000000
0000C00000
0001C00000
0001E00000
0001E00000
0003E00000
0003F00000
0003F00000
0007F00000
0007F80000
0007F80000
000FF80000
000FFC0000
000FFC0000
0019FC0000
0019FE0000
0019FE0000
0030FE0000
0030FF0000
0020FF0000
00607F0000
00607F8000
00407F8000
00C03F8000
00C03FC000
00FFFFC000
01FFFFC000
01801FE000
01001FE000
03000FE000
03000FF000
06000FF000
060007F000
0F0007F800
FFF0FFFF80
FFF0FFFF80
ENDCHAR
STARTCHAR 00C4
ENCODING 196
SWIDTH 750 0
DWIDTH 36 0
BBX 33 43 2 0
BITMAP
003C0F0000
007E1F8000
007E1F8000
007E1F8000
007E1F8000
003C0F0000
0000000000
0000000000
0000000000
0000C00000
0001E00000
0001E00000
0001E00000
0003F00000
0003F00000
0003F00000
0007F80000
0007F80000
0007F80000
000FFC0000
000FFC0000
0019FC0000
0019FE0000
0018FE0000
0030FE0000
0030FF0000
00307F0000
00607F0000
00607F8000
00603F8000
00C03F8000
00C03FC000
00FFFFC000
01FFFFC000
01801FE000
01800FE000
03000FE000
03000FF000
030007F000
070007F000
0F0007F800
1F800FFC00
FFF0FFFF80
ENDCHAR
STARTCHAR 00C5
ENCODING 197
SWIDTH 750 0
DWIDTH 36 0
BBX 33 45 2 0
BITMAP
0001E00000
0007F80000
000E1C0000
000C0C0000
000C0C0000
000C0C0000
000E1C0000
0007F80000
0003F00000
0000000000
0000C00000
0001C00000
0001E00000
0001E00000
0003E00000
0003F00000
0003F00000
0007F00000
0007F80000
0007F80000
000FF80000
000DFC0000
000DFC0000
001DFC0000
0019FE0000
0018FE0000
0038FE0000
0030FF0000
00307F0000
00707F0000
00607F8000
00603F8000
00E03F8000
00C03FC000
00FFFFC000
01FFFFC000
01801FE000
01801FE000
03000FE000
03000FF000
03000FF000
070007F000
0F0007F800
1F800FFC00
FFF0FFFF80
ENDCHAR
STARTCHAR 00C6
ENCODING 198
SWIDTH 1000 0
DWIDTH 48 0
BBX 45 34 1 0
BITMAP
00007FFFFFF0
00001FF807F0
00000FF801F0
00000FF800F0
00001FF800F0
00001BF80070
00003BF80070
000033F80030
000073F80030
000063F80C30
0000E3F80C10
0000C3F80C00
0001C3F81C00
000183F81C00
000383F83C00
000303F87C00
000703FFFC00
000603F87C00
000E03F83C00
000C03F81C00
001C03F81C00
001803F80C18
003803F80C18
003FFFF80C18
006003F80038
00E003F80038
00C003F80038
01C003F80078
018003F80078
038003F800F8
078003F801F8
0F8003F803F8
FFF87FFFFFF8
FFF87FFFFFF8
ENDCHAR
STARTCHAR 00C7
ENCODING 199
SWIDTH 645 0
DWIDTH 31 0
BBX 26 45 3 -10
BITMAP
007FC180
01E0F180
03C03F80
07801F80
0F800F80
1F000F80
3F000780
3F000780
3F000380
7F000380
7F000180
7F000180
FF000180
FF000180
FF000180
FF000000
FF000000
FF000000
FF000000
FF000000
FF000000
FF0000C0
7F0000C0
7F0000C0
7F000080
3F000080
3F000180
3F000180
1F800300
0F800300
07800600
03C00C00
01E03800
007FE000
000C0000
00080000
001E0000
001F8000
0003C000
0001E000
0001E000
0001E000
0081C000
00C7C000
003F0000
ENDCHAR
STARTCHAR 00C8
ENCODING 200
SWIDTH 687 0
DWIDTH 33 0
BBX 27 45 3 0
BITMAP
00E00000
01F00000
01F00000
00F80000
007C0000
003C0000
000E0000
00060000
00020000
00000000
00000000
FFFFFFE0
0FE01FE0
0FE007E0
0FE003E0
0FE001E0
0FE001E0
0FE000E0
0FE000E0
0FE00060
0FE03060
0FE03060
0FE03000
0FE07000
0FE07000
0FE0F000
0FE1F000
0FFFF000
0FE1F000
0FE0F000
0FE07000
0FE07020
0FE03060
0FE03060
0FE03060
0FE00060
0FE00060
0FE000E0
0FE000E0
0FE001E0
0FE003E0
0FE003E0
0FE00FE0
FFFFFFE0
FFFFFFE0
ENDCHAR
STARTCHAR 00C9
ENCODING 201
SWIDTH 687 0
DWIDTH 33 0
BBX 27 45 3 0
BITMAP
00003800
00007800
0000F800
0000F800
0001F000
0003C000
00038000
00060000
00040000
00000000
00000000
FFFFFFE0
0FE01FE0
0FE007E0
0FE003E0
0FE001E0
0FE001E0
0FE000E0
0FE000E0
0FE00060
0FE03060
0FE03060
0FE03000
0FE07000
0FE07000
0FE0F000
0FE1F000
0FFFF000
0FE1F000
0FE0F000
0FE07000
0FE07020
0FE03060
0FE03060
0FE03060
0FE00060
0FE000E0
0FE000E0
0FE000E0
0FE001E0
0FE003E0
0FE003E0
0FE00FE0
FFFFFFE0
FFFFFFE0
ENDCHAR
STARTCHAR 00CA
ENCODING 202
SWIDTH 687 0
DWIDTH 33 0
BBX 27 44 3 0
BITMAP
00060000
000F0000
000F8000
001FC000
0039E000
00F07000
03C01C00
00000400
00000000
00000000
FFFFFFE0
0FE01FE0
0FE007E0
0FE003E0
0FE001E0
0FE001E0
0FE000E0
0FE000E0
0FE00060
0FE03060
0FE03060
0FE03000
0FE07000
0FE07000
0FE0F000
0FE1F000
0FFFF000
0FE1F000
0FE0F000
0FE07000
0FE07020
0FE03060
0FE03060
0FE03060
0FE00060
0FE00060
0FE000E0
0FE000E0
0FE001E0
0FE003E0
0FE003E0
0FE00FE0
FFFFFFE0
FFFFFFE0
ENDCHAR
STARTCHAR 00CB
ENCODING 203
SWIDTH 687 0
DWIDTH 33 0
BBX 27 43 3 0
BITMAP
01E07800
03F0FC00
03F0FC00
03F0FC00
03F0FC00
01E07800
00000000
00000000
00000000
FFFFFFE0
0FE01FE0
0FE007E0
0FE003E0
0FE001E0
0FE001E0
0FE000E0
0FE000E0
0FE000E0
0FE03060
0FE03060
0FE03000
0FE07000
0FE07000
0FE0F000
0FE1F000
0FFFF000
0FE1F000
0FE0F000
0FE07000
0FE07060
0FE03060
0FE03060
0FE03060
0FE00060
0FE000E0
0FE000E0
0FE000E0
0FE001E0
0FE003E0
0FE003E0
0FE00FE0
FFFFFFE0
FFFFFFE0
ENDCHAR
STARTCHAR 00CC
ENCODING 204
SWIDTH 437 0
DWIDTH 21 0
BBX 16 45 3 0
BITMAP
3800
7C00
7C00
3E00
1F00
0F00
0380
01C0
0000
0000
0000
FFFF
07F0
07F0
07F0
07F0
07F0
07F0
07F0
07F0
07F0
07F0
07F0
07F0
07F0
07F0
07F0
07F0
07F0
07F0
07F0
07F0
07F0
07F0
07F0
07F0
07F0
07F0
07F0
07F0
07F0
07F0
07F0
07F0
FFFF
ENDCHAR
STARTCHAR 00CD
ENCODING 205
SWIDTH 437 0
DWIDTH 21 0
BBX 16 45 3 0
BITMAP
000E
001E
003E
003C
0078
00F0
00E0
01C0
0000
0000
0000
FFFF
07F0
07F0
07F0
07F0
07F0
07F0
07F0
07F0
07F0
07F0
07F0
07F0
07F0
07F0
07F0
07F0
07F0
07F0
07F0
07F0
07F0
07F0
07F0
07F0
07F0
07F0
07F0
07F0
07F0
07F0
07F0
07F0
FFFF
ENDCHAR
STARTCHAR 00CE
ENCODING 206
SWIDTH 437 0
DWIDTH 21 0
BBX 16 44 3 0
BITMAP
01C0
03C0
03E0
07F0
1F78
3C1C
F007
0001
0000
0000
FFFF
07F0
07F0
07F0
07F0
07F0
07F0
07F0
07F0
07F0
07F0
07F0
07F0
07F0
07F0
07F0
07F0
07F0
07F0
07F0
07F0
07F0
07F0
07F0
07F0
07F0
07F0
07F0
07F0
07F0
07F0
07F0
FFFF
FFFF
ENDCHAR
STARTCHAR 00CF
ENCODING 207
SWIDTH 437 0
DWIDTH 21 0
BBX 16 43 3 0
BITMAP
781E
FC3F
FC3F
FC3F
FC3F
781E
0000
0000
0000
FFFF
07F0
07F0
07F0
07F0
07F0
07F0
07F0
07F0
07F0
07F0
07F0
07F0
07F0
07F0
07F0
07F0
07F0
07F0
07F0
07F0
07F0
07F0
07F0
07F0
07F0
07F0
07F0
07F0
07F0
07F0
07F0
07F0
FFFF
ENDCHAR
STARTCHAR 00D0
ENCODING 208
SWIDTH 770 0
DWIDTH 37 0
BBX 32 34 3 0
BITMAP
FFFFF800
07F01F00
07F00780
07F003E0
07F001F0
07F001F0
07F000F8
07F000FC
07F000FC
07F000FE
07F000FE
07F000FE
07F000FF
07F000FF
07F000FF
07F000FF
FFFF00FF
07F000FF
07F000FF
07F000FF
07F000FF
07F000FE
07F000FE
07F000FE
07F000FE
07F000FC
07F000FC
07F000F8
07F001F0
07F001E0
07F003C0
07F00780
07F01F00
FFFFF800
ENDCHAR
STARTCHAR 00D1
ENCODING 209
SWIDTH 770 0
DWIDTH 37 0
BBX 34 44 2 -1
BITMAP
0007808000
000FF18000
001FFF0000
0010FF0000
00103C0000
0000000000
0000000000
0000000000
0000000000
FFE00FFFC0
1FF003FF00
0FF000FC00
0FF8007800
07FC003000
03FE003000
03FE003000
03FF003000
03FF803000
03FF803000
037FC03000
033FE03000
031FE03000
031FF03000
030FF83000
0307F83000
0307FC3000
0303FE3000
0301FF3000
0301FF3000
0300FFB000
03007FF000
03007FF000
03003FF000
03001FF000
03000FF000
03000FF000
030007F000
030003F000
030003F000
078001F000
0FC000F000
3FF000F000
FFFC007000
0000003000
ENDCHAR
STARTCHAR 00D2
ENCODING 210
SWIDTH 687 0
DWIDTH 33 0
BBX 28 45 3 0
BITMAP
00C00000
01E00000
01F00000
00F80000
00780000
003C0000
001C0000
00060000
00020000
00000000
00000000
003FC000
00E07000
03C03800
07801E00
0F801E00
0F000F00
1F000F80
3F000FC0
3F000FC0
7F000FC0
7F000FE0
7F000FE0
7F000FE0
FF000FF0
FF000FF0
FF000FF0
FF000FF0
FF000FF0
FF000FF0
FF000FF0
FF000FF0
7F000FE0
7F000FE0
7F000FE0
7F000FC0
3F000FC0
3F000FC0
1F000F80
0F000F00
0F801F00
07801E00
03C03C00
00E07000
003FC000
ENDCHAR
STARTCHAR 00D3
ENCODING 211
SWIDTH 687 0
DWIDTH 33 0
BBX 28 45 3 0
BITMAP
00003000
00007800
0000F800
0001F000
0001E000
0003C000
00038000
00060000
00040000
00000000
00000000
003FC000
00E07000
03C03800
07801E00
0F801E00
0F000F00
1F000F80
3F000FC0
3F000FC0
7F000FC0
7F000FE0
7F000FE0
7F000FE0
FF000FF0
FF000FF0
FF000FF0
FF000FF0
FF000FF0
FF000FF0
FF000FF0
FF000FF0
7F000FE0
7F000FE0
7F000FE0
7F000FC0
3F000FC0
3F000FC0
1F000F80
0F000F00
0F801F00
07801E00
03C03C00
00E07000
003FC000
ENDCHAR
STARTCHAR 00D4
ENCODING 212
SWIDTH 687 0
DWIDTH 33 0
BBX 28 45 3 0
BITMAP
00060000
000E0000
000F0000
001F8000
003FC000
0079E000
00F0F000
03C03C00
03000C00
00000000
00000000
003FC000
00E07000
03C03800
07801E00
0F801E00
0F000F00
1F000F80
3F000FC0
3F000FC0
7F000FC0
7F000FE0
7F000FE0
7F000FE0
FF000FF0
FF000FF0
FF000FF0
FF000FF0
FF000FF0
FF000FF0
FF000FF0
FF000FF0
7F000FE0
7F000FE0
7F000FE0
7F000FC0
3F000FC0
3F000FC0
1F000F80
0F000F00
0F801F00
07801E00
03C03C00
00E07000
003FC000
ENDCHAR
STARTCHAR 00D5
ENCODING 213
SWIDTH 687 0
DWIDTH 33 0
BBX 28 44 3 0
BITMAP
00000800
007E1800
00FFF800
01FFF000
0107E000
00000000
00000000
00000000
00000000
00000000
003FC000
00E07000
03C03800
07801E00
0F801E00
0F000F00
1F000F80
3F000FC0
3F000FC0
7F000FC0
7F000FE0
7F000FE0
7F000FE0
FF000FF0
FF000FF0
FF000FF0
FF000FF0
FF000FF0
FF000FF0
FF000FF0
FF000FF0
7F000FE0
7F000FE0
7F000FE0
7F000FC0
3F000FC0
3F000FC0
1F000F80
0F000F00
0F801F00
07801E00
03C03C00
00E07000
003FC000
ENDCHAR
STARTCHAR 00D6
ENCODING 214
SWIDTH 687 0
DWIDTH 33 0
BBX 28 44 3 0
BITMAP
01E07800
03F0FC00
03F0FC00
03F0FC00
03F0FC00
01E07800
00000000
00000000
00000000
00000000
003FC000
00E07000
03C03800
07801E00
0F801E00
0F000F00
1F000F80
3F000FC0
3F000FC0
7F000FC0
7F000FE0
7F000FE0
7F000FE0
FF000FF0
FF000FF0
FF000FF0
FF000FF0
FF000FF0
FF000FF0
FF000FF0
FF000FF0
7F000FE0
7F000FE0
7F000FE0
7F000FC0
3F000FC0
3F000FC0
1F000F80
0F000F00
0F801F00
07801E00
03C03C00
00E07000
003FC000
ENDCHAR
STARTCHAR 00D7
ENCODING 215
SWIDTH 937 0
DWIDTH 45 0
BBX 31 30 7 -3
BITMAP
20000000
7000000C
F800001E
7C00003C
3E000078
1F0001F0
0F8003E0
07C007C0
03E00F80
01F01F00
00F83E00
007C7C00
003EF800
001FF000
000FE000
0007C000
000FE000
001FF000
003EF800
007C3C00
00F81E00
01F00F00
03E00780
07C003C0
0F8001E0
1F0000F0
3E000078
7C00003C
F800001E
7000000C
ENDCHAR
STARTCHAR 00D8
ENCODING 216
SWIDTH 687 0
DWIDTH 33 0
BBX 28 34 3 1
BITMAP
003FE030
00E07060
01C03CC0
07801FC0
0F801F80
0F000F00
1F000F80
3F000FC0
3F001FC0
3F001FE0
7F003FE0
7F006FE0
7F00EFE0
FF00CFF0
FF018FF0
FF030FF0
FF070FF0
FF0E0FF0
FF0C0FF0
FF180FF0
FF300FF0
FF700FE0
7F600FE0
7FC00FE0
7F800FC0
3F800FC0
3F000FC0
1F000F80
0F000F00
1F801E00
3F801E00
33C03800
60E07000
C07FC000
ENDCHAR
STARTCHAR 00D9
ENCODING 217
SWIDTH 791 0
DWIDTH 38 0
BBX 33 45 3 0
BITMAP
0018000000
003C000000
003E000000
001F000000
000F800000
0007800000
0001C00000
0000E00000
0000000000
0000000000
0000000000
FFFF07FF80
0FE001FE00
0FE0007800
0FE0003000
0FE0003000
0FE0003000
0FE0003000
0FE0003000
0FE0003000
0FE0003000
0FE0003000
0FE0003000
0FE0003000
0FE0003000
0FE0003000
0FE0003000
0FE0003000
0FE0003000
0FE0003000
0FE0003000
0FE0003000
0FE0003000
0FE0003000
0FE0003000
0FE0003000
0FE0003000
07E0003000
07E0006000
07F0006000
03F000C000
01F801C000
00FC038000
007F9F0000
001FFC0000
ENDCHAR
STARTCHAR 00DA
ENCODING 218
SWIDTH 791 0
DWIDTH 38 0
BBX 33 45 3 0
BITMAP
0000070000
00000F0000
00000F0000
00001F0000
00003C0000
0000380000
0000700000
0000E00000
0000000000
0000000000
0000000000
FFFF07FF80
0FE001FE00
0FE0007800
0FE0003000
0FE0003000
0FE0003000
0FE0003000
0FE0003000
0FE0003000
0FE0003000
0FE0003000
0FE0003000
0FE0003000
0FE0003000
0FE0003000
0FE0003000
0FE0003000
0FE0003000
0FE0003000
0FE0003000
0FE0003000
0FE0003000
0FE0003000
0FE0003000
0FE0003000
0FE0003000
07E0003000
07E0006000
07F0006000
03F000C000
01F801C000
00FC038000
007F9F0000
001FFC0000
ENDCHAR
STARTCHAR 00DB
ENCODING 219
SWIDTH 791 0
DWIDTH 38 0
BBX 33 45 3 0
BITMAP
0000400000
0000E00000
0001F00000
0003F00000
0007F80000
000F1C0000
001E0F0000
0070038000
0000008000
0000000000
0000000000
FFFF07FF80
0FE001FE00
0FE0007800
0FE0003000
0FE0003000
0FE0003000
0FE0003000
0FE0003000
0FE0003000
0FE0003000
0FE0003000
0FE0003000
0FE0003000
0FE0003000
0FE0003000
0FE0003000
0FE0003000
0FE0003000
0FE0003000
0FE0003000
0FE0003000
0FE0003000
0FE0003000
0FE0003000
0FE0003000
0FE0003000
07E0003000
07E0006000
07F0006000
03F000C000
01F801C000
00FC038000
007F9F0000
001FFC0000
ENDCHAR
STARTCHAR 00DC
ENCODING 220
SWIDTH 791 0
DWIDTH 38 0
BBX 33 44 3 0
BITMAP
003C0F0000
007E1F8000
007E1F8000
007E1F8000
007E1F8000
003C0F0000
0000000000
0000000000
0000000000
0000000000
FFFE07FF80
0FE001FE00
0FE0007800
0FE0003000
0FE0003000
0FE0003000
0FE0003000
0FE0003000
0FE0003000
0FE0003000
0FE0003000
0FE0003000
0FE0003000
0FE0003000
0FE0003000
0FE0003000
0FE0003000
0FE0003000
0FE0003000
0FE0003000
0FE0003000
0FE0003000
0FE0003000
0FE0003000
0FE0003000
0FE0003000
07E0003000
07E0006000
07F0006000
03F000C000
01F801C000
00FC038000
007F9F0000
001FFC0000
ENDCHAR
STARTCHAR 00DD
ENCODING 221
SWIDTH 729 0
DWIDTH 35 0
BBX 32 45 2 0
BITMAP
00000700
00000F00
00001F00
00001F00
00003C00
00007800
00007000
0000C000
00008000
00000000
00000000
FFFE0FFF
1FF801F8
0FF800F0
07F800E0
07F800C0
03FC00C0
03FC00C0
01FC0180
01FE0180
00FE0300
00FF0300
00FF0300
007F8600
007F8600
003FC400
003FCC00
001FCC00
001FF800
000FF800
000FF800
0007F000
0007F000
0007F000
0007F000
0007F000
0007F000
0007F000
0007F000
0007F000
0007F000
0007F000
0007F000
0007F000
00FFFF00
ENDCHAR
STARTCHAR 00DE
ENCODING 222
SWIDTH 708 0
DWIDTH 34 0
BBX 29 34 3 0
BITMAP
FFFF8000
07F00000
07F00000
07F00000
07F00000
07F00000
07FFF800
07F03F00
07F00FC0
07F00FE0
07F00FF0
07F007F0
07F007F8
07F007F8
07F007F8
07F007F8
07F007F8
07F007F8
07F007F0
07F00FF0
07F00FE0
07F00FC0
07F01F00
07FFFC00
07F00000
07F00000
07F00000
07F00000
07F00000
07F00000
07F00000
07F00000
07F00000
FFFF8000
ENDCHAR
STARTCHAR 00DF
ENCODING 223
SWIDTH 562 0
DWIDTH 27 0
BBX 23 34 2 0
BITMAP
007F00
01E380
03C3E0
07C1E0
07C1F0
0F81F0
0F81F0
0F81F0
1F81F0
1F81E0
1F81E0
1F81C0
1F8380
1FBC00
1F8300
1F81C0
1F80F0
1F80F8
1F80F8
1F807C
1F807C
1F807E
1F807E
1F807E
1F807E
1F807E
1F807E
1FB87E
1FFC7C
1FFC7C
1FF8FC
1FF8F8
1FB8F0
FF9FE0
ENDCHAR
STARTCHAR 00E0
ENCODING 224
SWIDTH 500 0
DWIDTH 24 0
BBX 21 34 2 0
BITMAP
180000
3C0000
3E0000
1E0000
0F0000
078000
038000
01C000
00C000
000000
000000
000000
0FF800
183E00
383F00
781F00
7C1F80
7E1F80
7E1F80
3C1F80
007F80
03DF80
0F1F80
1E1F80
3E1F80
7C1F80
FC1F80
FC1F80
FC1F88
FC1F88
FC1F98
FE3F90
7F7FF0
3F8FE0
ENDCHAR
STARTCHAR 00E1
ENCODING 225
SWIDTH 500 0
DWIDTH 24 0
BBX 21 34 2 0
BITMAP
000C00
001E00
003E00
003E00
007C00
007800
00E000
00C000
018000
000000
000000
000000
0FF800
183E00
383F00
781F00
7C1F80
7E1F80
7E1F80
3E1F80
083F80
01FF80
079F80
1E1F80
3E1F80
7C1F80
7C1F80
FC1F80
FC1F88
FC1F88
FC1F98
FE3F90
7F7FF0
3F8FE0
ENDCHAR
STARTCHAR 00E2
ENCODING 226
SWIDTH 500 0
DWIDTH 24 0
BBX 21 34 2 0
BITMAP
01C000
01E000
03E000
03E000
07F000
073800
0E1C00
1C0E00
300700
000000
000000
000000
0FF800
183E00
383F00
781F00
7C1F80
7E1F80
7E1F80
3E1F80
083F80
01FF80
079F80
1E1F80
3E1F80
7C1F80
7C1F80
FC1F80
FC1F88
FC1F88
FC1F98
FE3F90
7F7FF0
3F8FE0
ENDCHAR
STARTCHAR 00E3
ENCODING 227
SWIDTH 500 0
DWIDTH 24 0
BBX 21 32 2 0
BITMAP
0F0300
1FC300
3FFE00
31FC00
207800
000000
000000
000000
000000
000000
0FF800
183E00
383F00
781F00
7C1F80
7E1F80
7E1F80
3E1F80
083F80
01FF80
079F80
1E1F80
3E1F80
7C1F80
7C1F80
FC1F80
FC1F88
FC1F88
FC1F98
FE3F90
7F7FF0
3F8FE0
ENDCHAR
STARTCHAR 00E4
ENCODING 228
SWIDTH 500 0
DWIDTH 24 0
BBX 21 32 2 0
BITMAP
3C1E00
7E3F00
7E3F00
7E3F00
7E3F00
3C1E00
000000
000000
000000
000000
0FF800
183E00
383F00
781F00
7C1F80
7E1F80
7E1F80
3E1F80
083F80
01FF80
079F80
1E1F80
3E1F80
7C1F80
7C1F80
FC1F80
FC1F88
FC1F88
FC1F98
FE3F90
7F7FF0
3F8FE0
ENDCHAR
STARTCHAR 00E5
ENCODING 229
SWIDTH 500 0
DWIDTH 24 0
BBX 21 34 2 1
BITMAP
03F000
07F800
0E1C00
0C0C00
0C0C00
0C0C00
0E1C00
07F800
01E000
000000
000000
000000
0FF800
183E00
383F00
781F00
7C1F80
7E1F80
7E1F80
3E1F80
083F80
01FF80
071F80
1E1F80
3E1F80
7C1F80
7C1F80
FC1F80
FC1F88
FC1F88
FC1F98
FE3F90
7F6FF0
3FC7E0
ENDCHAR
STARTCHAR 00E6
ENCODING 230
SWIDTH 708 0
DWIDTH 34 0
BBX 29 22 2 1
BITMAP
0FF0FF80
183FC3C0
383FC3E0
781F83F0
7C1F81F0
7E1F81F0
7E1F81F8
3E1F81F8
003F81F8
01FF81F8
071FFFF8
1E1F8000
3E1F8000
7C1F8000
7C1F8008
FC1F8008
FC1F8018
FC1FC010
FC1FC010
FE33C020
7F61F040
3FC0FF80
ENDCHAR
STARTCHAR 00E7
ENCODING 231
SWIDTH 458 0
DWIDTH 22 0
BBX 18 32 2 -9
BITMAP
03FC00
0F0600
1F0700
3E0780
3E0780
7E0F80
7C1F80
FC1F80
FC1F00
FC0E00
FC0000
FC0000
FC0000
FC0000
FC0000
7C0040
7C00C0
3E0080
3E0180
1E0100
0F8200
03FC00
008000
008000
018000
00F000
003800
003C00
003C00
003C00
047800
03F000
ENDCHAR
STARTCHAR 00E8
ENCODING 232
SWIDTH 479 0
DWIDTH 23 0
BBX 18 34 2 0
BITMAP
1C0000
1E0000
1E0000
1F0000
0F8000
078000
03C000
00C000
006000
000000
000000
000000
03FC00
0E1E00
1E1F00
3E0F80
3C0F80
7C0F80
7C0FC0
FC0FC0
FC0FC0
FC0FC0
FFFFC0
FC0000
FC0000
FC0000
FC0040
7C0040
7C00C0
3E00C0
3E0180
1F0100
0F8700
03FC00
ENDCHAR
STARTCHAR 00E9
ENCODING 233
SWIDTH 479 0
DWIDTH 23 0
BBX 18 34 2 0
BITMAP
000E00
001F00
001F00
003E00
003C00
007800
00F000
00E000
018000
000000
000000
000000
03FC00
0E1E00
1E1F00
3E0F80
3C0F80
7C0F80
7C0FC0
FC0FC0
FC0FC0
FC0FC0
FFFFC0
FC0000
FC0000
FC0000
FC0040
7C0040
7C00C0
3E00C0
3E0080
1F0100
0F8300
03FC00
ENDCHAR
STARTCHAR 00EA
ENCODING 234
SWIDTH 479 0
DWIDTH 23 0
BBX 18 34 2 0
BITMAP
01E000
01E000
01F000
03F000
03F800
073800
0E1C00
1C0E00
380300
000000
000000
000000
03FC00
0E1E00
1E1F00
3E0F80
3C0F80
7C0F80
7C0FC0
FC0FC0
FC0FC0
FC0FC0
FFFFC0
FC0000
FC0000
FC0000
FC0040
7C0040
7C00C0
3E00C0
3E0080
1F0100
0F8300
03FC00
ENDCHAR
STARTCHAR 00EB
ENCODING 235
SWIDTH 479 0
DWIDTH 23 0
BBX 18 32 2 0
BITMAP
1E0F00
3F1F80
3F1F80
3F1F80
3F1F80
1E0F00
000000
000000
000000
000000
03FC00
0E1E00
1E1F00
3E0F80
3C0F80
7C0F80
7C0FC0
FC0FC0
FC0FC0
FC0FC0
FFFFC0
FC0000
FC0000
FC0000
FC0040
7C0040
7C00C0
3E00C0
3E0080
1F0100
0F8300
03FC00
ENDCHAR
STARTCHAR 00EC
ENCODING 236
SWIDTH 312 0
DWIDTH 15 0
BBX 12 34 1 0
BITMAP
6000
F000
F800
F800
7C00
1C00
0E00
0700
0300
0000
0000
0000
7F80
1F80
1F80
1F80
1F80
1F80
1F80
1F80
1F80
1F80
1F80
1F80
1F80
1F80
1F80
1F80
1F80
1F80
1F80
1F80
1F80
7FF0
ENDCHAR
STARTCHAR 00ED
ENCODING 237
SWIDTH 312 0
DWIDTH 15 0
BBX 12 34 2 0
BITMAP
00E0
01F0
01F0
03E0
07C0
0780
0F00
1C00
1800
0000
0000
0000
FF00
3F00
3F00
3F00
3F00
3F00
3F00
3F00
3F00
3F00
3F00
3F00
3F00
3F00
3F00
3F00
3F00
3F00
3F00
3F00
3F00
FFE0
ENDCHAR
STARTCHAR 00EE
ENCODING 238
SWIDTH 291 0
DWIDTH 14 0
BBX 14 34 0 0
BITMAP
0780
0F80
0F80
0FC0
1FE0
3CE0
3870
703C
C00C
0000
0000
0000
3FC0
0FC0
0FC0
0FC0
0FC0
0FC0
0FC0
0FC0
0FC0
0FC0
0FC0
0FC0
0FC0
0FC0
0FC0
0FC0
0FC0
0FC0
0FC0
0FC0
0FC0
3FF8
ENDCHAR
STARTCHAR 00EF
ENCODING 239
SWIDTH 291 0
DWIDTH 14 0
BBX 14 32 1 0
BITMAP
7878
FCFC
FCFC
FCFC
FCFC
7878
0000
0000
0000
0000
3FC0
0FC0
0FC0
0FC0
0FC0
0FC0
0FC0
0FC0
0FC0
0FC0
0FC0
0FC0
0FC0
0FC0
0FC0
0FC0
0FC0
0FC0
0FC0
0FC0
0FC0
3FF8
ENDCHAR
STARTCHAR 00F0
ENCODING 240
SWIDTH 500 0
DWIDTH 24 0
BBX 20 34 2 0
BITMAP
0FC180
0FE300
07FE00
03F800
01F800
01FC00
03FE00
0E7E00
183F00
003F80
001F80
000FC0
07FFC0
0F0FE0
1E07E0
3E07E0
3E07E0
7C07F0
7C03F0
FC03F0
FC03F0
FC03F0
FC03F0
FC03F0
FC03F0
FC03F0
FC03F0
7C03E0
7C07E0
3E07C0
3E07C0
1E0780
0F0F00
03FC00
ENDCHAR
STARTCHAR 00F1
ENCODING 241
SWIDTH 562 0
DWIDTH 27 0
BBX 23 32 2 0
BITMAP
03E060
07F840
0FFFC0
0C7F80
080F00
000000
000000
000000
000000
000000
FF1FC0
3F23E0
3F41F0
3F41F8
3F81F8
3F81F8
3F01F8
3F01F8
3F01F8
3F01F8
3F01F8
3F01F8
3F01F8
3F01F8
3F01F8
3F01F8
3F01F8
3F01F8
3F01F8
3F01F8
3F01F8
FFC7FE
ENDCHAR
STARTCHAR 00F2
ENCODING 242
SWIDTH 500 0
DWIDTH 24 0
BBX 20 34 2 0
BITMAP
0E0000
1F0000
1F0000
0F8000
07C000
03C000
01E000
006000
003000
000000
000000
000000
03FC00
0F0F00
1E0780
3E07C0
3E07C0
7C03E0
7C03E0
FC03F0
FC03F0
FC03F0
FC03F0
FC03F0
FC03F0
FC03F0
FC03F0
7C03E0
7C03E0
3E07C0
3E07C0
1E0780
0F0F00
03FC00
ENDCHAR
STARTCHAR 00F3
ENCODING 243
SWIDTH 500 0
DWIDTH 24 0
BBX 20 34 2 0
BITMAP
000700
000F80
000F80
001F00
003E00
003C00
007800
00E000
00C000
000000
000000
000000
03FC00
0F0F00
1E0780
3E07C0
3E07C0
7C03E0
7C03E0
FC03F0
FC03F0
FC03F0
FC03F0
FC03F0
FC03F0
FC03F0
FC03F0
7C03E0
7C03E0
3E07C0
3E07C0
1E0780
0F0F00
03FC00
ENDCHAR
STARTCHAR 00F4
ENCODING 244
SWIDTH 500 0
DWIDTH 24 0
BBX 20 34 2 0
BITMAP
00F000
00F000
01F800
01F800
03FC00
039C00
070E00
0E0700
180180
000000
000000
000000
03FC00
0F0F00
1E0780
3E07C0
3E07C0
7C03E0
7C03E0
FC03F0
FC03F0
FC03F0
FC03F0
FC03F0
FC03F0
FC03F0
FC03F0
7C03E0
7C03E0
3E07C0
3E07C0
1E0780
0F0F00
03FC00
ENDCHAR
STARTCHAR 00F5
ENCODING 245
SWIDTH 500 0
DWIDTH 24 0
BBX 20 32 2 0
BITMAP
07C080
0FF080
1FFF80
10FF00
103E00
000000
000000
000000
000000
000000
03FC00
0F0F00
1E0780
3E07C0
3E07C0
7C03E0
7C03E0
FC03F0
FC03F0
FC03F0
FC03F0
FC03F0
FC03F0
FC03F0
FC03F0
7C03E0
7C03E0
3E07C0
3E07C0
1E0780
0F0F00
03FC00
ENDCHAR
STARTCHAR 00F6
ENCODING 246
SWIDTH 500 0
DWIDTH 24 0
BBX 20 32 2 0
BITMAP
1E0F00
3F1F80
3F1F80
3F1F80
3F1F80
1E0F00
000000
000000
000000
000000
03FC00
0F0F00
1E0780
3E07C0
3E07C0
7C03E0
7C03E0
FC03F0
FC03F0
FC03F0
FC03F0
FC03F0
FC03F0
FC03F0
FC03F0
7C03E0
7C03E0
3E07C0
3E07C0
1E0780
0F0F00
03FC00
ENDCHAR
STARTCHAR 00F7
ENCODING 247
SWIDTH 937 0
DWIDTH 45 0
BBX 41 32 2 -3
BITMAP
00001C000000
00003E000000
00007F000000
00007F000000
00007F000000
00003E000000
00001C000000
000000000000
000000000000
000000000000
000000000000
000000000000
000000000000
000000000000
FFFFFFFFFF80
FFFFFFFFFF80
FFFFFFFFFF80
000000000000
000000000000
000000000000
000000000000
000000000000
000000000000
000000000000
000000000000
00001C000000
00003E000000
00007F000000
00007F000000
00007F000000
00003E000000
00001C000000
ENDCHAR
STARTCHAR 00F8
ENCODING 248
SWIDTH 500 0
DWIDTH 24 0
BBX 20 22 2 1
BITMAP
03FC30
0F0F60
1E0FC0
3E07C0
3E07C0
7C07E0
7C07E0
FC0FF0
FC1BF0
FC33F0
FC73F0
FCE3F0
FCC3F0
FD83F0
FF03F0
7E03E0
7E03E0
3E07C0
3E07C0
3F0780
6F0F00
C3FC00
ENDCHAR
STARTCHAR 00F9
ENCODING 249
SWIDTH 541 0
DWIDTH 26 0
BBX 24 34 1 0
BITMAP
070000
078000
07C000
07C000
03E000
01E000
007000
003000
001800
000000
000000
000000
FF8FF8
1F81F8
1F81F8
1F81F8
1F81F8
1F81F8
1F81F8
1F81F8
1F81F8
1F81F8
1F81F8
1F81F8
1F81F8
1F81F8
1F81F8
1F81F8
1F83F8
1F83F8
1F85F8
0F85F8
0FC9F8
07F1FF
ENDCHAR
STARTCHAR 00FA
ENCODING 250
SWIDTH 541 0
DWIDTH 26 0
BBX 24 34 1 0
BITMAP
000380
000380
000780
000F80
000F00
001E00
001C00
003800
003000
000000
000000
000000
FF8FF8
1F81F8
1F81F8
1F81F8
1F81F8
1F81F8
1F81F8
1F81F8
1F81F8
1F81F8
1F81F8
1F81F8
1F81F8
1F81F8
1F81F8
1F81F8
1F83F8
1F83F8
1F85F8
0F85F8
0FC9F8
07F1FF
ENDCHAR
STARTCHAR 00FB
ENCODING 251
SWIDTH 541 0
DWIDTH 26 0
BBX 24 34 1 0
BITMAP
003800
007800
007C00
00FC00
00FE00
01CE00
038700
070380
0E00C0
000000
000000
000000
FF8FF8
1F81F8
1F81F8
1F81F8
1F81F8
1F81F8
1F81F8
1F81F8
1F81F8
1F81F8
1F81F8
1F81F8
1F81F8
1F81F8
1F81F8
1F81F8
1F83F8
1F83F8
1F85F8
0F85F8
0FC9F8
07F1FF
ENDCHAR
STARTCHAR 00FC
ENCODING 252
SWIDTH 541 0
DWIDTH 26 0
BBX 24 32 1 0
BITMAP
0783C0
0FC7E0
0FC7E0
0FC7E0
0FC7E0
0783C0
000000
000000
000000
000000
FF87F8
1F81F8
1F81F8
1F81F8
1F81F8
1F81F8
1F81F8
1F81F8
1F81F8
1F81F8
1F81F8
1F81F8
1F81F8
1F81F8
1F81F8
1F81F8
1F83F8
1F83F8
1F85F8
0F85F8
0FC9F8
07F1FF
ENDCHAR
STARTCHAR 00FD
ENCODING 253
SWIDTH 520 0
DWIDTH 25 0
BBX 23 45 1 -11
BITMAP
0001C0
0001E0
0003E0
0007C0
000780
000F00
000E00
001C00
001800
000000
000000
000000
FFF1FE
3FC078
1F8030
0FC020
0FC020
0FC060
07E040
07E040
03F0C0
03F080
01F880
01F980
00F900
00FD00
00FD00
007E00
007E00
003E00
003C00
001C00
001C00
000C00
000800
000800
000800
0F1000
1F1000
3F9000
3F2000
3E2000
3E4000
1FC000
0F0000
ENDCHAR
STARTCHAR 00FE
ENCODING 254
SWIDTH 520 0
DWIDTH 25 0
BBX 22 44 1 -12
BITMAP
038000
0F8000
3F8000
FF8000
DF8000
1F8000
1F8000
1F8000
1F8000
1F8000
1F87F0
1F9FF8
1FB1F8
1FA0FC
1FC0FC
1FC0FC
1FC0FC
1F80FC
1F80FC
1F80F8
1F81F8
1F81F0
1F81F0
1F81E0
1F83C0
1F8380
1F8780
1F8600
1F8C00
1F9800
1FE000
1F8000
1F8000
1F8000
1F8000
1F8000
1F8000
1F8000
1F8000
1F8000
1E0000
780000
E00000
800000
ENDCHAR
STARTCHAR 00FF
ENCODING 255
SWIDTH 520 0
DWIDTH 25 0
BBX 23 44 1 -11
BITMAP
03C1E0
07E3F0
07E3F0
07E3F0
07E3F0
03C1E0
000000
000000
000000
000000
000000
FFF1FE
3FC078
1F8030
0FC020
0FC020
0FC060
07E040
07E040
03F0C0
03F080
01F080
01F980
00F900
00FD00
00FD00
007E00
007E00
003E00
003C00
001C00
001C00
000C00
000800
000800
000800
0F1000
1F1000
3F9000
3F2000
3E2000
3E4000
1FC000
0F0000
ENDCHAR
STARTCHAR 0100
ENCODING 256
SWIDTH 750 0
DWIDTH 36 0
BBX 33 41 2 0
BITMAP
003FFE0000
003FFE0000
003FFE0000
0000000000
0000000000
0000000000
0000000000
0000C00000
0001C00000
0001E00000
0001E00000
0003E00000
0003F00000
0007F00000
0007F00000
0007F80000
000FF80000
000FF80000
000FFC0000
0019FC0000
0019FC0000
0019FE0000
0030FE0000
0030FE0000
0020FF0000
00607F0000
00607F0000
00407F8000
00C03F8000
00C03F8000
00FFFFC000
01FFFFC000
01801FC000
01001FE000
03001FE000
03000FF000
02000FF000
06000FF000
0F000FF800
1F000FFC00
FFF0FFFF80
ENDCHAR
STARTCHAR 0101
ENCODING 257
SWIDTH 500 0
DWIDTH 24 0
BBX 21 31 2 0
BITMAP
1FFE00
1FFE00
1FFE00
000000
000000
000000
000000
000000
000000
0FF800
1C3E00
383F00
781F00
7C1F80
7E1F80
7E1F80
3E1F80
083F80
01FF80
079F80
1E1F80
3E1F80
7C1F80
7C1F80
FC1F80
FC1F88
FC1F88
FC1F98
FE3F90
7F7FF0
3F8FE0
ENDCHAR
STARTCHAR 0102
ENCODING 258
SWIDTH 750 0
DWIDTH 36 0
BBX 33 44 2 0
BITMAP
0060030000
0060030000
0060030000
0030060000
003C1E0000
001FFC0000
000FF80000
0003E00000
0000000000
0000000000
0001C00000
0001C00000
0001E00000
0003E00000
0003E00000
0003F00000
0007F00000
0007F00000
0007F80000
000FF80000
000FF80000
000FFC0000
0019FC0000
0019FC0000
0011FE0000
0030FE0000
0030FF0000
0020FF0000
00607F0000
00607F8000
00407F8000
00C03F8000
00803FC000
00FFFFC000
01FFFFC000
01001FE000
01001FE000
03000FE000
02000FF000
02000FF000
060007F000
0E0007F800
1F000FFC00
FFF0FFFF80
ENDCHAR
STARTCHAR 0103
ENCODING 259
SWIDTH 500 0
DWIDTH 24 0
BBX 21 33 2 0
BITMAP
300200
300600
180600
1C1C00
0FFC00
07F800
03E000
000000
000000
000000
000000
0FF800
183E00
383F00
781F00
7C1F80
7E1F80
7E1F80
3C1F80
007F80
03DF80
0F1F80
1E1F80
3E1F80
7C1F80
FC1F80
FC1F88
FC1F88
FC1F88
FC1F98
FE3F90
7F7FF0
3F8FE0
ENDCHAR
STARTCHAR 0104
ENCODING 260
SWIDTH 750 0
DWIDTH 36 0
BBX 33 46 2 -11
BITMAP
0000C00000
0001E00000
0001E00000
0001E00000
0003E00000
0003F00000
0003F00000
0007F00000
0007F80000
0007F80000
000FF80000
000FFC0000
0009FC0000
0019FC0000
0019FE0000
0010FE0000
0030FE0000
0030FF0000
00207F0000
00607F0000
00607F8000
00403F8000
00C03F8000
00C03FC000
00FFFFC000
01FFFFC000
01801FE000
01000FE000
03000FE000
03000FF000
020007F000
060007F000
0F0007F800
1F000FFC00
FFF0FFFF80
0000006000
000001C000
0000038000
0000078000
00000F0000
00000F0000
00000F0000
00000F0C00
00000FF800
000007F000
000003E000
ENDCHAR
STARTCHAR 0105
ENCODING 261
SWIDTH 500 0
DWIDTH 24 0
BBX 21 33 2 -10
BITMAP
0FF800
183E00
381F00
781F00
7C1F80
7E1F80
7E1F80
3E1F80
083F80
01FF80
079F80
1E1F80
3E1F80
7C1F80
7C1F80
FC1F80
FC1F88
FC1F88
FC1F98
FE3F98
7F6FF0
3FC7E0
0001C0
000300
000600
000E00
000C00
001C00
001C00
001C20
001FE0
000FC0
000780
ENDCHAR
STARTCHAR 0106
ENCODING 262
SWIDTH 645 0
DWIDTH 31 0
BBX 26 45 3 0
BITMAP
00007000
0000F000
0001F000
0001F000
0003E000
00078000
00070000
000E0000
00080000
00000000
00000000
007FC180
01E0F180
03C03F80
07801F80
0F800F80
1F000F80
3F000780
3F000780
7F000380
7F000380
7F000380
7F000180
FF000180
FF000180
FF000180
FF000000
FF000000
FF000000
FF000000
FF000000
FF000000
FF0000C0
7F0000C0
7F0000C0
7F000080
3F000180
3F000180
3F000180
1F800300
0F800700
07C00E00
03C01C00
01F07800
007FE000
ENDCHAR
STARTCHAR 0107
ENCODING 263
SWIDTH 458 0
DWIDTH 22 0
BBX 18 34 2 0
BITMAP
000700
000F00
001F00
001F00
003E00
007C00
007000
00E000
00C000
008000
000000
000000
03FC00
0F0700
1F0300
3E0380
3E0780
7E0F80
7C1F80
FC1F00
FC0E00
FC0000
FC0000
FC0000
FC0000
FC0000
FC0040
7C0040
7C00C0
3E0080
3E0180
1E0100
0F8200
03FC00
ENDCHAR
STARTCHAR 0108
ENCODING 264
SWIDTH 645 0
DWIDTH 31 0
BBX 26 45 3 0
BITMAP
000C0000
000E0000
001E0000
003F0000
007F8000
00F3C000
01E0E000
03803800
02000800
00000000
00000000
007FC180
01E0F180
03C03F80
0F801F80
0F800F80
1F000F80
3F000780
3F000780
7F000380
7F000380
7F000380
7F000180
FF000180
FF000180
FF000180
FF000000
FF000000
FF000000
FF000000
FF000000
FF000000
FF0000C0
7F0000C0
7F0000C0
7F000080
3F000180
3F000180
3F000180
1F800300
0F800300
07800600
03C00C00
01E03800
007FE000
ENDCHAR
STARTCHAR 0109
ENCODING 265
SWIDTH 458 0
DWIDTH 22 0
BBX 18 34 2 0
BITMAP
00E000
01F000
01F000
01F800
03F800
07BC00
0F0E00
1C0700
180380
000000
000000
000000
03FC00
0F0600
1F0300
3E0380
3E0780
7E0F80
7C1F80
FC1F80
FC1F00
FC0E00
FC0000
FC0000
FC0000
FC0000
FC0000
7C0040
7C00C0
3E0080
3E0080
1E0100
0F8200
03FC00
ENDCHAR
STARTCHAR 010A
ENCODING 266
SWIDTH 645 0
DWIDTH 31 0
BBX 26 44 3 0
BITMAP
001E0000
003F0000
003F0000
003F0000
003F0000
001E0000
00000000
00000000
00000000
00000000
007FC180
01E0F380
07C03F80
0F801F80
0F800F80
1F000F80
3F000780
3F000780
7F000380
7F000380
7F000380
7F000180
FF000180
FF000180
FF000180
FF000000
FF000000
FF000000
FF000000
FF000000
FF000000
FF0000C0
7F0000C0
7F0000C0
7F000080
3F000180
3F000180
3F000180
1F800300
0F800300
07800600
03C00C00
01E03800
007FE000
ENDCHAR
STARTCHAR 010B
ENCODING 267
SWIDTH 458 0
DWIDTH 22 0
BBX 18 33 2 0
BITMAP
00E000
01F000
03F800
03F800
03F800
01F000
00E000
000000
000000
000000
000000
03FC00
0F0600
1F0700
3E0780
3E0780
7E0F80
7C1F80
FC1F80
FC1F00
FC0E00
FC0000
FC0000
FC0000
FC0000
FC0000
7C0040
7C00C0
3E0080
3E0080
1E0100
0F8200
03FC00
ENDCHAR
STARTCHAR 010C
ENCODING 268
SWIDTH 645 0
DWIDTH 31 0
BBX 26 44 3 0
BITMAP
02000800
03803800
01C0F000
00F3E000
007FC000
003F0000
001E0000
000C0000
00000000
00000000
007FC180
01E0F180
03C03F80
0F801F80
0F800F80
1F000F80
3F000780
3F000780
7F000380
7F000380
7F000380
7F000180
FF000180
FF000180
FF000180
FF000000
FF000000
FF000000
FF000000
FF000000
FF000000
FF0000C0
7F0000C0
7F0000C0
7F000080
3F000180
3F000180
3F000180
1F800300
0F800300
07800600
03C00C00
01E03800
007FE000
ENDCHAR
STARTCHAR 010D
ENCODING 269
SWIDTH 458 0
DWIDTH 22 0
BBX 18 33 2 0
BITMAP
100100
180300
0E0E00
071C00
03FC00
03F800
01F000
00E000
000000
000000
000000
03FC00
0F0600
1F0300
3E0380
3E0780
7E0F80
7C1F80
FC1F80
FC1F00
FC0E00
FC0000
FC0000
FC0000
FC0000
FC0000
7C0040
7C00C0
3E0080
3E0080
1E0100
0F8200
03FC00
ENDCHAR
STARTCHAR 010E
ENCODING 270
SWIDTH 770 0
DWIDTH 37 0
BBX 32 43 3 0
BITMAP
03001800
03C07800
00E1E000
007BC000
003F8000
001F0000
000E0000
00000000
00000000
FFFFF800
0FE01F00
0FE00780
0FE003E0
0FE001F0
0FE001F0
0FE000F8
0FE000FC
0FE000FC
0FE000FE
0FE000FE
0FE000FE
0FE000FF
0FE000FF
0FE000FF
0FE000FF
0FE000FF
0FE000FF
0FE000FF
0FE000FF
0FE000FF
0FE000FE
0FE000FE
0FE000FE
0FE000FE
0FE000FC
0FE000FC
0FE000F8
0FE001F0
0FE001E0
0FE003C0
0FE00780
0FE01E00
FFFFF800
ENDCHAR
STARTCHAR 010F
ENCODING 271
SWIDTH 583 0
DWIDTH 28 0
BBX 27 35 2 0
BITMAP
00000100
003FE7C0
0007E7E0
0007E7E0
0007E7E0
0007E1E0
0007E060
0007E040
0007E0C0
0007E080
0007E300
0007E600
0007E000
07E7E000
1F17E000
1E1FE000
3E0FE000
7E0FE000
7C0FE000
7C07E000
FC07E000
FC07E000
FC07E000
FC07E000
FC07E000
FC07E000
FC07E000
FC07E000
7C07E000
7C0FE000
7E0FE000
3E0FE000
1E1FE000
0F17E000
07E7FE00
ENDCHAR
STARTCHAR 0110
ENCODING 272
SWIDTH 770 0
DWIDTH 37 0
BBX 32 34 3 0
BITMAP
FFFFF800
07F01F00
07F00780
07F003E0
07F001F0
07F001F0
07F000F8
07F000FC
07F000FC
07F000FE
07F000FE
07F000FE
07F000FF
07F000FF
07F000FF
07F000FF
FFFF00FF
07F000FF
07F000FF
07F000FF
07F000FF
07F000FE
07F000FE
07F000FE
07F000FE
07F000FC
07F000FC
07F000F8
07F001F0
07F001E0
07F003C0
07F00780
07F01F00
FFFFF800
ENDCHAR
STARTCHAR 0111
ENCODING 273
SWIDTH 520 0
DWIDTH 25 0
BBX 22 34 2 0
BITMAP
003FE0
0007E0
0007E0
0007E0
0007E0
0007E0
07FFFC
0007E0
0007E0
0007E0
0007E0
0007E0
07E7E0
1F17E0
1E1FE0
3E0FE0
7E0FE0
7C0FE0
7C07E0
FC07E0
FC07E0
FC07E0
FC07E0
FC07E0
FC07E0
FC07E0
FC07E0
7C07E0
7C0FE0
7E0FE0
3E0FE0
1E1FE0
0F17E0
07E7FC
ENDCHAR
STARTCHAR 0112
ENCODING 274
SWIDTH 687 0
DWIDTH 33 0
BBX 27 41 3 0
BITMAP
00FFF800
00FFF800
00FFF800
00000000
00000000
00000000
00000000
FFFFFFE0
0FE01FE0
0FE007E0
0FE003E0
0FE001E0
0FE001E0
0FE000E0
0FE000E0
0FE00060
0FE03060
0FE03060
0FE03000
0FE07000
0FE07000
0FE0F000
0FE1F000
0FFFF000
0FE1F000
0FE0F000
0FE07000
0FE07060
0FE03060
0FE03060
0FE03060
0FE00060
0FE000E0
0FE000E0
0FE000E0
0FE001E0
0FE003E0
0FE003E0
0FE00FE0
FFFFFFE0
FFFFFFE0
ENDCHAR
STARTCHAR 0113
ENCODING 275
SWIDTH 479 0
DWIDTH 23 0
BBX 18 31 2 0
BITMAP
1FFE00
1FFE00
1FFE00
000000
000000
000000
000000
000000
000000
03FC00
0E1E00
1E1F00
3E0F80
3C0F80
7C0F80
7C0FC0
FC0FC0
FC0FC0
FC0FC0
FFFFC0
FC0000
FC0000
FC0000
FC0040
7C00C0
7C00C0
3E00C0
3E0180
1F0100
0F8300
03FC00
ENDCHAR
STARTCHAR 0114
ENCODING 276
SWIDTH 687 0
DWIDTH 33 0
BBX 27 44 3 0
BITMAP
01000C00
01800C00
01800C00
00C01800
00F07800
007FF000
003FE000
000F8000
00000000
00000000
FFFFFFE0
0FE01FE0
0FE007E0
0FE003E0
0FE001E0
0FE001E0
0FE000E0
0FE000E0
0FE00060
0FE03060
0FE03060
0FE03000
0FE07000
0FE07000
0FE0F000
0FE1F000
0FFFF000
0FE1F000
0FE0F000
0FE07000
0FE07020
0FE03060
0FE03060
0FE03060
0FE00060
0FE00060
0FE000E0
0FE000E0
0FE001E0
0FE003E0
0FE003E0
0FE00FE0
FFFFFFE0
FFFFFFE0
ENDCHAR
STARTCHAR 0115
ENCODING 277
SWIDTH 479 0
DWIDTH 23 0
BBX 18 33 2 0
BITMAP
100300
100300
180600
1E0E00
0FFC00
07FC00
01F000
000000
000000
000000
000000
03FC00
0E1E00
1E1F00
3E0F80
3C0F80
7C0F80
7C0FC0
FC0FC0
FC0FC0
FC0FC0
FFFFC0
FC0000
FC0000
FC0000
FC0040
7C0040
7C00C0
3E00C0
3E0080
1F0100
0F8300
03FC00
ENDCHAR
STARTCHAR 0116
ENCODING 278
SWIDTH 687 0
DWIDTH 33 0
BBX 27 43 3 0
BITMAP
000F0000
001F8000
001F8000
001F8000
001F8000
000F0000
00000000
00000000
00000000
FFFFFFE0
0FE01FE0
0FE007E0
0FE003E0
0FE001E0
0FE001E0
0FE000E0
0FE000E0
0FE00060
0FE03060
0FE03060
0FE03000
0FE07000
0FE07000
0FE0F000
0FE1F000
0FFFF000
0FE1F000
0FE0F000
0FE07000
0FE07020
0FE03060
0FE03060
0FE03060
0FE00060
0FE00060
0FE000E0
0FE000E0
0FE001E0
0FE003E0
0FE003E0
0FE00FE0
FFFFFFE0
FFFFFFE0
ENDCHAR
STARTCHAR 0117
ENCODING 279
SWIDTH 479 0
DWIDTH 23 0
BBX 18 33 2 0
BITMAP
00E000
01F000
03F800
03F800
03F800
01F000
00E000
000000
000000
000000
000000
03FC00
0E1E00
1E1F00
3E0F80
3C0F80
7C0F80
7C0FC0
FC0FC0
FC0FC0
FC0FC0
FFFFC0
FC0000
FC0000
FC0000
FC0040
7C0040
7C0040
3E00C0
3E0080
1F0100
0F8300
03FC00
ENDCHAR
STARTCHAR 0118
ENCODING 280
SWIDTH 687 0
DWIDTH 33 0
BBX 27 45 3 -11
BITMAP
FFFFFFE0
0FE01FE0
0FE007E0
0FE003E0
0FE001E0
0FE001E0
0FE000E0
0FE000E0
0FE00060
0FE03060
0FE03060
0FE03000
0FE07000
0FE07000
0FE0F000
0FE1F000
0FFFF000
0FE1F000
0FE0F000
0FE07000
0FE07000
0FE03060
0FE03060
0FE03060
0FE00060
0FE00060
0FE000E0
0FE000E0
0FE001E0
0FE001E0
0FE003E0
0FE007E0
0FE01FE0
FFFFFFE0
00003800
00007000
0000E000
0001C000
0003C000
0003C000
0003C000
0003C200
0003FE00
0001FC00
0000F800
ENDCHAR
STARTCHAR 0119
ENCODING 281
SWIDTH 479 0
DWIDTH 23 0
BBX 18 33 2 -10
BITMAP
03F800
0E1E00
1E1F00
3E1F00
3E0F80
7C0F80
7C0FC0
FC0FC0
FC0FC0
FC0FC0
FC0FC0
FFFFC0
FC0000
FC0000
FC0000
7C0040
7C0040
3E00C0
3E0080
1E0180
0F0300
03FE00
003800
007000
00E000
01C000
018000
038000
038000
038600
03FC00
01F800
00F000
ENDCHAR
STARTCHAR 011A
ENCODING 282
SWIDTH 687 0
DWIDTH 33 0
BBX 27 43 3 0
BITMAP
03800C00
01E03800
00F0F000
007FE000
001FC000
000F8000
00070000
00000000
00000000
FFFFFFE0
0FE01FE0
0FE007E0
0FE003E0
0FE001E0
0FE001E0
0FE000E0
0FE000E0
0FE00060
0FE03060
0FE03060
0FE03000
0FE07000
0FE07000
0FE0F000
0FE1F000
0FFFF000
0FE1F000
0FE0F000
0FE07000
0FE07020
0FE03060
0FE03060
0FE03060
0FE00060
0FE00060
0FE000E0
0FE000E0
0FE001E0
0FE003E0
0FE003E0
0FE00FE0
FFFFFFE0
FFFFFFE0
ENDCHAR
STARTCHAR 011B
ENCODING 283
SWIDTH 479 0
DWIDTH 23 0
BBX 18 33 2 0
BITMAP
300100
180700
0C0E00
0F1C00
07F800
03F000
01E000
00E000
000000
000000
000000
03FC00
0E1E00
1E1F00
3E0F80
3C0F80
7C0F80
7C0FC0
FC0FC0
FC0FC0
FC0FC0
FFFFC0
FC0000
FC0000
FC0000
FC0040
7C0040
7C00C0
3E00C0
3E0080
1F0100
0F8300
03FC00
ENDCHAR
STARTCHAR 011C
ENCODING 284
SWIDTH 729 0
DWIDTH 35 0
BBX 30 45 3 0
BITMAP
00060000
00070000
000F0000
001F8000
003FC000
007DE000
00F07000
03C03C00
03000400
00000000
00000000
007FE0C0
00E078C0
03C01FC0
07800FC0
0F8007C0
1F0007C0
1F0003C0
3F0003C0
3F0001C0
7F0001C0
7F0001C0
7F0000C0
FF0000C0
FF0000C0
FF000000
FF000000
FF000000
FF03FFFC
FF03FFFC
FF001FC0
FF001FC0
FF001FC0
7F001FC0
7F001FC0
7F001FC0
7F001FC0
3F001FC0
3F001FC0
1F001FC0
0F8039C0
0F8031C0
07C060C0
01E0C0C0
007F80C0
ENDCHAR
STARTCHAR 011D
ENCODING 285
SWIDTH 562 0
DWIDTH 27 0
BBX 24 45 2 -11
BITMAP
00F000
00F000
00F800
01F800
01FC00
039C00
070E00
0E0700
1C0180
000080
000000
000000
07FE3E
1F0F47
3F078F
3E07CF
7E07EE
7E07E4
7E07E0
7E07E0
7E07E0
3E07C0
1F0F80
0F0F00
03FC00
0C0000
300000
300000
700000
700000
7FFF80
7FFFE0
3FFFF0
1FFFF0
07FFF8
3C01F8
600078
C00038
C00038
C00030
C00070
600060
3001C0
1E0780
03FC00
ENDCHAR
STARTCHAR 011E
ENCODING 286
SWIDTH 729 0
DWIDTH 35 0
BBX 30 44 3 0
BITMAP
01000C00
01000C00
01801C00
00C01800
00E07800
007FF000
003FE000
000F8000
00000000
00000000
007FE0C0
00E038C0
03C01FC0
07800FC0
0F8007C0
1F0007C0
1F0003C0
3F0003C0
3F0001C0
7F0001C0
7F0000C0
7F0000C0
FF0000C0
FF000040
FF000000
FF000000
FF000000
FF03FFFC
FF03FFFC
FF001FC0
FF001FC0
FF001FC0
7F001FC0
7F001FC0
7F001FC0
7F001FC0
3F001FC0
3F001FC0
1F001FC0
0F8039C0
078038C0
03C070C0
01E0E0C0
007F80C0
ENDCHAR
STARTCHAR 011F
ENCODING 287
SWIDTH 562 0
DWIDTH 27 0
BBX 24 44 2 -11
BITMAP
080180
0C0180
0C0300
070700
07FE00
03FC00
00F800
000000
000000
000000
000000
07FE3E
1F0F47
3F078F
3E07CF
7E07EE
7E07E4
7E07E0
7E07E0
7E07E0
3E07C0
1F0F80
0F0F00
03FC00
0C0000
300000
300000
700000
700000
7FFF80
7FFFE0
3FFFF0
1FFFF0
07FFF8
3C01F8
600078
C00038
C00038
C00030
C00070
600060
3001C0
1E0780
03FC00
ENDCHAR
STARTCHAR 0120
ENCODING 288
SWIDTH 729 0
DWIDTH 35 0
BBX 30 44 3 0
BITMAP
000F0000
001F8000
001F8000
001F8000
001F8000
000F0000
00000000
00000000
00000000
00000000
007FE0C0
00E078C0
03C01FC0
07800FC0
0F8007C0
1F0007C0
1F0003C0
3F0003C0
3F0001C0
7F0001C0
7F0001C0
7F0000C0
FF0000C0
FF0000C0
FF000000
FF000000
FF000000
FF03FFFC
FF03FFFC
FF001FC0
FF001FC0
FF001FC0
7F001FC0
7F001FC0
7F001FC0
7F001FC0
3F001FC0
3F001FC0
1F001FC0
0F8039C0
0F8031C0
07C060C0
01E0C0C0
007F80C0
ENDCHAR
STARTCHAR 0121
ENCODING 289
SWIDTH 562 0
DWIDTH 27 0
BBX 24 44 2 -11
BITMAP
007000
00F800
01FC00
01FC00
01FC00
00F800
007000
000000
000000
000000
000000
07FE3E
0F0F47
3F078F
3E07CF
7E07EE
7E07E4
7E07E0
7E07E0
7E07E0
3E07C0
1F0F80
0F0F00
03FC00
0C0000
300000
300000
700000
700000
7FFF80
7FFFE0
3FFFF0
1FFFF0
07FFF8
3C01F8
600078
C00038
C00038
C00030
C00070
600060
3001C0
1E0780
03FC00
ENDCHAR
STARTCHAR 0122
ENCODING 290
SWIDTH 729 0
DWIDTH 35 0
BBX 30 45 3 -10
BITMAP
007FE0C0
00E078C0
03C01FC0
07800FC0
0F8007C0
1F0007C0
1F0003C0
3F0003C0
3F0001C0
7F0001C0
7F0001C0
7F0000C0
FF0000C0
FF0000C0
FF000000
FF000000
FF000000
FF03FFFC
FF03FFFC
FF001FC0
FF001FC0
FF001FC0
7F001FC0
7F001FC0
7F001FC0
7F001FC0
3F001FC0
3F001FC0
1F001FC0
0F8039C0
0F8031C0
07C060C0
01E0C0C0
007F80C0
00000000
000E0000
001F0000
001F8000
001F8000
000F8000
00038000
00010000
00030000
000C0000
00180000
ENDCHAR
STARTCHAR 0123
ENCODING 291
SWIDTH 562 0
DWIDTH 27 0
BBX 24 47 2 -10
BITMAP
003800
006000
00C000
018000
018000
038000
03F800
03F800
01F800
01F800
00F000
000000
000000
000000
07FE3E
1F0F47
3F078F
3E07CF
7E07EE
7E07E4
7E07E0
7E07E0
7E07E0
3E07C0
1F0F80
0F0F00
03FC00
0C0000
300000
300000
700000
700000
7FFF80
7FFFE0
3FFFF0
1FFFF0
07FFF8
3C01F8
600078
C00038
C00038
C00030
C00070
600060
3001C0
1E0780
03FC00
ENDCHAR
STARTCHAR 0124
ENCODING 292
SWIDTH 812 0
DWIDTH 39 0
BBX 34 44 3 0
BITMAP
0000C00000
0001E00000
0001F00000
0003F80000
00073C0000
001E0E0000
0038038000
0020008000
0000000000
0000000000
FFFF3FFFC0
07F001FC00
07F001FC00
07F001FC00
07F001FC00
07F001FC00
07F001FC00
07F001FC00
07F001FC00
07F001FC00
07F001FC00
07F001FC00
07F001FC00
07F001FC00
07F001FC00
07FFFFFC00
07FFFFFC00
07F001FC00
07F001FC00
07F001FC00
07F001FC00
07F001FC00
07F001FC00
07F001FC00
07F001FC00
07F001FC00
07F001FC00
07F001FC00
07F001FC00
07F001FC00
07F001FC00
07F001FC00
07F001FC00
FFFF3FFFC0
ENDCHAR
STARTCHAR 0125
ENCODING 293
SWIDTH 562 0
DWIDTH 27 0
BBX 24 44 1 0
BITMAP
003C00
003C00
007C00
007E00
00FE00
01EF00
038380
0701C0
040060
000000
FF8000
1F8000
1F8000
1F8000
1F8000
1F8000
1F8000
1F8000
1F8000
1F8000
1F8000
1F8100
1F8FE0
1F91F0
1FA0F8
1FA0FC
1FC0FC
1FC0FC
1FC0FC
1F80FC
1F80FC
1F80FC
1F80FC
1F80FC
1F80FC
1F80FC
1F80FC
1F80FC
1F80FC
1F80FC
1F80FC
1F80FC
1F80FC
FFE3FF
ENDCHAR
STARTCHAR 0126
ENCODING 294
SWIDTH 812 0
DWIDTH 39 0
BBX 36 34 2 0
BITMAP
7FFF9FFFE0
07F000FE00
07F000FE00
07F000FE00
07F000FE00
07F000FE00
07F000FE00
07F000FE00
07F000FE00
FFFFFFFFF0
07F000FE00
07F000FE00
07F000FE00
07F000FE00
07F000FE00
07F000FE00
07FFFFFE00
07F000FE00
07F000FE00
07F000FE00
07F000FE00
07F000FE00
07F000FE00
07F000FE00
07F000FE00
07F000FE00
07F000FE00
07F000FE00
07F000FE00
07F000FE00
07F000FE00
07F000FE00
07F000FE00
7FFF9FFFE0
ENDCHAR
STARTCHAR 0127
ENCODING 295
SWIDTH 562 0
DWIDTH 27 0
BBX 24 34 1 0
BITMAP
FF8000
1F8000
1F8000
1F8000
1F8000
1F8000
FFFF80
1F8000
1F8000
1F8000
1F8000
1F8100
1F8FE0
1F91F0
1FA0F8
1FA0FC
1FC0FC
1FC0FC
1FC0FC
1F80FC
1F80FC
1F80FC
1F80FC
1F80FC
1F80FC
1F80FC
1F80FC
1F80FC
1F80FC
1F80FC
1F80FC
1F80FC
1F80FC
FFE3FF
ENDCHAR
STARTCHAR 0128
ENCODING 296
SWIDTH 437 0
DWIDTH 21 0
BBX 16 43 3 0
BITMAP
1F02
3FC2
3FFE
63FC
4078
0000
0000
0000
0000
FFFF
07F0
07F0
07F0
07F0
07F0
07F0
07F0
07F0
07F0
07F0
07F0
07F0
07F0
07F0
07F0
07F0
07F0
07F0
07F0
07F0
07F0
07F0
07F0
07F0
07F0
07F0
07F0
07F0
07F0
07F0
07F0
07F0
FFFF
ENDCHAR
STARTCHAR 0129
ENCODING 297
SWIDTH 312 0
DWIDTH 15 0
BBX 14 32 1 0
BITMAP
3E04
7F84
7FF8
C7F8
81F0
0000
0000
0000
0000
0000
3FC0
0FC0
0FC0
0FC0
0FC0
0FC0
0FC0
0FC0
0FC0
0FC0
0FC0
0FC0
0FC0
0FC0
0FC0
0FC0
0FC0
0FC0
0FC0
0FC0
0FC0
3FF8
ENDCHAR
STARTCHAR 012A
ENCODING 298
SWIDTH 437 0
DWIDTH 21 0
BBX 16 41 3 0
BITMAP
3FFE
3FFE
3FFE
0000
0000
0000
0000
FFFF
07F0
07F0
07F0
07F0
07F0
07F0
07F0
07F0
07F0
07F0
07F0
07F0
07F0
07F0
07F0
07F0
07F0
07F0
07F0
07F0
07F0
07F0
07F0
07F0
07F0
07F0
07F0
07F0
07F0
07F0
07F0
07F0
FFFF
ENDCHAR
STARTCHAR 012B
ENCODING 299
SWIDTH 291 0
DWIDTH 14 0
BBX 12 31 1 0
BITMAP
FFF0
FFF0
FFF0
0000
0000
0000
0000
0000
0000
7FC0
0FC0
0FC0
0FC0
0FC0
0FC0
0FC0
0FC0
0FC0
0FC0
0FC0
0FC0
0FC0
0FC0
0FC0
0FC0
0FC0
0FC0
0FC0
0FC0
0FC0
7FF0
ENDCHAR
STARTCHAR 012C
ENCODING 300
SWIDTH 437 0
DWIDTH 21 0
BBX 16 44 3 0
BITMAP
6003
6003
6003
3006
3C1E
1FFC
0FF8
03E0
0000
0000
FFFF
07F0
07F0
07F0
07F0
07F0
07F0
07F0
07F0
07F0
07F0
07F0
07F0
07F0
07F0
07F0
07F0
07F0
07F0
07F0
07F0
07F0
07F0
07F0
07F0
07F0
07F0
07F0
07F0
07F0
07F0
07F0
07F0
FFFF
ENDCHAR
STARTCHAR 012D
ENCODING 301
SWIDTH 291 0
DWIDTH 14 0
BBX 14 33 0 0
BITMAP
C004
400C
601C
7838
3FF0
1FF0
07C0
0000
0000
0000
0000
3FC0
0FC0
0FC0
0FC0
0FC0
0FC0
0FC0
0FC0
0FC0
0FC0
0FC0
0FC0
0FC0
0FC0
0FC0
0FC0
0FC0
0FC0
0FC0
0FC0
0FC0
3FF8
ENDCHAR
STARTCHAR 012E
ENCODING 302
SWIDTH 437 0
DWIDTH 21 0
BBX 17 45 3 -11
BITMAP
FFFF00
07F000
07F000
07F000
07F000
07F000
07F000
07F000
07F000
07F000
07F000
07F000
07F000
07F000
07F000
07F000
07F000
07F000
07F000
07F000
07F000
07F000
07F000
07F000
07F000
07F000
07F000
07F000
07F000
07F000
07F000
07F000
07F000
FFFF00
000E00
001800
007000
00F000
00E000
01E000
01E000
01F080
01FF80
00FF00
007C00
ENDCHAR
STARTCHAR 012F
ENCODING 303
SWIDTH 312 0
DWIDTH 15 0
BBX 12 46 2 -11
BITMAP
0400
1F00
3F80
3F80
3F80
3F80
1F00
0400
0000
0000
0000
0000
0000
FF00
3F00
3F00
3F00
3F00
3F00
3F00
3F00
3F00
3F00
3F00
3F00
3F00
3F00
3F00
3F00
3F00
3F00
3F00
3F00
3F00
FFE0
01C0
0300
0600
0E00
0C00
1C00
1C00
1E30
1FE0
0FC0
0780
ENDCHAR
STARTCHAR 0130
ENCODING 304
SWIDTH 437 0
DWIDTH 21 0
BBX 16 43 3 0
BITMAP
03C0
07E0
07E0
07E0
07E0
03C0
0000
0000
0000
FFFF
07F0
07F0
07F0
07F0
07F0
07F0
07F0
07F0
07F0
07F0
07F0
07F0
07F0
07F0
07F0
07F0
07F0
07F0
07F0
07F0
07F0
07F0
07F0
07F0
07F0
07F0
07F0
07F0
07F0
07F0
07F0
07F0
FFFF
ENDCHAR
STARTCHAR 0131
ENCODING 305
SWIDTH 312 0
DWIDTH 15 0
BBX 11 22 2 0
BITMAP
FF00
3F00
3F00
3F00
3F00
3F00
3F00
3F00
3F00
3F00
3F00
3F00
3F00
3F00
3F00
3F00
3F00
3F00
3F00
3F00
3F00
FFE0
ENDCHAR
STARTCHAR 0132
ENCODING 306
SWIDTH 916 0
DWIDTH 44 0
BBX 40 34 3 0
BITMAP
FFFF00FFFF
07F00007F0
07F00007F0
07F00007F0
07F00007F0
07F00007F0
07F00007F0
07F00007F0
07F00007F0
07F00007F0
07F00007F0
07F00007F0
07F00007F0
07F00007F0
07F00007F0
07F00007F0
07F00007F0
07F00007F0
07F00007F0
07F00007F0
07F00007F0
07F00707F0
07F00F87F0
07F01FC7F0
07F03FC7F0
07F03FC7F0
07F03F87F0
07F03F87F0
07F03E07E0
07F03807E0
07F01807C0
07F0080F80
07F00C0F00
FFFF03FE00
ENDCHAR
STARTCHAR 0133
ENCODING 307
SWIDTH 604 0
DWIDTH 29 0
BBX 24 46 2 -11
BITMAP
040008
1F003E
3F807F
3F807F
3F807F
3F807F
1F003E
040008
000000
000000
000000
000000
000000
FF01FF
3F003F
3F003F
3F003F
3F003F
3F003F
3F003F
3F003F
3F003F
3F003F
3F003F
3F003F
3F003F
3F003F
3F003F
3F003F
3F003F
3F003F
3F003F
3F003F
3F003F
FFE03F
00003F
00003F
000E3F
001F3F
003F3F
003F3E
003E3E
003E3E
001C7C
000C78
0007E0
ENDCHAR
STARTCHAR 0134
ENCODING 308
SWIDTH 541 0
DWIDTH 26 0
BBX 23 45 2 0
BITMAP
000300
000380
000780
000FC0
001FE0
003CF0
00703C
01C00E
000002
000000
000000
01FFFE
000FE0
000FE0
000FE0
000FE0
000FE0
000FE0
000FE0
000FE0
000FE0
000FE0
000FE0
000FE0
000FE0
000FE0
000FE0
000FE0
000FE0
000FE0
000FE0
000FE0
1E0FE0
7E0FE0
7F0FE0
FF0FE0
FF0FE0
FE0FE0
FE0FE0
F80FC0
700FC0
600F80
301F00
181E00
0FF800
ENDCHAR
STARTCHAR 0135
ENCODING 309
SWIDTH 333 0
DWIDTH 16 0
BBX 18 45 -2 -11
BITMAP
00F000
00F800
00F800
01FC00
01FC00
039E00
070F00
0E0380
1801C0
000000
000000
000000
07FC00
00FC00
00FC00
00FC00
00FC00
00FC00
00FC00
00FC00
00FC00
00FC00
00FC00
00FC00
00FC00
00FC00
00FC00
00FC00
00FC00
00FC00
00FC00
00FC00
00FC00
00FC00
00FC00
00FC00
38FC00
7CFC00
FCFC00
FCFC00
F8F800
F8F800
71F000
31E000
1F8000
ENDCHAR
STARTCHAR 0136
ENCODING 310
SWIDTH 770 0
DWIDTH 37 0
BBX 33 45 3 -11
BITMAP
FFFF1FFE00
07F007F000
07F003C000
07F0038000
07F0030000
07F0070000
07F00E0000
07F00C0000
07F0180000
07F0300000
07F0600000
07F0E00000
07F0E00000
07F1F00000
07F3F00000
07F7F80000
07FFFC0000
07FFFC0000
07F9FE0000
07F1FE0000
07F0FF0000
07F0FF0000
07F07F8000
07F07F8000
07F03FC000
07F03FC000
07F01FE000
07F01FE000
07F00FF000
07F00FF000
07F007F800
07F007F800
07F007FC00
FFFF3FFF80
0000000000
0001C00000
0003E00000
0003F00000
0003F00000
0001F00000
0000700000
0000600000
0000600000
0001800000
0002000000
ENDCHAR
STARTCHAR 0137
ENCODING 311
SWIDTH 562 0
DWIDTH 27 0
BBX 25 45 1 -11
BITMAP
FF800000
1F800000
1F800000
1F800000
1F800000
1F800000
1F800000
1F800000
1F800000
1F800000
1F800000
1F800000
1F83FE00
1F80F000
1F806000
1F80C000
1F808000
1F818000
1F830000
1F860000
1F8E0000
1F9F0000
1FBF8000
1FBF8000
1FEFC000
1FC7E000
1F87E000
1F83F000
1F81F000
1F81F800
1F80FC00
1F80FC00
1F80FE00
FFF3FF80
00000000
001C0000
003E0000
003F0000
003F0000
001F0000
00070000
00060000
00060000
00180000
00200000
ENDCHAR
STARTCHAR 0138
ENCODING 312
SWIDTH 562 0
DWIDTH 27 0
BBX 25 22 1 0
BITMAP
FF83FE00
1F80F000
1F806000
1F80C000
1F808000
1F818000
1F830000
1F860000
1F8E0000
1F9F0000
1F9F8000
1FBF8000
1FEFC000
1FC7E000
1F87E000
1F83F000
1F81F800
1F81F800
1F80FC00
1F80FC00
1F80FE00
FFF3FF80
ENDCHAR
STARTCHAR 0139
ENCODING 313
SWIDTH 666 0
DWIDTH 32 0
BBX 28 45 3 0
BITMAP
000E0000
001E0000
003E0000
003C0000
00780000
00F00000
00E00000
01C00000
00000000
00000000
00000000
FFFF0000
07F00000
07F00000
07F00000
07F00000
07F00000
07F00000
07F00000
07F00000
07F00000
07F00000
07F00000
07F00000
07F00000
07F00000
07F00000
07F00000
07F00000
07F00000
07F00030
07F00030
07F00030
07F00070
07F00070
07F00070
07F000F0
07F000F0
07F000F0
07F001F0
07F003F0
07F003F0
07F007F0
FFFFFFF0
FFFFFFF0
ENDCHAR
STARTCHAR 013A
ENCODING 314
SWIDTH 312 0
DWIDTH 15 0
BBX 13 45 1 0
BITMAP
0070
00F8
00F8
01F0
03E0
0780
0700
0E00
0000
0000
0000
FF80
1F80
1F80
1F80
1F80
1F80
1F80
1F80
1F80
1F80
1F80
1F80
1F80
1F80
1F80
1F80
1F80
1F80
1F80
1F80
1F80
1F80
1F80
1F80
1F80
1F80
1F80
1F80
1F80
1F80
1F80
1F80
1F80
FFF0
ENDCHAR
STARTCHAR 013B
ENCODING 315
SWIDTH 666 0
DWIDTH 32 0
BBX 28 45 3 -11
BITMAP
FFFF0000
07F00000
07F00000
07F00000
07F00000
07F00000
07F00000
07F00000
07F00000
07F00000
07F00000
07F00000
07F00000
07F00000
07F00000
07F00000
07F00000
07F00000
07F00000
07F00030
07F00030
07F00030
07F00070
07F00070
07F00070
07F000F0
07F000F0
07F000F0
07F001F0
07F003F0
07F003F0
07F007F0
FFFFFFF0
FFFFFFF0
00000000
00070000
000F8000
000FC000
000FC000
0007C000
0001C000
00018000
00018000
00060000
000C0000
ENDCHAR
STARTCHAR 013C
ENCODING 316
SWIDTH 291 0
DWIDTH 14 0
BBX 12 45 1 -11
BITMAP
FF80
1F80
1F80
1F80
1F80
1F80
1F80
1F80
1F80
1F80
1F80
1F80
1F80
1F80
1F80
1F80
1F80
1F80
1F80
1F80
1F80
1F80
1F80
1F80
1F80
1F80
1F80
1F80
1F80
1F80
1F80
1F80
1F80
FFF0
0000
0E00
1F00
1F80
1F80
0F80
0380
0300
0200
0C00
1000
ENDCHAR
STARTCHAR 013D
ENCODING 317
SWIDTH 687 0
DWIDTH 33 0
BBX 30 34 3 1
BITMAP
FFFF01F0
07F003F8
07F003FC
07F001FC
07F0007C
07F0001C
07F00018
07F00018
07F00030
07F000E0
07F00180
07F00000
07F00000
07F00000
07F00000
07F00000
07F00000
07F00000
07F00000
07F00020
07F00020
07F00060
07F00060
07F00060
07F00060
07F000E0
07F000E0
07F001E0
07F001E0
07F003E0
07F007E0
07F00FE0
FFFFFFE0
FFFFFFE0
ENDCHAR
STARTCHAR 013E
ENCODING 318
SWIDTH 354 0
DWIDTH 17 0
BBX 17 34 1 1
BITMAP
FF9F00
1F9F00
1F9F80
1F9F80
1F8780
1F8180
1F8100
1F8300
1F8600
1F8C00
1F9000
1F8000
1F8000
1F8000
1F8000
1F8000
1F8000
1F8000
1F8000
1F8000
1F8000
1F8000
1F8000
1F8000
1F8000
1F8000
1F8000
1F8000
1F8000
1F8000
1F8000
1F8000
1F8000
FFF000
ENDCHAR
STARTCHAR 013F
ENCODING 319
SWIDTH 666 0
DWIDTH 32 0
BBX 27 34 3 0
BITMAP
FFFF0000
07F00000
07F00000
07F00000
07F00000
07F00000
07F00000
07F00000
07F00000
07F00000
07F003C0
07F007E0
07F007E0
07F007E0
07F007E0
07F003C0
07F00000
07F00000
07F00000
07F00020
07F00020
07F00060
07F00060
07F00060
07F00060
07F000E0
07F000E0
07F001E0
07F001E0
07F003E0
07F007E0
07F00FE0
FFFFFFE0
FFFFFFE0
ENDCHAR
STARTCHAR 0140
ENCODING 320
SWIDTH 395 0
DWIDTH 19 0
BBX 19 34 1 0
BITMAP
FF8000
1F8000
1F8000
1F8000
1F8000
1F8000
1F8000
1F8000
1F8000
1F8000
1F8000
1F8000
1F8000
1F8380
1F87C0
1F8FE0
1F8FE0
1F8FE0
1F87C0
1F8380
1F8000
1F8000
1F8000
1F8000
1F8000
1F8000
1F8000
1F8000
1F8000
1F8000
1F8000
1F8000
1F8000
FFF000
ENDCHAR
STARTCHAR 0141
ENCODING 321
SWIDTH 666 0
DWIDTH 32 0
BBX 28 34 3 0
BITMAP
FFFF0000
07F00000
07F00000
07F00000
07F00000
07F00000
07F00000
07F00000
07F00000
07F00000
07F00000
07F0C000
07F3C000
07FF0000
07FC0000
07F00000
07F00000
0FF00000
3FF00000
F7F00030
47F00030
07F00030
07F00070
07F00070
07F00070
07F000F0
07F000F0
07F000F0
07F001F0
07F003F0
07F003F0
07F007F0
FFFFFFF0
FFFFFFF0
ENDCHAR
STARTCHAR 0142
ENCODING 322
SWIDTH 291 0
DWIDTH 14 0
BBX 12 34 1 0
BITMAP
FF80
1F80
1F80
1F80
1F80
1F80
1F80
1F80
1F80
1F80
1F80
1F80
1F80
1FB0
1FE0
1F80
1F80
3F80
FF80
9F80
1F80
1F80
1F80
1F80
1F80
1F80
1F80
1F80
1F80
1F80
1F80
1F80
1F80
FFF0
ENDCHAR
STARTCHAR 0143
ENCODING 323
SWIDTH 770 0
DWIDTH 37 0
BBX 34 46 2 -1
BITMAP
0000070000
00000F8000
00000F8000
00001F0000
00003E0000
00003C0000
0000700000
0000E00000
0000400000
0000000000
0000000000
FFE00FFFC0
1FF003FF00
0FF000FC00
0FF8007800
07FC003000
03FE003000
03FE003000
03FF003000
03FF803000
03FF803000
037FC03000
033FE03000
031FE03000
031FF03000
030FF83000
0307F83000
0307FC3000
0303FE3000
0301FF3000
0301FF3000
0300FFB000
03007FF000
03007FF000
03003FF000
03001FF000
03000FF000
03000FF000
030007F000
030003F000
030003F000
078001F000
0FC000F000
3FF000F000
FFFC007000
0000003000
ENDCHAR
STARTCHAR 0144
ENCODING 324
SWIDTH 562 0
DWIDTH 27 0
BBX 23 34 2 0
BITMAP
000380
0003C0
0007C0
000FC0
000F80
001E00
003C00
003800
006000
000000
000000
000000
FF1FC0
3F23E0
3F41F0
3F41F8
3F81F8
3F81F8
3F01F8
3F01F8
3F01F8
3F01F8
3F01F8
3F01F8
3F01F8
3F01F8
3F01F8
3F01F8
3F01F8
3F01F8
3F01F8
3F01F8
3F01F8
FFC7FE
ENDCHAR
STARTCHAR 0145
ENCODING 325
SWIDTH 770 0
DWIDTH 37 0
BBX 34 45 2 -11
BITMAP
FFE00FFFC0
1FF003FF00
0FF000FC00
0FF8007800
07FC003000
03FE003000
03FE003000
03FF003000
03FF803000
03FF803000
037FC03000
033FE03000
031FE03000
031FF03000
030FF83000
0307F83000
0307FC3000
0303FE3000
0301FF3000
0301FF3000
0300FFB000
03007FF000
03003FF000
03003FF000
03001FF000
03000FF000
03000FF000
030007F000
030003F000
030001F000
078001F000
0FC000F000
3FF0007000
FFFC007000
0000003000
0000E00000
0001F00000
0001F80000
0001F80000
0000F80000
0000380000
0000300000
0000300000
0000C00000
0001000000
ENDCHAR
STARTCHAR 0146
ENCODING 326
SWIDTH 562 0
DWIDTH 27 0
BBX 23 33 2 -10
BITMAP
FF1FC0
3F23E0
3F41F0
3F41F8
3F81F8
3F81F8
3F01F8
3F01F8
3F01F8
3F01F8
3F01F8
3F01F8
3F01F8
3F01F8
3F01F8
3F01F8
3F01F8
3F01F8
3F01F8
3F01F8
3F01F8
FFC7FE
000000
007000
00F800
00FC00
00FC00
007C00
001C00
000800
001800
007000
00C000
ENDCHAR
STARTCHAR 0147
ENCODING 327
SWIDTH 770 0
DWIDTH 37 0
BBX 34 44 2 -1
BITMAP
003001C000
001C078000
000F0F0000
0007FE0000
0003FC0000
0001F80000
0000E00000
0000000000
0000000000
FFE00FFFC0
1FF003FF00
0FF000FC00
0FF8007800
07FC003000
03FE003000
03FE003000
03FF003000
03FF803000
03FF803000
037FC03000
033FE03000
031FE03000
031FF03000
030FF83000
0307F83000
0307FC3000
0303FE3000
0301FF3000
0301FF3000
0300FFB000
03007FF000
03007FF000
03003FF000
03001FF000
03000FF000
03000FF000
030007F000
030003F000
030003F000
078001F000
0FC000F000
3FF000F000
FFFC007000
0000003000
ENDCHAR
STARTCHAR 0148
ENCODING 328
SWIDTH 562 0
DWIDTH 27 0
BBX 23 33 2 0
BITMAP
080040
0600C0
070380
03C700
01FF00
00FE00
007C00
007800
000000
000000
000000
FF1FC0
3F23E0
3F41F0
3F41F8
3F81F8
3F81F8
3F01F8
3F01F8
3F01F8
3F01F8
3F01F8
3F01F8
3F01F8
3F01F8
3F01F8
3F01F8
3F01F8
3F01F8
3F01F8
3F01F8
3F01F8
FFC7FE
ENDCHAR
STARTCHAR 0149
ENCODING 329
SWIDTH 666 0
DWIDTH 32 0
BBX 30 34 1 1
BITMAP
F8000000
FC000000
FE000000
FE000000
3E000000
0E000000
0C000000
0C000000
18000000
30000000
60000000
C0000000
01FE3F80
007E47E0
007E83E0
007E83F0
007F03F0
007F03F0
007F03F0
007E03F0
007E03F0
007E03F0
007E03F0
007E03F0
007E03F0
007E03F0
007E03F0
007E03F0
007E03F0
007E03F0
007E03F0
007E03F0
007E03F0
01FF8FFC
ENDCHAR
STARTCHAR 014A
ENCODING 330
SWIDTH 770 0
DWIDTH 37 0
BBX 34 45 2 -11
BITMAP
FFE00FFFC0
1FF003FF00
0FF000FC00
0FF8007800
07FC003000
03FE003000
03FE003000
03FF003000
03FF803000
03FF803000
037FC03000
033FE03000
031FE03000
031FF03000
030FF83000
0307F83000
0307FC3000
0303FE3000
0301FF3000
0301FF3000
0300FFB000
03007FF000
03007FF000
03003FF000
03001FF000
03000FF000
03000FF000
030007F000
030003F000
030003F000
078001F000
0FC000F000
3FF000F000
FFFC007000
0000003000
0000003000
0000003000
0000003000
0000603000
0000F03000
0000F03000
0000F86000
0000F8E000
00007FC000
00001F0000
ENDCHAR
STARTCHAR 014B
ENCODING 331
SWIDTH 541 0
DWIDTH 26 0
BBX 21 33 2 -10
BITMAP
FF1FC0
3F23E0
3F41F0
3F41F8
3F81F8
3F81F8
3F01F8
3F01F8
3F01F8
3F01F8
3F01F8
3F01F8
3F01F8
3F01F8
3F01F8
3F01F8
3F01F8
3F01F8
3F01F8
3F01F8
3F01F8
FFC1F8
0001F8
0001F8
0001F8
0001F8
0001F8
0381F0
07C1F0
07C1E0
03C3C0
01E780
007E00
ENDCHAR
STARTCHAR 014C
ENCODING 332
SWIDTH 687 0
DWIDTH 33 0
BBX 28 42 3 0
BITMAP
00FFF800
00FFF800
00FFF800
00000000
00000000
00000000
00000000
00000000
003FC000
00E07000
03C03800
07801E00
0F801E00
0F000F00
1F000F80
3F000FC0
3F000FC0
7F000FC0
7F000FE0
7F000FE0
7F000FE0
FF000FF0
FF000FF0
FF000FF0
FF000FF0
FF000FF0
FF000FF0
FF000FF0
FF000FF0
7F000FE0
7F000FE0
7F000FE0
7F000FC0
3F000FC0
3F000FC0
1F000F80
0F000F00
0F801F00
07801E00
03C03C00
00E07000
003FC000
ENDCHAR
STARTCHAR 014D
ENCODING 333
SWIDTH 500 0
DWIDTH 24 0
BBX 20 31 2 0
BITMAP
0FFF00
0FFF00
0FFF00
000000
000000
000000
000000
000000
000000
03FC00
0F0F00
1E0780
3E07C0
3E07C0
7C03E0
7C03E0
FC03F0
FC03F0
FC03F0
FC03F0
FC03F0
FC03F0
FC03F0
FC03F0
7C03E0
7C03E0
3E07C0
3E07C0
1E0780
0F0F00
03FC00
ENDCHAR
STARTCHAR 014E
ENCODING 334
SWIDTH 687 0
DWIDTH 33 0
BBX 28 44 3 0
BITMAP
01000C00
01000C00
01801C00
00C03800
00E07800
007FF000
003FE000
000F8000
00000000
00000000
003FC000
00E07000
03C03800
07801E00
0F801E00
0F000F00
1F000F80
3F000FC0
3F000FC0
7F000FC0
7F000FE0
7F000FE0
7F000FE0
FF000FF0
FF000FF0
FF000FF0
FF000FF0
FF000FF0
FF000FF0
FF000FF0
FF000FF0
7F000FE0
7F000FE0
7F000FE0
7F000FC0
3F000FC0
3F000FC0
1F000F80
0F000F00
0F801F00
07801E00
03C03C00
00E07000
003FC000
ENDCHAR
STARTCHAR 014F
ENCODING 335
SWIDTH 500 0
DWIDTH 24 0
BBX 20 33 2 0
BITMAP
180180
180180
0C0300
0E0700
07FE00
03FC00
01F800
000000
000000
000000
000000
03FC00
0F0F00
1E0780
3E07C0
3E07C0
7C03E0
7C03E0
FC03F0
FC03F0
FC03F0
FC03F0
FC03F0
FC03F0
FC03F0
FC03F0
7C03E0
7C03E0
3E07C0
3E07C0
1E0780
0F0F00
03FC00
ENDCHAR
STARTCHAR 0150
ENCODING 336
SWIDTH 687 0
DWIDTH 33 0
BBX 28 45 3 1
BITMAP
00038F00
0007CF00
00079F00
000F9E00
000F3C00
001C7800
00387000
0030C000
00208000
00000000
00000000
003FC000
00E07000
03C03800
07801E00
0F801E00
0F000F00
1F000F80
3F000FC0
3F000FC0
7F000FC0
7F000FE0
7F000FE0
7F000FE0
FF000FF0
FF000FF0
FF000FF0
FF000FF0
FF000FF0
FF000FF0
FF000FF0
FF000FF0
7F000FE0
7F000FE0
7F000FE0
7F000FC0
3F000FC0
3F000FC0
1F000F80
0F000F00
0F801F00
07801E00
03C03C00
00E07000
003FC000
ENDCHAR
STARTCHAR 0151
ENCODING 337
SWIDTH 500 0
DWIDTH 24 0
BBX 20 34 2 0
BITMAP
003860
003CF0
007DF0
00F9F0
00F3E0
01E380
03C700
038600
060C00
000000
000000
000000
03FC00
0F0F00
1E0780
3E07C0
3E07C0
7C03E0
7C03E0
FC03F0
FC03F0
FC03F0
FC03F0
FC03F0
FC03F0
FC03F0
FC03F0
7C03E0
7C03E0
3E07C0
3E07C0
1E0780
0F0F00
03FC00
ENDCHAR
STARTCHAR 0152
ENCODING 338
SWIDTH 1000 0
DWIDTH 48 0
BBX 43 34 3 1
BITMAP
003FFFFFFFE0
00E07FE01FE0
03C03FE007E0
07801FE003E0
0F801FE001E0
0F000FE001E0
1F000FE000E0
3F000FE000E0
3F000FE00060
7F000FE03060
7F000FE03060
7F000FE03000
FF000FE07000
FF000FE07000
FF000FE0F000
FF000FE1F000
FF000FFFF000
FF000FE1F000
FF000FE0F000
FF000FE07000
FF000FE07040
FF000FE03060
7F000FE03060
7F000FE03060
7F000FE00060
3F000FE000E0
3F000FE000E0
1F000FE000E0
0F000FE001E0
0F801FE003E0
07801FE003E0
03C03FE00FE0
00E07FFFFFE0
007FFFFFFFE0
ENDCHAR
STARTCHAR 0153
ENCODING 339
SWIDTH 729 0
DWIDTH 35 0
BBX 31 23 2 0
BITMAP
00400000
03FC3FC0
0F1E70F0
1E0FF0F8
3E0FE0F8
3C0FE07C
7C07E07C
7C07E07E
FC07E07E
FC07E07E
FC07E07E
FC07FFFE
FC07E000
FC07E000
FC07E000
FC07E002
7C07E002
7C07E006
3C0FF004
3E0FF00C
1E0EF008
0F1E3810
03F81FE0
ENDCHAR
STARTCHAR 0154
ENCODING 340
SWIDTH 750 0
DWIDTH 36 0
BBX 32 47 3 -2
BITMAP
00006000
0000F000
0001F000
0003E000
0003C000
00078000
00070000
000C0000
00080000
00000000
00000000
FFFFF000
07F07E00
07F03F00
07F03F80
07F01FC0
07F01FC0
07F01FE0
07F01FE0
07F01FE0
07F01FE0
07F01FE0
07F01FC0
07F03FC0
07F03F00
07F07E00
07FFF000
07F0F000
07F03E00
07F03F00
07F01F80
07F01F80
07F01FC0
07F01FC0
07F01FC0
07F01FC0
07F01FC3
07F01FC3
07F01FC3
07F01FC3
07F01FC3
07F01FC6
07F01FC6
07F00FEE
FFFF87FC
000003F8
00000060
ENDCHAR
STARTCHAR 0155
ENCODING 341
SWIDTH 416 0
DWIDTH 20 0
BBX 17 34 2 0
BITMAP
000E00
001F00
001F00
003E00
003C00
007800
00F000
00E000
018000
000000
000000
000000
FF1F00
3F3F80
3F4F80
3F4F80
3F9F80
3F9F80
3F9F00
3F0E00
3F0000
3F0000
3F0000
3F0000
3F0000
3F0000
3F0000
3F0000
3F0000
3F0000
3F0000
3F0000
3F0000
FFC000
ENDCHAR
STARTCHAR 0156
ENCODING 342
SWIDTH 750 0
DWIDTH 36 0
BBX 32 45 3 -11
BITMAP
FFFFF000
07F07E00
07F03F00
07F01F80
07F01FC0
07F01FC0
07F01FE0
07F01FE0
07F01FE0
07F01FE0
07F01FE0
07F01FC0
07F03FC0
07F03F00
07F07E00
07FFF000
07F0F000
07F03E00
07F03F00
07F01F80
07F01F80
07F01FC0
07F01FC0
07F01FC0
07F01FC0
07F01FC3
07F01FC3
07F01FC3
07F01FC3
07F01FC3
07F01FC6
07F00FC6
07F00FEE
FFFF87FC
000001F0
00038000
0007C000
0007E000
0007E000
0003E000
0000E000
0000C000
0000C000
00038000
00060000
ENDCHAR
STARTCHAR 0157
ENCODING 343
SWIDTH 416 0
DWIDTH 20 0
BBX 17 33 2 -10
BITMAP
FF1F00
3F3F80
3F6F80
3F4F80
3F9F80
3F9F80
3F9F00
3F0E00
3F0000
3F0000
3F0000
3F0000
3F0000
3F0000
3F0000
3F0000
3F0000
3F0000
3F0000
3F0000
3F0000
FFC000
000000
1C0000
3E0000
3F0000
3F0000
1F0000
070000
060000
060000
180000
200000
ENDCHAR
STARTCHAR 0158
ENCODING 344
SWIDTH 750 0
DWIDTH 36 0
BBX 32 45 3 -2
BITMAP
03003000
01C07000
00E1E000
007FC000
003F8000
001F0000
000E0000
00000000
00000000
FFFFF000
07F07E00
07F03F00
07F03F80
07F01FC0
07F01FC0
07F01FE0
07F01FE0
07F01FE0
07F01FE0
07F01FE0
07F01FC0
07F03FC0
07F03F00
07F07E00
07FFF000
07F0F000
07F03E00
07F03F00
07F01F80
07F01F80
07F01FC0
07F01FC0
07F01FC0
07F01FC0
07F01FC3
07F01FC3
07F01FC3
07F01FC3
07F01FC3
07F01FC6
07F01FC6
07F00FEE
FFFF87FC
000003F8
00000060
ENDCHAR
STARTCHAR 0159
ENCODING 345
SWIDTH 416 0
DWIDTH 20 0
BBX 17 33 2 0
BITMAP
200100
380600
1C0E00
0F1C00
07F800
03F000
01F000
00E000
000000
000000
000000
FF1F00
3F3F80
3F4F80
3F4F80
3F9F80
3F9F80
3F9F00
3F0E00
3F0000
3F0000
3F0000
3F0000
3F0000
3F0000
3F0000
3F0000
3F0000
3F0000
3F0000
3F0000
3F0000
FFC000
ENDCHAR
STARTCHAR 015A
ENCODING 346
SWIDTH 604 0
DWIDTH 29 0
BBX 23 45 4 0
BITMAP
000700
000780
000F80
001F00
001E00
003C00
007800
006000
004000
000000
000000
07FC18
180F18
3803F8
7001F8
7000F8
F00078
F80078
F80038
FC0018
FE0018
FF8018
7FE008
7FF000
3FFC00
3FFE00
1FFF80
07FFC0
03FFF0
00FFF8
807FF8
C01FFC
C007FC
C003FE
E000FE
E0007E
F0003E
F0001E
F8001E
F8001C
FC001C
FE0038
CF0030
C3C0E0
C1FF80
ENDCHAR
STARTCHAR 015B
ENCODING 347
SWIDTH 437 0
DWIDTH 21 0
BBX 16 34 3 0
BITMAP
0038
007C
007C
00F8
00F0
01E0
03C0
0380
0600
0000
0000
0000
1FC4
3074
603C
E01C
E01C
F00C
F804
FE04
7F80
7FE0
3FF0
1FFC
07FE
81FE
C07F
C01F
E00F
E007
F007
F806
CC0E
87F8
ENDCHAR
STARTCHAR 015C
ENCODING 348
SWIDTH 604 0
DWIDTH 29 0
BBX 23 45 4 0
BITMAP
006000
00E000
00F000
01F800
03FC00
079E00
0E0F00
3C0380
2000C0
000000
000000
07FC18
180F18
3803F8
7001F8
7000F8
F00078
F80078
F80038
FC0018
FE0018
FF8018
FFE008
7FF000
7FFC00
3FFE00
1FFF80
0FFFC0
03FFF0
01FFF8
807FF8
C01FFC
C00FFC
C003FE
E001FE
E0007E
E0003E
F0001E
F8001E
F8001C
FC001C
FE0018
EF0030
C38060
C1FF80
ENDCHAR
STARTCHAR 015D
ENCODING 349
SWIDTH 437 0
DWIDTH 21 0
BBX 16 34 3 0
BITMAP
0780
0780
07C0
0FC0
0FE0
1CE0
3870
7038
E00C
0000
0000
0000
1FC4
3074
603C
E01C
E01C
F00C
F804
FE04
7F80
7FE0
3FF0
1FFC
07FE
81FE
C07F
C01F
E00F
E007
F007
F806
CC0E
87F8
ENDCHAR
STARTCHAR 015E
ENCODING 350
SWIDTH 604 0
DWIDTH 29 0
BBX 23 45 4 -10
BITMAP
07FC18
180F18
3803F8
7001F8
7000F8
F00078
F80078
F80038
FC0018
FE0018
FF8018
FFE008
7FF000
7FFC00
3FFE00
1FFF80
0FFFC0
03FFF0
01FFF8
807FF8
C01FFC
C00FFC
C003FE
E001FE
E0007E
E0003E
F0001E
F8001E
F8001C
FC001C
FE0018
EF0030
C38060
C1FF80
003000
002000
003800
007E00
000F00
000780
000780
000780
020700
038F00
00FC00
ENDCHAR
STARTCHAR 015F
ENCODING 351
SWIDTH 437 0
DWIDTH 21 0
BBX 16 32 3 -9
BITMAP
1FC4
3074
603C
E01C
E01C
F00C
F804
FE04
7F80
7FE0
3FF0
1FFC
07FE
81FE
C07F
C01F
E00F
E007
F007
F806
CC0C
87F8
8100
0100
0300
01E0
00F0
0078
0078
0078
18F0
0FE0
ENDCHAR
STARTCHAR 0160
ENCODING 352
SWIDTH 604 0
DWIDTH 29 0
BBX 23 44 4 0
BITMAP
300080
380380
1E0700
0F9E00
07FC00
01F800
00F000
006000
000000
000000
07FC18
180F18
3803F8
7001F8
7000F8
F00078
F80078
F80038
FC0018
FE0018
FF8018
FFE008
7FF000
7FFC00
3FFE00
1FFF80
0FFFC0
03FFF0
01FFF8
807FF8
C01FFC
C00FFC
C003FE
E001FE
E0007E
E0003E
F0001E
F8001E
F8001C
FC001C
FE0018
EF0030
C38060
C1FF80
ENDCHAR
STARTCHAR 0161
ENCODING 353
SWIDTH 437 0
DWIDTH 21 0
BBX 16 33 3 0
BITMAP
4004
6018
3038
1C70
1FE0
0FC0
0780
0380
0000
0000
0000
1FC4
3074
603C
E01C
E01C
F00C
F804
FE04
7F80
7FE0
3FF0
1FFC
07FE
81FE
C07F
C01F
E00F
E007
F007
F806
CC0E
87F8
ENDCHAR
STARTCHAR 0162
ENCODING 354
SWIDTH 708 0
DWIDTH 34 0
BBX 29 45 3 -11
BITMAP
FFFFFFF8
FF3FE7F8
FC1FC1F8
F81FC0F8
F81FC0F8
F01FC078
E01FC038
E01FC038
E01FC038
C01FC018
C01FC018
C01FC018
C01FC018
801FC008
001FC000
001FC000
001FC000
001FC000
001FC000
001FC000
001FC000
001FC000
001FC000
001FC000
001FC000
001FC000
001FC000
001FC000
001FC000
001FC000
001FC000
001FC000
001FC000
03FFFE00
00060000
00060000
00060000
0007C000
0001E000
0000F000
0000F000
0000F000
0000F000
0071E000
001F8000
ENDCHAR
STARTCHAR 0163
ENCODING 355
SWIDTH 354 0
DWIDTH 17 0
BBX 15 42 1 -10
BITMAP
0180
0180
0180
0180
0180
0380
0380
0780
0F80
3F80
FFFC
1F80
1F80
1F80
1F80
1F80
1F80
1F80
1F80
1F80
1F80
1F80
1F82
1F82
1F82
1F82
1F82
1F86
1F84
0FC4
0FF8
03F8
00C0
0080
0080
0070
0038
003C
003C
003C
0FF8
03F0
ENDCHAR
STARTCHAR 0164
ENCODING 356
SWIDTH 708 0
DWIDTH 34 0
BBX 29 43 3 0
BITMAP
01800C00
00E03800
0078F000
003DE000
001FC000
000F8000
00070000
00000000
00000000
FFFFFFF8
FF3FE7F8
FC1FC1F8
F81FC0F8
F81FC0F8
F01FC078
E01FC038
E01FC038
E01FC038
C01FC018
C01FC018
C01FC018
C01FC018
801FC008
001FC000
001FC000
001FC000
001FC000
001FC000
001FC000
001FC000
001FC000
001FC000
001FC000
001FC000
001FC000
001FC000
001FC000
001FC000
001FC000
001FC000
001FC000
001FC000
03FFFE00
ENDCHAR
STARTCHAR 0165
ENCODING 357
SWIDTH 375 0
DWIDTH 18 0
BBX 18 34 1 1
BITMAP
000F80
000FC0
000FC0
018FC0
0183C0
0180C0
0180C0
038180
038100
078600
0F8C00
3F8000
FFF800
1F8000
1F8000
1F8000
1F8000
1F8000
1F8000
1F8000
1F8000
1F8000
1F8000
1F8000
1F8200
1F8200
1F8200
1F8200
1F8600
1F8600
1F8400
0FC400
0FF800
07F000
ENDCHAR
STARTCHAR 0166
ENCODING 358
SWIDTH 729 0
DWIDTH 35 0
BBX 29 34 4 0
BITMAP
FFFFFFF8
FF3FE7F8
FC1FC1F8
F81FC0F8
F01FC0F8
F01FC078
E01FC078
E01FC038
C01FC038
C01FC038
C01FC018
C01FC018
801FC018
801FC018
801FC018
001FC000
0FFFFF00
001FC000
001FC000
001FC000
001FC000
001FC000
001FC000
001FC000
001FC000
001FC000
001FC000
001FC000
001FC000
001FC000
001FC000
001FC000
001FC000
03FFFE00
ENDCHAR
STARTCHAR 0167
ENCODING 359
SWIDTH 354 0
DWIDTH 17 0
BBX 15 32 1 0
BITMAP
0180
0180
0180
0180
0180
0380
0380
0780
0F80
3F80
FFF8
1F80
1F80
1F80
1F80
FFF8
1F80
1F80
1F80
1F80
1F80
1F82
1F82
1F82
1F82
1F82
1F86
1F84
1F84
0FCC
0FF8
07F0
ENDCHAR
STARTCHAR 0168
ENCODING 360
SWIDTH 791 0
DWIDTH 38 0
BBX 33 44 3 0
BITMAP
0000010000
000FC10000
001FFF0000
003FFE0000
0020FC0000
0000000000
0000000000
0000000000
0000000000
0000000000
FFFF07FF80
0FE001FE00
0FE0007800
0FE0003000
0FE0003000
0FE0003000
0FE0003000
0FE0003000
0FE0003000
0FE0003000
0FE0003000
0FE0003000
0FE0003000
0FE0003000
0FE0003000
0FE0003000
0FE0003000
0FE0003000
0FE0003000
0FE0003000
0FE0003000
0FE0003000
0FE0003000
0FE0003000
0FE0003000
0FE0003000
07E0003000
07E0006000
07F0006000
03F000C000
01F801C000
00FC038000
007F9F0000
001FFC0000
ENDCHAR
STARTCHAR 0169
ENCODING 361
SWIDTH 541 0
DWIDTH 26 0
BBX 24 32 1 0
BITMAP
01E040
07F8C0
07FF80
0C7F80
080F00
000000
000000
000000
000000
000000
FF8FF8
1F81F8
1F81F8
1F81F8
1F81F8
1F81F8
1F81F8
1F81F8
1F81F8
1F81F8
1F81F8
1F81F8
1F81F8
1F81F8
1F81F8
1F81F8
1F83F8
1F83F8
1F85F8
0F85F8
0FC9F8
07F1FF
ENDCHAR
STARTCHAR 016A
ENCODING 362
SWIDTH 791 0
DWIDTH 38 0
BBX 33 42 3 0
BITMAP
001FFF0000
001FFF0000
001FFF0000
0000000000
0000000000
0000000000
0000000000
0000000000
FFFF07FF80
0FE001FE00
0FE0007800
0FE0003000
0FE0003000
0FE0003000
0FE0003000
0FE0003000
0FE0003000
0FE0003000
0FE0003000
0FE0003000
0FE0003000
0FE0003000
0FE0003000
0FE0003000
0FE0003000
0FE0003000
0FE0003000
0FE0003000
0FE0003000
0FE0003000
0FE0003000
0FE0003000
0FE0003000
0FE0003000
07E0003000
07E0006000
07F0006000
03F000C000
01F801C000
00FC038000
007F9F0000
001FFC0000
ENDCHAR
STARTCHAR 016B
ENCODING 363
SWIDTH 541 0
DWIDTH 26 0
BBX 24 31 1 0
BITMAP
07FF80
07FF80
07FF80
000000
000000
000000
000000
000000
000000
FF8FF8
1F81F8
1F81F8
1F81F8
1F81F8
1F81F8
1F81F8
1F81F8
1F81F8
1F81F8
1F81F8
1F81F8
1F81F8
1F81F8
1F81F8
1F81F8
1F83F8
1F83F8
1F85F8
0F85F8
0FC9F8
07F1FF
ENDCHAR
STARTCHAR 016C
ENCODING 364
SWIDTH 791 0
DWIDTH 38 0
BBX 33 44 3 0
BITMAP
0020018000
0020018000
0030038000
0018030000
001C0F0000
000FFE0000
0007FC0000
0001F00000
0000000000
0000000000
FFFF07FF80
0FE001FE00
0FE0007800
0FE0003000
0FE0003000
0FE0003000
0FE0003000
0FE0003000
0FE0003000
0FE0003000
0FE0003000
0FE0003000
0FE0003000
0FE0003000
0FE0003000
0FE0003000
0FE0003000
0FE0003000
0FE0003000
0FE0003000
0FE0003000
0FE0003000
0FE0003000
0FE0003000
0FE0003000
0FE0003000
07E0003000
07E0006000
07F0006000
03F000C000
01F801C000
00FC038000
007F9F0000
001FFC0000
ENDCHAR
STARTCHAR 016D
ENCODING 365
SWIDTH 541 0
DWIDTH 26 0
BBX 24 33 1 0
BITMAP
0400C0
060080
060180
038380
03FF00
01FE00
007C00
000000
000000
000000
000000
FF8FF8
1F81F8
1F81F8
1F81F8
1F81F8
1F81F8
1F81F8
1F81F8
1F81F8
1F81F8
1F81F8
1F81F8
1F81F8
1F81F8
1F81F8
1F81F8
1F83F8
1F83F8
1F85F8
0F85F8
0FC9F8
07F1FF
ENDCHAR
STARTCHAR 016E
ENCODING 366
SWIDTH 791 0
DWIDTH 38 0
BBX 33 45 3 0
BITMAP
0001F00000
0007FC0000
000E0E0000
000C060000
000C060000
000C060000
000E1E0000
0007FC0000
0001F00000
0000000000
0000000000
FFFF07FF80
0FE001FE00
0FE0007800
0FE0003000
0FE0003000
0FE0003000
0FE0003000
0FE0003000
0FE0003000
0FE0003000
0FE0003000
0FE0003000
0FE0003000
0FE0003000
0FE0003000
0FE0003000
0FE0003000
0FE0003000
0FE0003000
0FE0003000
0FE0003000
0FE0003000
0FE0003000
0FE0003000
0FE0003000
0FE0003000
07E0003000
07E0006000
07F0006000
03F000C000
01F801C000
00FC038000
007F9F0000
001FFC0000
ENDCHAR
STARTCHAR 016F
ENCODING 367
SWIDTH 541 0
DWIDTH 26 0
BBX 24 34 1 1
BITMAP
00FC00
01FE00
038700
030300
030300
030300
018700
01FE00
007800
000000
000000
000000
FF8FF8
1F81F8
1F81F8
1F81F8
1F81F8
1F81F8
1F81F8
1F81F8
1F81F8
1F81F8
1F81F8
1F81F8
1F81F8
1F81F8
1F81F8
1F81F8
1F83F8
1F83F8
1F85F8
0F85F8
0FC9F8
07F1FF
ENDCHAR
STARTCHAR 0170
ENCODING 368
SWIDTH 791 0
DWIDTH 38 0
BBX 33 45 3 1
BITMAP
000078E000
000079E000
0000FBE000
0001F3C000
0001E78000
0003C70000
00030E0000
00060C0000
0000000000
0000000000
0000000000
FFFF07FF80
0FE001FE00
0FE0007800
0FE0003000
0FE0003000
0FE0003000
0FE0003000
0FE0003000
0FE0003000
0FE0003000
0FE0003000
0FE0003000
0FE0003000
0FE0003000
0FE0003000
0FE0003000
0FE0003000
0FE0003000
0FE0003000
0FE0003000
0FE0003000
0FE0003000
0FE0003000
0FE0003000
0FE0003000
0FE0003000
07E0003000
07E0006000
07F0006000
03F000C000
01F801C000
00FC038000
007F9F0000
001FFC0000
ENDCHAR
STARTCHAR 0171
ENCODING 369
SWIDTH 541 0
DWIDTH 26 0
BBX 24 34 1 0
BITMAP
000C38
001E78
003E78
003CF8
0079F0
0071E0
00E380
00C300
018600
000000
000000
000000
FF8FF8
1F81F8
1F81F8
1F81F8
1F81F8
1F81F8
1F81F8
1F81F8
1F81F8
1F81F8
1F81F8
1F81F8
1F81F8
1F81F8
1F81F8
1F81F8
1F83F8
1F83F8
1F83F8
0F85F8
0FC9F8
03F1FF
ENDCHAR
STARTCHAR 0172
ENCODING 370
SWIDTH 791 0
DWIDTH 38 0
BBX 33 45 3 -11
BITMAP
FFFF07FF80
0FE001FE00
0FE0007800
0FE0003000
0FE0003000
0FE0003000
0FE0003000
0FE0003000
0FE0003000
0FE0003000
0FE0003000
0FE0003000
0FE0003000
0FE0003000
0FE0003000
0FE0003000
0FE0003000
0FE0003000
0FE0003000
0FE0003000
0FE0003000
0FE0003000
0FE0003000
0FE0003000
0FE0003000
0FE0003000
07E0003000
07E0006000
07F0006000
03F000C000
01F801C000
00FC038000
007F9F0000
001FFC0000
0000380000
0000700000
0000E00000
0001C00000
0003C00000
0003C00000
0003C00000
0003C20000
0003FE0000
0001FC0000
0000F80000
ENDCHAR
STARTCHAR 0173
ENCODING 371
SWIDTH 541 0
DWIDTH 26 0
BBX 25 33 1 -11
BITMAP
FF8FF800
1F81F800
1F81F800
1F81F800
1F81F800
1F81F800
1F81F800
1F81F800
1F81F800
1F81F800
1F81F800
1F81F800
1F81F800
1F81F800
1F81F800
1F81F800
1F83F800
1F83F800
1F85F800
0F85F800
0FC9F800
07F1FF00
00000C00
00001800
00003000
00007000
00006000
0000E000
0000E000
0000E180
0000FF00
00007E00
00003C00
ENDCHAR
STARTCHAR 0174
ENCODING 372
SWIDTH 1083 0
DWIDTH 52 0
BBX 49 45 2 0
BITMAP
000000E0000000
000000E0000000
000001F0000000
000003F8000000
000007FC000000
00000F1E000000
00001C07000000
00003001C00000
00000000000000
00000000000000
00000000000000
FFFF3FFFCFFF80
1FFC07FE00FC00
07F803FC007000
07F801FC007000
03F801FE006000
03FC01FE006000
03FC00FE006000
01FC00FE00C000
01FE01FF00C000
01FE01FF00C000
00FE01FF018000
00FF037F818000
00FF033F818000
007F033F818000
007F873FC30000
007F861FC30000
003F861FC30000
003FC61FE70000
001FCC0FE60000
001FCC0FE60000
001FEC0FF60000
000FF807FC0000
000FF807FC0000
000FF807FC0000
0007F803FC0000
0007F003F80000
0007F003F80000
0003F001F80000
0003E001F00000
0003E001F00000
0001E000F00000
0001C000F00000
0001C000E00000
0000C000600000
ENDCHAR
STARTCHAR 0175
ENCODING 373
SWIDTH 770 0
DWIDTH 37 0
BBX 35 35 1 -1
BITMAP
0000700000
0000F80000
0000F80000
0001F80000
0001FC0000
00039E0000
00070F0000
000E038000
000C018000
0000000000
0000000000
0000000000
FFE7FF1FE0
3F81FC0780
1F80FC0300
0F80FC0200
0FC07C0200
0FC07C0600
07C07E0400
07E0FE0400
03E0BF0C00
03E0BF0800
03F19F1800
01F11F9000
01F11F9000
01FB1FB000
00FA0FE000
00FA0FE000
00FE0FE000
007C07C000
007C07C000
003C07C000
0038038000
0038038000
0018030000
ENDCHAR
STARTCHAR 0176
ENCODING 374
SWIDTH 729 0
DWIDTH 35 0
BBX 32 44 2 0
BITMAP
0000E000
0001E000
0003F000
0007F800
000F3C00
001E0E00
00780380
00400080
00000000
00000000
FFFE0FFF
1FF801F8
0FF800F0
07F800E0
07F800C0
03FC00C0
03FC00C0
01FE0180
01FE0180
00FE0300
00FF0300
00FF0300
007F8600
007F8600
003FCC00
003FCC00
001FEC00
001FF800
000FF800
000FF000
0007F000
0007F000
0007F000
0007F000
0007F000
0007F000
0007F000
0007F000
0007F000
0007F000
0007F000
0007F000
00FFFF00
00FFFF00
ENDCHAR
STARTCHAR 0177
ENCODING 375
SWIDTH 520 0
DWIDTH 25 0
BBX 23 45 1 -11
BITMAP
001C00
003C00
003E00
007E00
007F00
00F780
01C380
0380E0
070060
000000
000000
000000
FFF1FE
3FC078
1F8030
0FC020
0FC020
0FC060
07E040
07E040
03F0C0
03F080
01F880
01F980
00F900
00FD00
00FD00
007E00
007E00
003E00
003C00
001C00
001C00
000C00
000800
000800
000800
0F1000
1F1000
3F9000
3F2000
3E2000
3E4000
1FC000
0F0000
ENDCHAR
STARTCHAR 0178
ENCODING 376
SWIDTH 729 0
DWIDTH 35 0
BBX 32 43 2 0
BITMAP
003C0F00
007E1F80
007E1F80
007E1F80
007E1F80
003C0F00
00000000
00000000
00000000
FFFE0FFF
1FF801F8
0FF800F0
07F800E0
07F800C0
03FC00C0
03FC00C0
01FC0180
01FE0180
00FE0300
00FF0300
00FF0300
007F8600
007F8600
003F8C00
003FCC00
001FCC00
001FF800
000FF800
000FF800
0007F000
0007F000
0007F000
0007F000
0007F000
0007F000
0007F000
0007F000
0007F000
0007F000
0007F000
0007F000
0007F000
00FFFF00
ENDCHAR
STARTCHAR 0179
ENCODING 377
SWIDTH 645 0
DWIDTH 31 0
BBX 25 45 3 0
BITMAP
00007000
0000F000
0001F000
0001F000
0003E000
00078000
00070000
000C0000
00080000
00000000
00000000
7FFFFF80
7F807F80
7E00FF00
7C00FF00
7801FE00
7803FE00
7003FC00
7007FC00
6007F800
600FF800
600FF000
401FE000
001FE000
003FC000
003FC000
007F8000
007F8000
00FF0000
00FF0000
01FE0000
03FE0080
03FC0080
07F80080
07F80080
0FF00180
0FF00180
1FE00380
1FE00380
3FC00780
3FC00F80
7F801F80
7F803F80
FFFFFF80
FFFFFF80
ENDCHAR
STARTCHAR 017A
ENCODING 378
SWIDTH 458 0
DWIDTH 22 0
BBX 18 34 2 0
BITMAP
000700
000F00
001F00
001F00
003E00
007C00
007000
00E000
01C000
000000
000000
000000
7FFFC0
7C0FC0
781F80
703F00
603F00
607E00
407E00
40FC00
01F800
01F800
03F000
03F000
07E040
0FC040
0FC040
1F80C0
1F00C0
3F01C0
7E01C0
7E03C0
FC0FC0
FFFFC0
ENDCHAR
STARTCHAR 017B
ENCODING 379
SWIDTH 645 0
DWIDTH 31 0
BBX 25 43 3 0
BITMAP
001E0000
003F0000
003F0000
003F0000
003F0000
001E0000
00000000
00000000
00000000
7FFFFF80
7F80FF80
7E00FF00
7C01FF00
7801FE00
7803FE00
7003FC00
6007FC00
6007F800
600FF800
600FF000
401FE000
003FE000
003FC000
007FC000
007F8000
00FF8000
00FF0000
01FF0000
01FE0000
03FE0080
03FC0080
07F80080
07F80180
0FF00180
0FF00180
1FE00380
1FE00380
3FC00780
3FC00F80
7F801F80
7F803F80
FFFFFF80
FFFFFF80
ENDCHAR
STARTCHAR 017C
ENCODING 380
SWIDTH 458 0
DWIDTH 22 0
BBX 18 33 2 0
BITMAP
00E000
01F000
03F800
03F800
03F800
01F000
00E000
000000
000000
000000
000000
7FFFC0
7C1FC0
781F80
703F00
603F00
607E00
40FE00
40FC00
01F800
01F800
03F000
07F000
07E040
0FC040
0FC040
1F80C0
1F00C0
3F01C0
7E01C0
7E03C0
FC0FC0
FFFFC0
ENDCHAR
STARTCHAR 017D
ENCODING 381
SWIDTH 645 0
DWIDTH 31 0
BBX 25 43 3 0
BITMAP
07001800
03C07000
01E1E000
00FFC000
007F8000
003F0000
000E0000
00000000
00000000
7FFFFF80
7F807F80
7E00FF00
7C00FF00
7801FE00
7803FE00
7003FC00
7007FC00
6007F800
600FF800
600FF000
401FE000
001FE000
003FC000
003FC000
007F8000
007F8000
00FF0000
00FF0000
01FE0000
03FE0080
03FC0080
07F80080
07F80080
0FF00180
0FF00180
1FE00380
1FE00380
3FC00780
3FC00F80
7F801F80
7F803F80
FFFFFF80
FFFFFF80
ENDCHAR
STARTCHAR 017E
ENCODING 382
SWIDTH 458 0
DWIDTH 22 0
BBX 18 33 2 0
BITMAP
100180
180300
0E0E00
071C00
03BC00
03F800
01F000
00E000
000000
000000
000000
7FFFC0
7C0FC0
781F80
703F00
603F00
607E00
407E00
40FC00
01F800
01F800
03F000
03F000
07E040
0FC040
0FC040
1F80C0
1F00C0
3F01C0
7E01C0
7E03C0
FC0FC0
FFFFC0
ENDCHAR
STARTCHAR 017F
ENCODING 383
SWIDTH 333 0
DWIDTH 16 0
BBX 18 34 1 1
BITMAP
00FF00
03C780
07C780
0787C0
0F8FC0
0F8FC0
1F8FC0
1F8F80
1F8200
1F8000
1F8000
1F8000
1F8000
1F8000
1F8000
1F8000
1F8000
1F8000
1F8000
1F8000
1F8000
1F8000
1F8000
1F8000
1F8000
1F8000
1F8000
1F8000
1F8000
1F8000
1F8000
1F8000
1F8000
FFF000
ENDCHAR
STARTCHAR 0180
ENCODING 384
SWIDTH 520 0
DWIDTH 25 0
BBX 22 34 1 0
BITMAP
FF8000
1F8000
1F8000
1F8000
1F8000
1F8000
FFFF80
1F8000
1F8000
1F8000
1F8000
1F8000
1F9F80
1FB3E0
1FE1F0
1FC1F0
1FC0F8
1FC0F8
1FC0F8
1F80FC
1F80FC
1F80FC
1F80FC
1F80FC
1F80FC
1F80FC
1F80FC
1FC0F8
1FC0F8
1FC0F8
1DC1F0
18E1E0
1863C0
103F80
ENDCHAR
STARTCHAR 0186
ENCODING 390
SWIDTH 645 0
DWIDTH 31 0
BBX 26 34 3 1
BITMAP
01FF8000
0701E000
0C00F000
18007800
30007C00
30007E00
60003E00
60003F00
60003F00
C0003F80
C0003F80
C0003F80
C0003FC0
00003FC0
00003FC0
00003FC0
00003FC0
00003FC0
00003FC0
60003FC0
60003FC0
60003FC0
60003F80
70003F80
70003F80
70003F00
78003F00
78003F00
7C003E00
7C007C00
7E007C00
7F00F800
6381E000
60FF8000
ENDCHAR
STARTCHAR 018E
ENCODING 398
SWIDTH 687 0
DWIDTH 33 0
BBX 28 34 4 0
BITMAP
FFFFFFF0
FF00FE00
FC00FE00
F800FE00
F000FE00
F000FE00
E000FE00
E000FE00
C000FE00
C180FE00
C180FE00
0180FE00
01C0FE00
01C0FE00
01E0FE00
01F0FE00
01FFFE00
01F0FE00
01E0FE00
01C0FE00
81C0FE00
8180FE00
C180FE00
C180FE00
C000FE00
C000FE00
E000FE00
E000FE00
F000FE00
F000FE00
F800FE00
FC00FE00
FFFFFFF0
FFFFFFF0
ENDCHAR
STARTCHAR 018F
ENCODING 399
SWIDTH 666 0
DWIDTH 32 0
BBX 27 34 3 1
BITMAP
00FFC000
0380F000
06007C00
0C007E00
18003E00
18003F00
30001F80
20001F80
60001FC0
60001FC0
40001FC0
00001FC0
00001FE0
00001FE0
00001FE0
00001FE0
FFFFFFE0
FF001FE0
FF001FE0
FF001FE0
FF001FE0
FF001FE0
7F001FC0
7F001FC0
7F001FC0
3F001F80
3F001F80
3F003F80
1F803F00
0F803E00
07C07C00
03C07800
01E0F000
007FC000
ENDCHAR
STARTCHAR 0190
ENCODING 400
SWIDTH 625 0
DWIDTH 30 0
BBX 25 34 3 1
BITMAP
01FFC300
07C0F700
0F803F00
1F801F00
3F001F00
7F000F00
7F000F00
7F000700
7F000700
7F000700
3F000300
3F800300
1F800000
0FC00000
03F00000
003FC000
01F00000
07C00000
1F800000
3F800000
7F800000
7F001E00
FF003F00
FF003F80
FF003F80
FF003F80
FF001F80
FF000F80
7F000F00
7F800700
3F800E00
1FC01C00
0FE03800
01FFE000
ENDCHAR
STARTCHAR 0192
ENCODING 402
SWIDTH 583 0
DWIDTH 28 0
BBX 27 42 -1 -7
BITMAP
00007F80
0000F1C0
0001E1C0
0003E3E0
0003C7E0
0007C7E0
0007C7E0
0007C7C0
000FC380
000FC000
000FC000
000FC000
03FFFE00
000F8000
000F8000
001F8000
001F8000
001F8000
001F8000
001F8000
001F8000
001F8000
001F8000
001F8000
001F0000
001F0000
001F0000
003F0000
003F0000
003F0000
003E0000
003E0000
003E0000
383E0000
7C3C0000
FC7C0000
FC780000
FC780000
F8F00000
78E00000
79C00000
1F800000
ENDCHAR
STARTCHAR 0195
ENCODING 405
SWIDTH 708 0
DWIDTH 34 0
BBX 31 34 1 0
BITMAP
FF800000
1F800000
1F800000
1F800000
1F800000
1F800000
1F800000
1F800000
1F800000
1F800000
1F800000
1F810000
1F8FE0F8
1F91F0F8
1FA0F8FC
1FA0FCFC
1FC0FCFC
1FC0FC7E
1FC0FC1E
1F80FC0E
1F80FC0E
1F80FC06
1F80FC06
1F80FC06
1F80FC06
1F80FC06
1F80FC06
1F80FC06
1F80FC04
1F80FC0C
1F80FC08
1F807E18
1F807F30
FFE01FE0
ENDCHAR
STARTCHAR 01A6
ENCODING 422
SWIDTH 729 0
DWIDTH 35 0
BBX 32 42 3 -8
BITMAP
FFFF0000
07F00000
07F00000
07F00000
07F00000
07F00000
07FFF000
07F0FE00
07F03F00
07F03F80
07F01FC0
07F01FC0
07F01FE0
07F01FE0
07F01FE0
07F01FE0
07F01FE0
07F01FC0
07F03FC0
07F03F00
07F07E00
07FFE000
07F0F000
07F03E00
07F03F00
07F01F80
07F01F80
07F01FC0
07F01FC0
07F01FC0
07F01FC0
07F01FC0
07F01FC0
FFFF1FC3
00001FC3
00001FC3
00001FC3
00001FC6
00000FC6
00000FFE
000007FC
000001F0
ENDCHAR
STARTCHAR 01B7
ENCODING 439
SWIDTH 645 0
DWIDTH 31 0
BBX 26 34 3 0
BITMAP
7FFFFF00
7FFFFF00
7FFFFE00
7FFFFC00
7FFFF800
7FFFF000
78006000
7000C000
60018000
60030000
40060000
400C0000
00180000
00300000
00FFC000
01E3F800
0100FC00
00007E00
00007F00
00007F80
08003F80
3E003FC0
7F003FC0
FF003FC0
FF003FC0
FF003FC0
FE003FC0
FC003F80
F8007F80
70007F00
7000FE00
3800FC00
1C03F800
07FFC000
ENDCHAR
STARTCHAR 01BF
ENCODING 447
SWIDTH 520 0
DWIDTH 25 0
BBX 22 34 1 -11
BITMAP
0387F0
0F9FF8
3FB1F8
FFA0FC
DFC0FC
1FC0FC
1FC0FC
1F80FC
1F80FC
1F80F8
1F81F8
1F81F0
1F81F0
1F81E0
1F81C0
1F83C0
1F8380
1F8700
1F8C00
1F9800
1FE000
1FC000
1F8000
1F8000
1F8000
1F8000
1F8000
1F8000
1F8000
1F8000
1E0000
380000
E00000
800000
ENDCHAR
STARTCHAR 01C4
ENCODING 452
SWIDTH 1437 0
DWIDTH 69 0
BBX 63 43 3 0
BITMAP
00000000001C0060
00000000000F01C0
0000000000078780
000000000003FF00
000000000001FE00
000000000000FC00
0000000000003800
0000000000000000
0000000000000000
FFFFF80001FFFFFE
0FE01F0001FE01FE
0FE0078001F803FC
0FE003E001F003FC
0FE001F001E007F8
0FE001F001E00FF8
0FE000F801C00FF0
0FE000FC01C01FF0
0FE000FC01801FE0
0FE000FE01803FE0
0FE000FE01803FC0
0FE000FE01007F80
0FE000FF00007F80
0FE000FF0000FF00
0FE000FF0000FF00
0FE000FF0001FE00
0FE000FF0001FE00
0FE000FF0003FC00
0FE000FF0003FC00
0FE000FF0007F800
0FE000FF000FF802
0FE000FE000FF002
0FE000FE001FE002
0FE000FE001FE002
0FE000FE003FC006
0FE000FC003FC006
0FE000FC007F800E
0FE000F8007F800E
0FE001F000FF001E
0FE001E000FF003E
0FE003C001FE007E
0FE00F8001FE00FE
FFFFFE0003FFFFFE
FFFFF80003FFFFFE
ENDCHAR
STARTCHAR 01C5
ENCODING 453
SWIDTH 1229 0
DWIDTH 59 0
BBX 54 34 3 0
BITMAP
FFFFF800000000
0FE01F00010018
0FE0078001C030
0FE003E000E0E0
0FE001F00071C0
0FE001F0003BC0
0FE000F8003F80
0FE000FC001F00
0FE000FC000E00
0FE000FE000000
0FE000FE000000
0FE000FE000000
0FE000FF07FFFC
0FE000FF07C0FC
0FE000FF0781F8
0FE000FF0703F0
0FE000FF0603F0
0FE000FF0607E0
0FE000FF0407E0
0FE000FF040FC0
0FE000FF001F80
0FE000FE001F80
0FE000FE003F00
0FE000FE003F00
0FE000FE007E00
0FE000FC00FC04
0FE000FC00FC04
0FE000F801F80C
0FE001F001F00C
0FE001E003F01C
0FE003C007E01C
0FE0078007E03C
0FE01E000FC0FC
FFFFF8000FFFFC
ENDCHAR
STARTCHAR 01C6
ENCODING 454
SWIDTH 979 0
DWIDTH 47 0
BBX 43 34 2 0
BITMAP
003FE0000000
0007E00800C0
0007E00C0180
0007E0070300
0007E0038F00
0007E003DE00
0007E001FC00
0007E000F800
0007E0007800
0007E0007000
0007E0000000
0007E0000000
07E7E03FFFE0
1F17E03E07C0
1E1FE03C0FC0
3E0FE0381F80
7E0FE0301F80
7C0FE0303F00
7C07E0203E00
FC07E0207E00
FC07E000FC00
FC07E000FC00
FC07E001F800
FC07E001F000
FC07E003F020
FC07E007E020
FC07E007E020
7C07E00FC060
7C0FE00F8060
7E0FE01F80E0
3E0FE03F00E0
1E1FE03F01E0
0F17E07E07E0
07E7FC7FFFE0
ENDCHAR
STARTCHAR 01C7
ENCODING 455
SWIDTH 1208 0
DWIDTH 58 0
BBX 54 34 3 0
BITMAP
FFFF000003FFFC
07F00000001FC0
07F00000001FC0
07F00000001FC0
07F00000001FC0
07F00000001FC0
07F00000001FC0
07F00000001FC0
07F00000001FC0
07F00000001FC0
07F00000001FC0
07F00000001FC0
07F00000001FC0
07F00000001FC0
07F00000001FC0
07F00000001FC0
07F00000001FC0
07F00000001FC0
07F00000001FC0
07F00020001FC0
07F00020001FC0
07F000603C1FC0
07F00060FC1FC0
07F00060FE1FC0
07F00061FE1FC0
07F000E1FE1FC0
07F000E1FC1FC0
07F001E1FC1FC0
07F001E1F01F80
07F003E0E01F80
07F003E0C01F00
07F00FE0603E00
FFFFFFE0303C00
FFFFFFE01FF000
ENDCHAR
STARTCHAR 01C8
ENCODING 456
SWIDTH 979 0
DWIDTH 47 0
BBX 41 46 3 -11
BITMAP
000000000400
FFFF00001F00
07F000003F80
07F000003F80
07F000003F80
07F000003F80
07F000001F00
07F000000400
07F000000000
07F000000000
07F000000000
07F000000000
07F000000000
07F00001FF80
07F000001F80
07F000001F80
07F000001F80
07F000001F80
07F000001F80
07F000001F80
07F000001F80
07F000301F80
07F000301F80
07F000701F80
07F000701F80
07F000701F80
07F000701F80
07F000F01F80
07F000F01F80
07F001F01F80
07F001F01F80
07F003F01F80
07F007F01F80
FFFFFFF01F80
FFFFFFF01F80
000000001F80
000000001F80
000000071F80
0000000F9F80
0000001F9F80
0000001F9F00
0000001F1F00
0000001E1F00
0000000E3E00
000000063C00
00000003F000
ENDCHAR
STARTCHAR 01C9
ENCODING 457
SWIDTH 625 0
DWIDTH 30 0
BBX 26 46 1 -11
BITMAP
00000200
FF800F80
1F801FC0
1F801FC0
1F801FC0
1F801FC0
1F800F80
1F800200
1F800000
1F800000
1F800000
1F800000
1F800000
1F81FF80
1F801F80
1F801F80
1F801F80
1F801F80
1F801F80
1F801F80
1F801F80
1F801F80
1F801F80
1F801F80
1F801F80
1F801F80
1F801F80
1F801F80
1F801F80
1F801F80
1F801F80
1F801F80
1F801F80
1F801F80
FFF01F80
00001F80
00001F80
00071F80
000F9F80
001F9F80
001F9F80
001F1F00
001E1F00
000E3E00
00063C00
0003F000
ENDCHAR
STARTCHAR 01CA
ENCODING 458
SWIDTH 1291 0
DWIDTH 62 0
BBX 59 34 2 0
BITMAP
FFE00FFFC01FFFE0
1FF003FF0000FE00
0FF000FC0000FE00
0FF800780000FE00
07FC00300000FE00
03FE00300000FE00
03FE00300000FE00
03FF00300000FE00
03FF80300000FE00
03FF80300000FE00
037FC0300000FE00
033FE0300000FE00
031FE0300000FE00
031FF0300000FE00
030FF8300000FE00
0307F8300000FE00
0307FC300000FE00
0303FE300000FE00
0301FF300000FE00
0300FF300000FE00
0300FFB00000FE00
03007FF001C0FE00
03003FF003E0FE00
03003FF007F0FE00
03001FF00FF0FE00
03000FF00FF0FE00
03000FF00FF0FE00
030007F00FE0FE00
030003F00F80FC00
030001F00F00FC00
078001F00600F800
0FC000F00301F000
3FF000700181E000
FFFC007000FF8000
ENDCHAR
STARTCHAR 01CB
ENCODING 459
SWIDTH 1062 0
DWIDTH 51 0
BBX 46 46 2 -11
BITMAP
000000000020
FFE00FFFC0F8
1FF003FF01FC
0FF000FC01FC
0FF8007801FC
07FC003001FC
03FC003000F8
03FE00300020
03FF00300000
03FF80300000
03FF80300000
037FC0300000
037FE0300000
033FE03007FC
031FF03000FC
030FF83000FC
030FF83000FC
0307FC3000FC
0303FE3000FC
0303FE3000FC
0301FF3000FC
0300FFB000FC
03007FB000FC
03007FF000FC
03003FF000FC
03001FF000FC
03001FF000FC
03000FF000FC
030007F000FC
030003F000FC
030003F000FC
078001F000FC
0FC000F000FC
3FF000F000FC
FFFC007000FC
0000003000FC
0000000000FC
0000000038FC
000000007CFC
00000000FCFC
00000000FCF8
00000000F8F8
00000000F8F8
0000000071F0
0000000031E0
000000001F80
ENDCHAR
STARTCHAR 01CC
ENCODING 460
SWIDTH 875 0
DWIDTH 42 0
BBX 37 46 2 -11
BITMAP
0000000040
00000001F0
00000003F8
00000003F8
00000003F8
00000003F8
00000001F0
0000000040
0000000000
0000000000
0000000000
0000000000
0000000000
FF1FC01FF0
3F23E003F0
3F41F003F0
3F41F803F0
3F81F803F0
3F81F803F0
3F01F803F0
3F01F803F0
3F01F803F0
3F01F803F0
3F01F803F0
3F01F803F0
3F01F803F0
3F01F803F0
3F01F803F0
3F01F803F0
3F01F803F0
3F01F803F0
3F01F803F0
3F01F803F0
3F01F803F0
FFC7FE03F0
00000003F0
00000003F0
000000E3F0
000001F3F0
000003F3F0
000003F3E0
000003E3E0
000003E3E0
000001C7C0
000000E780
0000007E00
ENDCHAR
STARTCHAR 01DD
ENCODING 477
SWIDTH 458 0
DWIDTH 22 0
BBX 18 22 2 1
BITMAP
0FF000
307C00
201E00
401F00
C01F00
C00F80
800F80
000FC0
000FC0
000FC0
FFFFC0
FC0FC0
FC0FC0
FC0FC0
FC0FC0
FC0F80
7C0F80
7C1F00
3E1F00
3E1E00
1E1C00
07F000
ENDCHAR
STARTCHAR 01E2
ENCODING 482
SWIDTH 1000 0
DWIDTH 48 0
BBX 45 41 1 0
BITMAP
000001FFF000
000001FFF000
000001FFF000
000000000000
000000000000
000000000000
000000000000
00007FFFFFF0
00001FF807F0
00000FF801F0
00000FF800F0
00001FF800F0
00001BF80070
00003BF80070
000033F80030
000073F80030
000063F80C30
0000E3F80C10
0000C3F80C00
0001C3F81C00
000183F81C00
000383F83C00
000303F87C00
000703FFFC00
000603F87C00
000E03F83C00
000C03F81C00
001C03F81C00
001803F80C18
003803F80C18
003FFFF80C18
006003F80038
00E003F80038
00C003F80038
01C003F80078
018003F80078
038003F800F8
078003F801F8
0F8003F803F8
FFF87FFFFFF8
FFF87FFFFFF8
ENDCHAR
STARTCHAR 01E3
ENCODING 483
SWIDTH 708 0
DWIDTH 34 0
BBX 29 31 2 0
BITMAP
007FF800
007FF800
007FF800
00000000
00000000
00000000
00000000
00000000
00000000
0FF0FF80
183FC3C0
383FC3E0
781F83F0
7C1F81F0
7E1F81F0
7E1F81F8
3E1F81F8
003F81F8
01FF81F8
071FFFF8
1E1F8000
3E1F8000
7C1F8000
7C1F8008
FC1F8008
FC1F8018
FC1FC010
FC1FC010
FE33C020
7F61F040
3FC0FF80
ENDCHAR
STARTCHAR 01EA
ENCODING 490
SWIDTH 687 0
DWIDTH 33 0
BBX 28 45 3 -10
BITMAP
003FC000
00E07000
03C03800
07801E00
0F801E00
0F000F00
1F000F80
3F000FC0
3F000FC0
7F000FC0
7F000FE0
7F000FE0
7F000FE0
FF000FF0
FF000FF0
FF000FF0
FF000FF0
FF000FF0
FF000FF0
FF000FF0
FF000FF0
7F000FF0
7F000FE0
7F000FE0
7F000FE0
3F000FC0
3F000FC0
1F000F80
0F001F00
0F801F00
07801E00
03C03C00
00E07000
007FE000
00070000
000C0000
00380000
00700000
00F00000
00F00000
00F00000
00F00000
00FFC000
007F8000
003E0000
ENDCHAR
STARTCHAR 01EB
ENCODING 491
SWIDTH 500 0
DWIDTH 24 0
BBX 20 33 2 -10
BITMAP
03FC00
0F0F00
1E0780
1E0780
3E07C0
7C03E0
7C03E0
7C03E0
FC03F0
FC03F0
FC03F0
FC03F0
FC03F0
FC03F0
FC03F0
7C03E0
7C03E0
7C07E0
3E07C0
1E0780
0E0700
070E00
01F800
006000
00C000
018000
030000
070000
070000
070C00
07F800
03F000
01E000
ENDCHAR
STARTCHAR 01EC
ENCODING 492
SWIDTH 687 0
DWIDTH 33 0
BBX 28 53 3 -11
BITMAP
00FFF800
00FFF800
00FFF800
00000000
00000000
00000000
00000000
00000000
003FC000
00E07000
03C03800
07801E00
0F801E00
0F000F00
1F000F80
3F000FC0
3F000FC0
7F000FC0
7F000FE0
7F000FE0
7F000FE0
FF000FF0
FF000FF0
FF000FF0
FF000FF0
FF000FF0
FF000FF0
FF000FF0
FF000FF0
7F000FF0
7F000FE0
7F000FE0
7F000FE0
3F000FC0
3F000FC0
1F000F80
0F001F00
0F801F00
07801E00
03C03C00
00E07000
007FE000
00070000
000C0000
00380000
00700000
00F00000
00F00000
00F00000
00F00000
00FFC000
007F8000
003E0000
ENDCHAR
STARTCHAR 01ED
ENCODING 493
SWIDTH 500 0
DWIDTH 24 0
BBX 20 41 2 -11
BITMAP
0FFF00
0FFF00
0FFF00
000000
000000
000000
000000
000000
03FC00
0F0F00
1E0780
1E0780
3E07C0
7C03E0
7C03E0
7C03E0
FC03F0
FC03F0
FC03F0
FC03F0
FC03F0
FC03F0
FC03F0
7C03E0
7C03E0
7C07E0
3E07C0
1E0780
0E0700
070E00
01F800
006000
00C000
018000
030000
070000
070000
070C00
07F800
03F000
01E000
ENDCHAR
STARTCHAR 01F0
ENCODING 496
SWIDTH 333 0
DWIDTH 16 0
BBX 17 44 -2 -11
BITMAP
180080
0C0180
060700
078E00
03FE00
01FC00
00F800
007000
000000
000000
000000
07FC00
00FC00
00FC00
00FC00
00FC00
00FC00
00FC00
00FC00
00FC00
00FC00
00FC00
00FC00
00FC00
00FC00
00FC00
00FC00
00FC00
00FC00
00FC00
00FC00
00FC00
00FC00
00FC00
00FC00
38FC00
7CFC00
FCFC00
FCFC00
F8F800
F8F800
71F000
31E000
1F8000
ENDCHAR
STARTCHAR 01F1
ENCODING 497
SWIDTH 1437 0
DWIDTH 69 0
BBX 63 34 3 0
BITMAP
FFFFF80001FFFFFE
0FE01F0001FE01FE
0FE0078001F803FC
0FE003E001F003FC
0FE001F001E007F8
0FE001F001E00FF8
0FE000F801C00FF0
0FE000FC01C01FF0
0FE000FC01801FE0
0FE000FE01803FE0
0FE000FE01803FC0
0FE000FE01007F80
0FE000FF00007F80
0FE000FF0000FF00
0FE000FF0000FF00
0FE000FF0001FE00
0FE000FF0001FE00
0FE000FF0003FC00
0FE000FF0003FC00
0FE000FF0007F800
0FE000FF000FF802
0FE000FE000FF002
0FE000FE001FE002
0FE000FE001FE002
0FE000FE003FC006
0FE000FC003FC006
0FE000FC007F800E
0FE000F8007F800E
0FE001F000FF001E
0FE001E000FF003E
0FE003C001FE007E
0FE00F8001FE00FE
FFFFFE0003FFFFFE
FFFFF80003FFFFFE
ENDCHAR
STARTCHAR 01F2
ENCODING 498
SWIDTH 1229 0
DWIDTH 59 0
BBX 54 34 3 0
BITMAP
FFFFF800000000
0FE01F00000000
0FE00780000000
0FE003E0000000
0FE001F0000000
0FE001F0000000
0FE000F8000000
0FE000FC000000
0FE000FC000000
0FE000FE000000
0FE000FE000000
0FE000FE000000
0FE000FF07FFFC
0FE000FF07C0FC
0FE000FF0781F8
0FE000FF0703F0
0FE000FF0603F0
0FE000FF0607E0
0FE000FF0407E0
0FE000FF040FC0
0FE000FF001F80
0FE000FE001F80
0FE000FE003F00
0FE000FE003F00
0FE000FE007E00
0FE000FC00FC04
0FE000FC00FC04
0FE000F801F80C
0FE001F001F00C
0FE001E003F01C
0FE003C007E01C
0FE0078007E03C
0FE01E000FC0FC
FFFFF8000FFFFC
ENDCHAR
STARTCHAR 01F3
ENCODING 499
SWIDTH 979 0
DWIDTH 47 0
BBX 43 34 2 0
BITMAP
003FE0000000
0007E0000000
0007E0000000
0007E0000000
0007E0000000
0007E0000000
0007E0000000
0007E0000000
0007E0000000
0007E0000000
0007E0000000
0007E0000000
07E7E03FFFE0
1F17E03E07C0
1E1FE03C0FC0
3E0FE0381F80
7E0FE0301F80
7C0FE0303F00
7C07E0203E00
FC07E0207E00
FC07E000FC00
FC07E000FC00
FC07E001F800
FC07E001F000
FC07E003F020
FC07E007E020
FC07E007E020
7C07E00FC060
7C0FE00F8060
7E0FE01F80E0
3E0FE03F00E0
1E1FE03F01E0
0F17E07E07E0
07E7FC7FFFE0
ENDCHAR
STARTCHAR 01F4
ENCODING 500
SWIDTH 729 0
DWIDTH 35 0
BBX 30 45 3 0
BITMAP
00003800
00007800
0000F800
0000F800
0001F000
0001C000
00038000
00070000
00060000
00000000
00000000
007FE0C0
00E078C0
03C01FC0
07800FC0
0F8007C0
1F0007C0
1F0003C0
3F0003C0
3F0001C0
7F0001C0
7F0001C0
7F0000C0
FF0000C0
FF0000C0
FF000000
FF000000
FF000000
FF03FFFC
FF03FFFC
FF001FC0
FF001FC0
FF001FC0
7F001FC0
7F001FC0
7F001FC0
7F001FC0
3F001FC0
3F001FC0
1F001FC0
0F8039C0
0F8031C0
07C060C0
01E0C0C0
007F80C0
ENDCHAR
STARTCHAR 01F5
ENCODING 501
SWIDTH 562 0
DWIDTH 27 0
BBX 24 45 2 -11
BITMAP
000700
000F00
000F80
001F00
003E00
003C00
007800
007000
00C000
000000
000000
000000
07FE3E
1F0F47
3F078F
3E07CF
7E07EE
7E07E4
7E07E0
7E07E0
7E07E0
3E07C0
1F0F80
0F8F00
03FC00
0E0000
300000
300000
700000
700000
7FFF80
7FFFE0
3FFFF0
1FFFF0
07FFF8
3C01F8
600078
C00038
C00038
C00030
C00070
600060
3001C0
1E0780
03FC00
ENDCHAR
STARTCHAR 01F6
ENCODING 502
SWIDTH 979 0
DWIDTH 47 0
BBX 42 34 3 0
BITMAP
FFFF3FFFC000
07F003F80000
07F003F80000
07F003F80000
07F003F80000
07F003F80000
07F003F80000
07F003F80000
07F003F80000
07F003F80000
07F003F80000
07F003F80000
07F003F80000
07F003F81C00
07F003F87E00
07FFFFF87F00
07F003F87F80
07F003F87F80
07F003F87F80
07F003F81FC0
07F003F807C0
07F003F801C0
07F003F801C0
07F003F800C0
07F003F800C0
07F003F800C0
07F003F800C0
07F003F800C0
07F001F80080
07F001F80180
07F000FC0300
07F000FE0200
07F0007F0C00
FFFF001FF800
ENDCHAR
STARTCHAR 01F7
ENCODING 503
SWIDTH 645 0
DWIDTH 31 0
BBX 26 42 3 -7
BITMAP
00E0FC00
03E1FE00
0FE7FF00
3FEFFF00
FFF87F80
8FF07F80
0FE03FC0
0FE03FC0
0FE01FC0
0FE01FC0
0FE01FC0
0FE01FC0
0FE01FC0
0FE01FC0
0FE01FC0
0FE01F80
0FE01F80
0FE01F80
0FE03F00
0FE03F00
0FE03E00
0FE03E00
0FE07C00
0FE07800
0FE0F000
0FE0E000
0FE1C000
0FE78000
0FFE0000
0FF80000
0FE00000
0FE00000
0FE00000
0FE00000
0FE00000
0FE00000
0FE00000
0FC00000
0F000000
3C000000
F0000000
C0000000
ENDCHAR
STARTCHAR 01FA
ENCODING 506
SWIDTH 750 0
DWIDTH 36 0
BBX 33 45 2 0
BITMAP
0000180000
0000380000
0000F00000
0000800000
0001E00000
0007300000
0006180000
0006180000
0006180000
0003F00000
0000000000
0000C00000
0001E00000
0001E00000
0003E00000
0003F00000
0003F00000
0007F00000
0007F80000
0007F80000
000FF80000
000FFC0000
000DFC0000
001DFC0000
0019FE0000
0018FE0000
0030FE0000
0030FF0000
00307F0000
00607F0000
00607F8000
00603F8000
00C03F8000
00C03FC000
00FFFFC000
01FFFFC000
01801FE000
01000FE000
03000FE000
03000FF000
060007F000
060007F000
0F0007F800
FFF0FFFF80
FFF0FFFF80
ENDCHAR
STARTCHAR 01FB
ENCODING 507
SWIDTH 500 0
DWIDTH 24 0
BBX 21 44 2 0
BITMAP
000E00
001E00
003E00
003E00
007800
00F000
00E000
018000
000000
000000
03F000
07F800
0E1C00
0C0C00
0C0C00
0C0C00
0C0C00
061800
07F800
01E000
000000
000000
0FF800
183E00
383F00
781F00
7C1F80
7E1F80
7E1F80
3E1F80
083F80
01FF80
071F80
1E1F80
3E1F80
7C1F80
7C1F80
FC1F80
FC1F88
FC1F88
FC1F98
FE3F90
7F6FF0
3FC7E0
ENDCHAR
STARTCHAR 01FC
ENCODING 508
SWIDTH 1000 0
DWIDTH 48 0
BBX 45 45 1 0
BITMAP
000000003800
000000007800
00000000F800
00000000F800
00000001E000
00000003C000
000000038000
000000060000
000000040000
000000000000
000000000000
00007FFFFFF0
00001FF807F0
00000FF801F0
00000FF800F0
00001FF800F0
00001BF80070
00003BF80070
000033F80030
000073F80030
000063F80C30
0000E3F80C10
0000C3F80C00
0001C3F81C00
000183F81C00
000383F83C00
000303F87C00
000703FFFC00
000603F87C00
000E03F83C00
000C03F81C00
001C03F81C00
001803F80C18
003803F80C18
003FFFF80C18
006003F80038
00E003F80038
00C003F80038
01C003F80078
018003F80078
038003F800F8
078003F801F8
0F8003F803F8
FFF87FFFFFF8
FFF87FFFFFF8
ENDCHAR
STARTCHAR 01FD
ENCODING 509
SWIDTH 708 0
DWIDTH 34 0
BBX 29 34 2 0
BITMAP
00003800
00007800
0000F800
0000F800
0001F000
0003E000
00038000
00070000
000E0000
00040000
00000000
00000000
0FF0FF80
183FC3C0
383FC3E0
781F83F0
7C1F81F0
7E1F81F0
7E1F81F8
3E1F81F8
003F81F8
01FF81F8
071FFFF8
1E1F8000
3E1F8000
7C1F8000
7C1F8008
FC1F8008
FC1F8018
FC1FC010
FC1FC010
FE33C020
7F61F040
3FC0FF80
ENDCHAR
STARTCHAR 01FE
ENCODING 510
SWIDTH 687 0
DWIDTH 33 0
BBX 28 45 3 0
BITMAP
00003000
00007800
0000F800
0001F000
0001E000
0003C000
00038000
00060000
00040000
00000000
00000000
003FE030
00E07060
01C03CC0
07801FC0
0F801F80
0F000F00
1F000F80
3F000FC0
3F001FC0
3F001FE0
7F003FE0
7F006FE0
7F00EFE0
FF00CFF0
FF018FF0
FF030FF0
FF070FF0
FF0E0FF0
FF0C0FF0
FF180FF0
FF300FF0
FF700FE0
7F600FE0
7FC00FE0
7F800FC0
3F800FC0
3F000FC0
1F000F80
0F000F00
1F801E00
3F801E00
33C03800
60E07000
C07FC000
ENDCHAR
STARTCHAR 01FF
ENCODING 511
SWIDTH 500 0
DWIDTH 24 0
BBX 20 34 2 0
BITMAP
000700
000F80
000F80
001F00
003E00
003C00
007800
00E000
00C000
000000
000000
000000
03FC30
0F0F60
1E0FC0
3E07C0
3E07C0
7C07E0
7C07E0
FC0FF0
FC1BF0
FC33F0
FC73F0
FCE3F0
FCC3F0
FD83F0
FF03F0
7E03E0
7E03E0
3E07C0
3E07C0
3F0780
6F0F00
C3FC00
ENDCHAR
STARTCHAR 0200
ENCODING 512
SWIDTH 750 0
DWIDTH 36 0
BBX 33 45 2 0
BITMAP
01C7000000
01E7800000
01E7C00000
01F3C00000
00F9E00000
0038F00000
001C700000
000C180000
0004080000
0000000000
0000C00000
0001C00000
0001E00000
0001E00000
0003E00000
0003F00000
0003F00000
0007F00000
0007F80000
0007F80000
000FF80000
000FFC0000
000FFC0000
0019FC0000
0019FE0000
0019FE0000
0030FE0000
0030FF0000
0020FF0000
00607F0000
00607F8000
00407F8000
00C03F8000
00C03FC000
00FFFFC000
01FFFFC000
01801FE000
01001FE000
03000FE000
03000FF000
02000FF000
060007F000
0F0007F800
1F000FFC00
FFF0FFFF80
ENDCHAR
STARTCHAR 0201
ENCODING 513
SWIDTH 500 0
DWIDTH 24 0
BBX 22 34 1 0
BITMAP
618000
F3C000
FBE000
79E000
3CF000
1C7000
0E3800
061800
030C00
000000
000000
000000
07FC00
0C1F00
1C1F80
3C0F80
3E0FC0
3F0FC0
3F0FC0
1F0FC0
041FC0
00FFC0
03CFC0
0F0FC0
1F0FC0
3E0FC0
3E0FC0
7E0FC0
7E0FC4
7E0FC4
7E0FCC
7F1FC8
3FBFF8
1FC7F0
ENDCHAR
STARTCHAR 0202
ENCODING 514
SWIDTH 750 0
DWIDTH 36 0
BBX 33 44 2 0
BITMAP
0001E00000
0007F00000
000FF80000
001FFC0000
001C1E0000
0030060000
0030030000
0060010000
0000000000
0000000000
0001C00000
0001C00000
0001E00000
0003E00000
0003E00000
0003F00000
0007F00000
0007F80000
0007F80000
000FF80000
000FFC0000
000FFC0000
0019FC0000
0019FE0000
0019FE0000
0030FE0000
0030FF0000
0020FF0000
00607F0000
00607F8000
00407F8000
00C03F8000
00C03FC000
00FFFFC000
01FFFFC000
01801FE000
01001FE000
03000FE000
03000FF000
02000FF000
060007F000
0F0007F800
1F000FFC00
FFF0FFFF80
ENDCHAR
STARTCHAR 0203
ENCODING 515
SWIDTH 500 0
DWIDTH 24 0
BBX 21 32 2 0
BITMAP
01E000
07F000
07F800
0FF800
1C1C00
180C00
300600
300200
000000
000000
0FF800
183E00
383F00
781F00
7C1F80
7E1F80
7E1F80
3E1F80
083F80
01FF80
079F80
1E1F80
3E1F80
7C1F80
7C1F80
FC1F80
FC1F88
FC1F88
FC1F98
FE3F90
7F7FF0
3F8FE0
ENDCHAR
STARTCHAR 0204
ENCODING 516
SWIDTH 687 0
DWIDTH 33 0
BBX 27 45 3 0
BITMAP
061C0000
0F1E0000
0F9E0000
07DF0000
03C78000
01E38000
0071C000
0030E000
00104000
00000000
00000000
FFFFFFE0
0FE01FE0
0FE007E0
0FE003E0
0FE001E0
0FE001E0
0FE000E0
0FE000E0
0FE00060
0FE03060
0FE03060
0FE03000
0FE07000
0FE07000
0FE0F000
0FE1F000
0FFFF000
0FE1F000
0FE0F000
0FE07000
0FE07020
0FE03060
0FE03060
0FE03060
0FE00060
0FE00060
0FE000E0
0FE000E0
0FE001E0
0FE003E0
0FE003E0
0FE007E0
FFFFFFE0
FFFFFFE0
ENDCHAR
STARTCHAR 0205
ENCODING 517
SWIDTH 479 0
DWIDTH 23 0
BBX 19 34 1 0
BITMAP
61C000
F1C000
F9E000
79F000
3CF000
1C7800
0E3800
071C00
030E00
000400
000000
000000
01FE00
070F00
0F0F80
1F07C0
1E07C0
3E07C0
3E07E0
7E07E0
7E07E0
7E07E0
7FFFE0
7E0000
7E0000
7E0000
7E0020
3E0020
3E0060
1F0060
1F0040
0F8080
07C180
01FE00
ENDCHAR
STARTCHAR 0206
ENCODING 518
SWIDTH 687 0
DWIDTH 33 0
BBX 27 44 3 0
BITMAP
000F0000
001FC000
003FE000
007FF000
00F07800
00C01800
01800800
01000800
00000000
00000000
FFFFFFE0
0FE01FE0
0FE007E0
0FE003E0
0FE001E0
0FE001E0
0FE000E0
0FE000E0
0FE00060
0FE03060
0FE03060
0FE03000
0FE07000
0FE07000
0FE0F000
0FE1F000
0FFFF000
0FE1F000
0FE0F000
0FE07000
0FE07020
0FE03060
0FE03060
0FE03060
0FE00060
0FE00060
0FE000E0
0FE000E0
0FE001E0
0FE003E0
0FE003E0
0FE00FE0
FFFFFFE0
FFFFFFE0
ENDCHAR
STARTCHAR 0207
ENCODING 519
SWIDTH 479 0
DWIDTH 23 0
BBX 18 32 2 0
BITMAP
01E000
03F800
07F800
0FFC00
0E0E00
180600
100300
100300
000000
000000
03FC00
0E1E00
1E1F00
3E0F80
3C0F80
7C0F80
7C0FC0
FC0FC0
FC0FC0
FC0FC0
FFFFC0
FC0000
FC0000
FC0000
FC0040
7C0040
7C00C0
3E00C0
3E0080
1F0100
0F8300
03FC00
ENDCHAR
STARTCHAR 0208
ENCODING 520
SWIDTH 437 0
DWIDTH 21 0
BBX 18 45 1 0
BITMAP
61C000
F1E000
F9F000
7CF000
3C7800
1E3800
071C00
030600
010000
000000
000000
3FFFC0
01FC00
01FC00
01FC00
01FC00
01FC00
01FC00
01FC00
01FC00
01FC00
01FC00
01FC00
01FC00
01FC00
01FC00
01FC00
01FC00
01FC00
01FC00
01FC00
01FC00
01FC00
01FC00
01FC00
01FC00
01FC00
01FC00
01FC00
01FC00
01FC00
01FC00
01FC00
01FC00
3FFFC0
ENDCHAR
STARTCHAR 0209
ENCODING 521
SWIDTH 312 0
DWIDTH 15 0
BBX 16 34 -3 0
BITMAP
61C0
F3E0
F3E0
F9F0
7CF0
1C78
0E3C
061C
0306
0000
0000
0000
07F8
01F8
01F8
01F8
01F8
01F8
01F8
01F8
01F8
01F8
01F8
01F8
01F8
01F8
01F8
01F8
01F8
01F8
01F8
01F8
01F8
07FF
ENDCHAR
STARTCHAR 020A
ENCODING 522
SWIDTH 437 0
DWIDTH 21 0
BBX 16 44 3 0
BITMAP
03C0
07F0
1FF8
1FF8
3C1C
700E
6006
4002
0000
0000
FFFF
07F0
07F0
07F0
07F0
07F0
07F0
07F0
07F0
07F0
07F0
07F0
07F0
07F0
07F0
07F0
07F0
07F0
07F0
07F0
07F0
07F0
07F0
07F0
07F0
07F0
07F0
07F0
07F0
07F0
07F0
07F0
07F0
FFFF
ENDCHAR
STARTCHAR 020B
ENCODING 523
SWIDTH 312 0
DWIDTH 15 0
BBX 13 32 1 0
BITMAP
0700
1FC0
3FE0
3FE0
7070
E038
C018
8008
0000
0000
7F80
1F80
1F80
1F80
1F80
1F80
1F80
1F80
1F80
1F80
1F80
1F80
1F80
1F80
1F80
1F80
1F80
1F80
1F80
1F80
1F80
7FF0
ENDCHAR
STARTCHAR 020C
ENCODING 524
SWIDTH 687 0
DWIDTH 33 0
BBX 28 45 3 1
BITMAP
0F3C0000
0F3E0000
0F9E0000
079F0000
03CF0000
01E38000
00E1C000
0030C000
00104000
00000000
00000000
003FC000
00E07000
03C03800
07801E00
0F801E00
0F000F00
1F000F80
3F000FC0
3F000FC0
7F000FC0
7F000FE0
7F000FE0
7F000FE0
FF000FF0
FF000FF0
FF000FF0
FF000FF0
FF000FF0
FF000FF0
FF000FF0
FF000FF0
7F000FE0
7F000FE0
7F000FE0
7F000FC0
3F000FC0
3F000FC0
1F000F80
0F000F00
0F801F00
07801E00
03C03C00
00E07000
003FC000
ENDCHAR
STARTCHAR 020D
ENCODING 525
SWIDTH 500 0
DWIDTH 24 0
BBX 20 34 2 0
BITMAP
E1C000
F3C000
F3E000
F9F000
7CF000
3C7800
1E3800
061C00
030E00
000000
000000
000000
03FC00
0F0F00
1E0780
3E07C0
3E07C0
7E03E0
7C03E0
FC03F0
FC03F0
FC03F0
FC03F0
FC03F0
FC03F0
FC03F0
FC03F0
7C03E0
7E03E0
3E07C0
3E07C0
1E0780
0F0F00
03FC00
ENDCHAR
STARTCHAR 020E
ENCODING 526
SWIDTH 687 0
DWIDTH 33 0
BBX 28 44 3 0
BITMAP
000F0000
001F8000
007FC000
007FE000
00E07000
01C03800
01801800
01000800
00000000
00000000
003FC000
00E07000
03C03800
07801E00
0F801E00
0F000F00
1F000F80
3F000FC0
3F000FC0
7F000FC0
7F000FE0
7F000FE0
7F000FE0
FF000FF0
FF000FF0
FF000FF0
FF000FF0
FF000FF0
FF000FF0
FF000FF0
FF000FF0
7F000FE0
7F000FE0
7F000FE0
7F000FC0
3F000FC0
3F000FC0
1F000F80
0F000F00
0F801F00
07801E00
03C03C00
00E07000
003FC000
ENDCHAR
STARTCHAR 020F
ENCODING 527
SWIDTH 500 0
DWIDTH 24 0
BBX 20 32 2 0
BITMAP
00F000
01F800
03FC00
07FE00
0F0F00
0C0300
080100
100080
000000
000000
03FC00
0F0F00
1E0780
3E07C0
3E07C0
7C03E0
7C03E0
FC03F0
FC03F0
FC03F0
FC03F0
FC03F0
FC03F0
FC03F0
FC03F0
7C03E0
7C03E0
3E07C0
3E07C0
1E0780
0F0F00
03FC00
ENDCHAR
STARTCHAR 0210
ENCODING 528
SWIDTH 750 0
DWIDTH 36 0
BBX 32 47 3 -2
BITMAP
0C380000
1E3C0000
1F3C0000
0FBE0000
078E0000
03C70000
00E38000
00618000
00208000
00000000
00000000
FFFFF000
07F07E00
07F03F00
07F03F80
07F01FC0
07F01FC0
07F01FE0
07F01FE0
07F01FE0
07F01FE0
07F01FE0
07F01FC0
07F03FC0
07F03F00
07F07E00
07FFF000
07F0F000
07F03E00
07F03F00
07F01F80
07F01F80
07F01FC0
07F01FC0
07F01FC0
07F01FC0
07F01FC3
07F01FC3
07F01FC3
07F01FC3
07F01FC3
07F01FC6
07F01FC6
07F00FEE
FFFF87FC
000003F8
00000060
ENDCHAR
STARTCHAR 0211
ENCODING 529
SWIDTH 416 0
DWIDTH 20 0
BBX 17 34 2 0
BITMAP
E38000
E7C000
F7C000
FBE000
79E000
3CF000
1C7000
0E3800
060C00
000000
000000
000000
FF1F00
3F3F80
3F4F80
3F4F80
3F9F80
3F9F80
3F9F00
3F0E00
3F0000
3F0000
3F0000
3F0000
3F0000
3F0000
3F0000
3F0000
3F0000
3F0000
3F0000
3F0000
3F0000
FFC000
ENDCHAR
STARTCHAR 0212
ENCODING 530
SWIDTH 750 0
DWIDTH 36 0
BBX 32 46 3 -2
BITMAP
001E0000
003F0000
007F8000
00FFC000
01E0E000
01806000
03003000
02001000
00000000
00000000
FFFFF000
07F07E00
07F03F00
07F03F80
07F01FC0
07F01FC0
07F01FE0
07F01FE0
07F01FE0
07F01FE0
07F01FE0
07F01FC0
07F03FC0
07F03F00
07F07E00
07FFF000
07F0F000
07F03E00
07F03F00
07F01F80
07F01F80
07F01FC0
07F01FC0
07F01FC0
07F01FC0
07F01FC3
07F01FC3
07F01FC3
07F01FC3
07F01FC3
07F01FC6
07F01FC6
07F00FEE
FFFF87FC
000003F8
00000060
ENDCHAR
STARTCHAR 0213
ENCODING 531
SWIDTH 416 0
DWIDTH 20 0
BBX 17 32 2 0
BITMAP
01E000
03F000
07F800
0FFC00
1E1C00
180600
100200
300300
000000
000000
FF1F00
3F3F80
3F4F80
3F4F80
3F9F80
3F9F80
3F9F00
3F0E00
3F0000
3F0000
3F0000
3F0000
3F0000
3F0000
3F0000
3F0000
3F0000
3F0000
3F0000
3F0000
3F0000
FFC000
ENDCHAR
STARTCHAR 0214
ENCODING 532
SWIDTH 791 0
DWIDTH 38 0
BBX 33 45 3 1
BITMAP
01E3800000
01F3C00000
01F3C00000
00F9E00000
003CF00000
001C700000
000E380000
0007180000
0000080000
0000000000
0000000000
FFFF07FF80
0FE001FE00
0FE0007800
0FE0003000
0FE0003000
0FE0003000
0FE0003000
0FE0003000
0FE0003000
0FE0003000
0FE0003000
0FE0003000
0FE0003000
0FE0003000
0FE0003000
0FE0003000
0FE0003000
0FE0003000
0FE0003000
0FE0003000
0FE0003000
0FE0003000
0FE0003000
0FE0003000
0FE0003000
0FE0003000
07E0003000
07E0006000
07F0006000
03F000C000
01F801C000
00FC038000
007F9F0000
001FFC0000
ENDCHAR
STARTCHAR 0215
ENCODING 533
SWIDTH 541 0
DWIDTH 26 0
BBX 24 34 1 0
BITMAP
30E000
78F000
7CF000
3EF800
1E7800
0F3C00
071C00
038E00
00C600
000000
000000
000000
FF8FF8
1F81F8
1F81F8
1F81F8
1F81F8
1F81F8
1F81F8
1F81F8
1F81F8
1F81F8
1F81F8
1F81F8
1F81F8
1F81F8
1F81F8
1F81F8
1F83F8
1F83F8
1F85F8
0F85F8
0FC9F8
07F1FF
ENDCHAR
STARTCHAR 0216
ENCODING 534
SWIDTH 791 0
DWIDTH 38 0
BBX 33 44 3 0
BITMAP
0001E00000
0007F80000
000FFC0000
000FFC0000
001C0E0000
0038070000
0030030000
0020010000
0000000000
0000000000
FFFF07FF80
0FE001FE00
0FE0007800
0FE0003000
0FE0003000
0FE0003000
0FE0003000
0FE0003000
0FE0003000
0FE0003000
0FE0003000
0FE0003000
0FE0003000
0FE0003000
0FE0003000
0FE0003000
0FE0003000
0FE0003000
0FE0003000
0FE0003000
0FE0003000
0FE0003000
0FE0003000
0FE0003000
0FE0003000
0FE0003000
07E0003000
07E0006000
07F0006000
03F000C000
01F801C000
00FC038000
007F9F0000
001FFC0000
ENDCHAR
STARTCHAR 0217
ENCODING 535
SWIDTH 541 0
DWIDTH 26 0
BBX 24 32 1 0
BITMAP
007800
00FC00
01FE00
03FF00
038700
060180
060080
0400C0
000000
000000
FF8FF8
1F81F8
1F81F8
1F81F8
1F81F8
1F81F8
1F81F8
1F81F8
1F81F8
1F81F8
1F81F8
1F81F8
1F81F8
1F81F8
1F81F8
1F81F8
1F83F8
1F83F8
1F85F8
0F85F8
0FC9F8
07F1FF
ENDCHAR
STARTCHAR 0218
ENCODING 536
SWIDTH 604 0
DWIDTH 29 0
BBX 23 45 4 -10
BITMAP
07FC18
180F18
3803F8
7001F8
7000F8
F00078
F80078
F80038
FC0038
FE0018
FF8018
FFE008
7FF000
7FFC00
3FFE00
1FFF80
0FFFC0
03FFF0
01FFF8
807FF8
C01FFC
C00FFC
C003FE
E001FE
E0007E
E0003E
F0001E
F0001E
F8001C
FC001C
FE0018
EF0030
C38060
C1FF80
000000
003800
007C00
007E00
007E00
003E00
000E00
000C00
000C00
003000
004000
ENDCHAR
STARTCHAR 0219
ENCODING 537
SWIDTH 437 0
DWIDTH 21 0
BBX 16 33 3 -10
BITMAP
1FC4
3074
603C
E01C
E01C
F00C
F804
FE04
7F80
7FE0
3FF0
1FFC
07FE
81FE
C07F
C01F
E00F
E007
F007
F806
CC0E
87F8
8000
0080
03E0
03F0
03F0
03F0
00F0
0070
0060
00C0
0380
ENDCHAR
STARTCHAR 021A
ENCODING 538
SWIDTH 708 0
DWIDTH 34 0
BBX 29 45 3 -11
BITMAP
FFFFFFF8
FF3FE7F8
FC1FC1F8
F81FC0F8
F81FC0F8
F01FC078
E01FC038
E01FC038
E01FC038
C01FC018
C01FC018
C01FC018
C01FC018
801FC008
001FC000
001FC000
001FC000
001FC000
001FC000
001FC000
001FC000
001FC000
001FC000
001FC000
001FC000
001FC000
001FC000
001FC000
001FC000
001FC000
001FC000
001FC000
001FC000
03FFFE00
00000000
000E0000
001F0000
001F8000
001F8000
000F8000
00038000
00010000
00030000
000E0000
00180000
ENDCHAR
STARTCHAR 021B
ENCODING 539
SWIDTH 354 0
DWIDTH 17 0
BBX 15 43 1 -11
BITMAP
0180
0180
0180
0180
0180
0380
0380
0780
0F80
3F80
FFF8
1F80
1F80
1F80
1F80
1F80
1F80
1F80
1F80
1F80
1F80
1F80
1F82
1F82
1F82
1F82
1F86
1F86
1F84
0FC4
0FF8
07F0
0000
01C0
03E0
03F0
03F0
01F0
0030
0020
0060
01C0
0300
ENDCHAR
STARTCHAR 021C
ENCODING 540
SWIDTH 541 0
DWIDTH 26 0
BBX 21 42 2 -7
BITMAP
01FE00
03FF80
0FFFC0
1FFFE0
3C1FE0
300FE0
6007E0
2007E0
0007E0
0007C0
000F80
000F00
001E00
003C00
007800
00FC00
01FF80
03FFC0
0FFFE0
1FFFF0
3FFFF0
003FF8
000FF8
000FF8
0007F8
0007F8
0007F8
0007F0
0007F0
000FF0
000FE0
001FC0
001F80
003F00
007E00
00FC00
01F000
07E000
1F8000
3E0000
F00000
C00000
ENDCHAR
STARTCHAR 021D
ENCODING 541
SWIDTH 416 0
DWIDTH 20 0
BBX 17 34 1 -11
BITMAP
03F800
07FC00
0FFE00
1FFE00
303F00
601F00
C01F00
001F00
001E00
003E00
003C00
007000
00E000
01F000
03FC00
07FE00
0FFF00
387F80
303F80
001F80
001F80
001F80
001F80
001F00
003F00
003E00
007E00
007C00
00F800
01E000
07C000
0F0000
3C0000
F00000
ENDCHAR
STARTCHAR 0224
ENCODING 548
SWIDTH 625 0
DWIDTH 30 0
BBX 26 45 3 -11
BITMAP
7FFFFF80
7F807F80
7E00FF00
7C00FF00
7801FE00
7801FE00
7003FC00
7003FC00
6007F800
600FF800
600FF000
401FE000
001FE000
003FC000
003FC000
007F8000
007F8000
00FF0000
00FF0000
01FE0000
01FE0000
03FC0000
03FC0000
07F80000
0FF80000
0FF00000
1FE00000
1FE00000
3FC00000
3FC00000
7F800000
7F800000
FF000000
FFFFFF00
0001FF80
00003FC0
00001FC0
00001FC0
00001FC0
00001F80
00003F00
00007E00
0001F800
0007C000
000E0000
ENDCHAR
STARTCHAR 0225
ENCODING 549
SWIDTH 437 0
DWIDTH 21 0
BBX 18 31 2 -9
BITMAP
7FFFC0
7C1FC0
781F80
703F00
607F00
607E00
40FE00
40FC00
01F800
03F800
03F000
07E000
07E000
0FC000
1FC000
1F8000
3F0000
7F0000
7E0000
FC0000
FC0000
FFFF80
000FC0
0007C0
0007C0
0007C0
000780
000F00
001C00
007000
00C000
ENDCHAR
STARTCHAR 0228
ENCODING 552
SWIDTH 687 0
DWIDTH 33 0
BBX 27 45 3 -11
BITMAP
FFFFFFE0
0FE01FE0
0FE007E0
0FE003E0
0FE001E0
0FE001E0
0FE000E0
0FE000E0
0FE00060
0FE03060
0FE03060
0FE03000
0FE07000
0FE07000
0FE0F000
0FE1F000
0FFFF000
0FE1F000
0FE0F000
0FE07000
0FE07020
0FE03060
0FE03060
0FE03060
0FE00060
0FE00060
0FE000E0
0FE000E0
0FE001E0
0FE003E0
0FE003E0
0FE00FE0
FFFFFFE0
FFFFFFE0
00030000
00030000
00030000
0007E000
0000F000
00007800
00007800
00007800
00207800
0030F000
000FC000
ENDCHAR
STARTCHAR 0229
ENCODING 553
SWIDTH 479 0
DWIDTH 23 0
BBX 18 32 2 -9
BITMAP
03FC00
0E1E00
1E1F00
3E0F80
3C0F80
7C0F80
7C0FC0
FC0FC0
FC0FC0
FC0FC0
FFFFC0
FC0000
FC0000
FC0000
FC0040
7C0040
7C00C0
3E00C0
3E0080
1F0100
0F8200
03FC00
008000
008000
018000
00F000
003800
003C00
003C00
003C00
047800
03F000
ENDCHAR
STARTCHAR 0232
ENCODING 562
SWIDTH 729 0
DWIDTH 35 0
BBX 32 41 2 0
BITMAP
003FFF00
003FFF00
003FFF00
00000000
00000000
00000000
00000000
FFFE0FFF
1FF801F8
0FF800F0
07F800E0
07F800C0
03FC00C0
03FC00C0
01FC0180
01FE0180
00FE0300
00FF0300
00FF0300
007F8600
007F8600
003FC400
003FCC00
001FCC00
001FF800
000FF800
000FF800
0007F000
0007F000
0007F000
0007F000
0007F000
0007F000
0007F000
0007F000
0007F000
0007F000
0007F000
0007F000
0007F000
00FFFF00
ENDCHAR
STARTCHAR 0233
ENCODING 563
SWIDTH 520 0
DWIDTH 25 0
BBX 23 42 1 -11
BITMAP
03FFC0
03FFC0
03FFC0
000000
000000
000000
000000
000000
000000
FFF1FE
3FC078
1F8070
0FC060
0FC060
0FC060
07E040
07E0C0
03F0C0
03F080
01F880
01F980
00F900
00FD00
00FD00
007E00
007E00
003E00
003C00
001C00
001C00
000C00
000800
000800
000800
0F1000
1F1000
3F9000
3F2000
3E2000
3E4000
1FC000
0F0000
ENDCHAR
STARTCHAR 0237
ENCODING 567
SWIDTH 333 0
DWIDTH 16 0
BBX 14 33 -2 -11
BITMAP
07FC
00FC
00FC
00FC
00FC
00FC
00FC
00FC
00FC
00FC
00FC
00FC
00FC
00FC
00FC
00FC
00FC
00FC
00FC
00FC
00FC
00FC
00FC
00FC
38FC
7CFC
FCFC
FCFC
F8F8
F8F8
71F0
31E0
1F80
ENDCHAR
STARTCHAR 0243
ENCODING 579
SWIDTH 708 0
DWIDTH 34 0
BBX 29 34 3 0
BITMAP
FFFFF800
07F03E00
07F00F80
07F00FC0
07F007E0
07F007E0
07F007F0
07F007F0
07F007F0
07F007F0
07F007F0
07F007E0
07F007E0
07F00FC0
07F00F00
07F01E00
07FFF000
07F03E00
07F01F80
07F00FC0
07F007E0
07F007F0
07F007F8
07F007F8
FFFF07F8
07F007F8
07F007F8
07F007F8
07F007F0
07F007F0
07F00FE0
07F00FC0
07F03F00
FFFFFC00
ENDCHAR
STARTCHAR 0254
ENCODING 596
SWIDTH 458 0
DWIDTH 22 0
BBX 18 22 2 1
BITMAP
0FF000
107C00
203E00
601F00
401F00
C00F80
C00F80
000FC0
000FC0
000FC0
000FC0
000FC0
1C0FC0
3E0FC0
7E0FC0
7E0F80
7C1F80
781F00
781F00
383E00
183C00
0FF000
ENDCHAR
STARTCHAR 0259
ENCODING 601
SWIDTH 458 0
DWIDTH 22 0
BBX 18 22 2 1
BITMAP
0FF000
307C00
201E00
401F00
C01F00
C00F80
800F80
000FC0
000FC0
000FC0
FFFFC0
FC0FC0
FC0FC0
FC0FC0
FC0FC0
FC0F80
7C0F80
7C1F00
3E1F00
3E1E00
1E1C00
07F000
ENDCHAR
STARTCHAR 025B
ENCODING 603
SWIDTH 458 0
DWIDTH 22 0
BBX 18 22 2 1
BITMAP
07FC00
1F0600
3E0300
7C0380
7C0780
7C0F80
7C0F80
7C0700
3E0000
1E0000
03F000
0F0000
3E0000
7E0780
FC07C0
FC07C0
FC07C0
FC03C0
FE01C0
7E0180
3F0300
0FFC00
ENDCHAR
STARTCHAR 0280
ENCODING 640
SWIDTH 541 0
DWIDTH 26 0
BBX 23 22 2 0
BITMAP
FFFF00
3F0FC0
3F07E0
3F03F0
3F03F0
3F03F0
3F03F0
3F07E0
3F07C0
3FFC00
3F1E00
3F0F80
3F07C0
3F07E0
3F07E0
3F07E0
3F07E2
3F07E2
3F07E2
3F07E6
3F03E4
FFE1F8
ENDCHAR
STARTCHAR 0292
ENCODING 658
SWIDTH 500 0
DWIDTH 24 0
BBX 22 33 1 -11
BITMAP
7FFFF0
7FFFF0
7FFFE0
7FFFC0
780180
700100
600200
400400
400C00
001800
003000
006000
00C000
01FF00
01C7C0
0303E0
0401F0
0001F8
0001F8
0000FC
0000FC
3800FC
7C00FC
FE00FC
FE00FC
FE00FC
FC01F8
F801F8
7001F0
7003E0
3807C0
1C1F00
03FC00
ENDCHAR
STARTCHAR 02BB
ENCODING 699
SWIDTH 291 0
DWIDTH 14 0
BBX 8 11 3 23
BITMAP
0E
18
30
60
E0
E0
FE
FE
FF
7E
3C
ENDCHAR
STARTCHAR 02BC
ENCODING 700
SWIDTH 291 0
DWIDTH 14 0
BBX 7 11 4 24
BITMAP
F8
FC
FE
FE
3E
0E
0C
0C
18
70
C0
ENDCHAR
STARTCHAR 02BD
ENCODING 701
SWIDTH 291 0
DWIDTH 14 0
BBX 7 11 3 24
BITMAP
3E
7E
FE
FE
F8
E0
60
60
30
1C
06
ENDCHAR
STARTCHAR 02BE
ENCODING 702
SWIDTH 208 0
DWIDTH 10 0
BBX 6 10 3 25
BITMAP
E0
F8
38
1C
1C
1C
1C
38
F0
E0
ENDCHAR
STARTCHAR 02BF
ENCODING 703
SWIDTH 187 0
DWIDTH 9 0
BBX 6 10 2 25
BITMAP
3C
7C
F0
E0
E0
E0
E0
70
7C
1C
ENDCHAR
STARTCHAR 02C6
ENCODING 710
SWIDTH 437 0
DWIDTH 21 0
BBX 15 9 3 25
BITMAP
0380
07C0
07C0
0FE0
0EE0
1C70
3838
E00E
4000
ENDCHAR
STARTCHAR 02C7
ENCODING 711
SWIDTH 437 0
DWIDTH 21 0
BBX 13 8 4 25
BITMAP
8008
C018
7070
38E0
1DE0
1FC0
0F80
0700
ENDCHAR
STARTCHAR 02C9
ENCODING 713
SWIDTH 416 0
DWIDTH 20 0
BBX 12 3 4 28
BITMAP
FFF0
FFF0
FFF0
ENDCHAR
STARTCHAR 02CA
ENCODING 714
SWIDTH 437 0
DWIDTH 21 0
BBX 8 9 9 25
BITMAP
06
0F
1F
3E
3C
78
F0
C0
80
ENDCHAR
STARTCHAR 02CB
ENCODING 715
SWIDTH 437 0
DWIDTH 21 0
BBX 8 9 4 25
BITMAP
60
F0
F8
7C
3C
1E
0F
03
01
ENDCHAR
STARTCHAR 02D8
ENCODING 728
SWIDTH 437 0
DWIDTH 21 0
BBX 13 8 4 26
BITMAP
8008
8008
C018
E038
7070
3FF0
3FE0
0F80
ENDCHAR
STARTCHAR 02D9
ENCODING 729
SWIDTH 437 0
DWIDTH 21 0
BBX 7 7 7 26
BITMAP
38
7C
FE
FE
FE
7C
38
ENDCHAR
STARTCHAR 02DA
ENCODING 730
SWIDTH 437 0
DWIDTH 21 0
BBX 10 10 5 25
BITMAP
3F00
7F80
E1C0
C0C0
C0C0
C0C0
C0C0
6180
7F80
1E00
ENDCHAR
STARTCHAR 02DB
ENCODING 731
SWIDTH 437 0
DWIDTH 21 0
BBX 8 11 4 -11
BITMAP
06
08
30
70
60
E0
E0
E1
FF
7E
3C
ENDCHAR
STARTCHAR 02DC
ENCODING 732
SWIDTH 416 0
DWIDTH 20 0
BBX 14 5 3 27
BITMAP
3E04
7F8C
7FF8
C7F8
81F0
ENDCHAR
STARTCHAR 02DD
ENCODING 733
SWIDTH 437 0
DWIDTH 21 0
BBX 14 9 6 25
BITMAP
061C
0F3C
1F3C
1E7C
3CF8
78E0
71C0
C180
8100
ENDCHAR
STARTCHAR 0300
ENCODING 768
SWIDTH 0 0
DWIDTH 0 0
BBX 8 9 -19 25
BITMAP
60
F0
F8
7C
3C
1E
0F
03
01
ENDCHAR
STARTCHAR 0301
ENCODING 769
SWIDTH 0 0
DWIDTH 0 0
BBX 8 9 -14 25
BITMAP
06
0F
1F
3E
3C
78
F0
C0
80
ENDCHAR
STARTCHAR 0302
ENCODING 770
SWIDTH 0 0
DWIDTH 0 0
BBX 15 9 -20 25
BITMAP
0380
07C0
07C0
0FE0
0EE0
1C70
3838
E00E
0004
ENDCHAR
STARTCHAR 0303
ENCODING 771
SWIDTH 0 0
DWIDTH 0 0
BBX 14 5 -20 27
BITMAP
3E04
7F8C
7FF8
C7F8
81F0
ENDCHAR
STARTCHAR 0304
ENCODING 772
SWIDTH 0 0
DWIDTH 0 0
BBX 12 3 -19 28
BITMAP
FFF0
FFF0
FFF0
ENDCHAR
STARTCHAR 0305
ENCODING 773
SWIDTH 0 0
DWIDTH 0 0
BBX 25 3 -25 38
BITMAP
FFFFFF80
FFFFFF80
FFFFFF80
ENDCHAR
STARTCHAR 0306
ENCODING 774
SWIDTH 0 0
DWIDTH 0 0
BBX 13 8 -19 26
BITMAP
8008
8008
C018
C038
7070
7FE0
3FE0
0F80
ENDCHAR
STARTCHAR 0307
ENCODING 775
SWIDTH 0 0
DWIDTH 0 0
BBX 7 7 -16 26
BITMAP
38
7C
FE
FE
FE
7C
38
ENDCHAR
STARTCHAR 0308
ENCODING 776
SWIDTH 0 0
DWIDTH 0 0
BBX 15 6 -20 26
BITMAP
783C
FC7E
FC7E
FC7E
FC7E
783C
ENDCHAR
STARTCHAR 030A
ENCODING 778
SWIDTH 0 0
DWIDTH 0 0
BBX 10 10 -18 25
BITMAP
3F00
7F80
E1C0
C0C0
C0C0
C0C0
E0C0
6180
7F80
1E00
ENDCHAR
STARTCHAR 030B
ENCODING 779
SWIDTH 0 0
DWIDTH 0 0
BBX 14 9 -17 25
BITMAP
061C
0F3C
1F3C
1E7C
3CF8
78E0
71C0
C180
8100
ENDCHAR
STARTCHAR 030C
ENCODING 780
SWIDTH 0 0
DWIDTH 0 0
BBX 13 8 -19 25
BITMAP
8008
C018
7070
38E0
3DC0
1FC0
0F80
0700
ENDCHAR
STARTCHAR 030F
ENCODING 783
SWIDTH 0 0
DWIDTH 0 0
BBX 14 9 -23 25
BITMAP
61C0
F1E0
F9E0
79F0
3CF8
1E38
0E1C
030C
0104
ENDCHAR
STARTCHAR 0311
ENCODING 785
SWIDTH 0 0
DWIDTH 0 0
BBX 13 8 -19 24
BITMAP
0F00
1FC0
3FE0
7FE0
7070
C030
C018
8008
ENDCHAR
STARTCHAR 0312
ENCODING 786
SWIDTH 0 0
DWIDTH 0 0
BBX 8 11 -16 25
BITMAP
0E
18
30
60
E0
E0
FE
FE
FF
7E
3C
ENDCHAR
STARTCHAR 0313
ENCODING 787
SWIDTH 0 0
DWIDTH 0 0
BBX 7 11 -16 24
BITMAP
78
FC
FC
FE
FE
0E
0C
0C
18
30
E0
ENDCHAR
STARTCHAR 0314
ENCODING 788
SWIDTH 0 0
DWIDTH 0 0
BBX 7 11 -16 24
BITMAP
3C
7E
FE
FE
FE
E0
E0
60
30
18
0E
ENDCHAR
STARTCHAR 0316
ENCODING 790
SWIDTH 0 0
DWIDTH 0 0
BBX 8 9 -19 -11
BITMAP
60
F0
F8
7C
3C
1E
0F
03
01
ENDCHAR
STARTCHAR 0317
ENCODING 791
SWIDTH 0 0
DWIDTH 0 0
BBX 8 9 -14 -11
BITMAP
06
0F
1F
3E
3C
78
F0
C0
80
ENDCHAR
STARTCHAR 0323
ENCODING 803
SWIDTH 0 0
DWIDTH 0 0
BBX 7 7 -16 -10
BITMAP
38
7C
FE
FE
FE
7C
38
ENDCHAR
STARTCHAR 0324
ENCODING 804
SWIDTH 0 0
DWIDTH 0 0
BBX 15 6 -20 -9
BITMAP
783C
FC7E
FC7E
FC7E
FC7E
783C
ENDCHAR
STARTCHAR 0325
ENCODING 805
SWIDTH 0 0
DWIDTH 0 0
BBX 10 10 -18 -11
BITMAP
1E00
7F80
6180
C0C0
C0C0
C0C0
C0C0
6180
7F80
1E00
ENDCHAR
STARTCHAR 0326
ENCODING 806
SWIDTH 0 0
DWIDTH 0 0
BBX 6 10 -16 -11
BITMAP
70
F8
FC
FC
7C
1C
18
18
70
C0
ENDCHAR
STARTCHAR 0327
ENCODING 807
SWIDTH 0 0
DWIDTH 0 0
BBX 10 10 -18 -10
BITMAP
0800
0800
1800
0F00
0780
03C0
03C0
03C0
C780
3F00
ENDCHAR
STARTCHAR 0328
ENCODING 808
SWIDTH 0 0
DWIDTH 0 0
BBX 8 11 -19 -11
BITMAP
06
08
30
70
60
E0
E0
E1
FF
7E
3C
ENDCHAR
STARTCHAR 032C
ENCODING 812
SWIDTH 0 0
DWIDTH 0 0
BBX 13 8 -19 -11
BITMAP
8008
C018
7070
38E0
3DC0
1FC0
0F80
0700
ENDCHAR
STARTCHAR 032D
ENCODING 813
SWIDTH 0 0
DWIDTH 0 0
BBX 15 9 -20 -11
BITMAP
0380
07C0
07C0
0FE0
0EE0
1C70
3838
E00E
0004
ENDCHAR
STARTCHAR 032E
ENCODING 814
SWIDTH 0 0
DWIDTH 0 0
BBX 13 8 -19 -10
BITMAP
8008
8008
C018
C038
7070
7FE0
3FE0
0F80
ENDCHAR
STARTCHAR 032F
ENCODING 815
SWIDTH 0 0
DWIDTH 0 0
BBX 13 8 -19 -11
BITMAP
0F00
1FC0
3FE0
7FE0
7070
C030
C018
8008
ENDCHAR
STARTCHAR 0330
ENCODING 816
SWIDTH 0 0
DWIDTH 0 0
BBX 14 5 -20 -9
BITMAP
3E04
7F8C
7FF8
C7F8
81F0
ENDCHAR
STARTCHAR 0331
ENCODING 817
SWIDTH 0 0
DWIDTH 0 0
BBX 12 3 -19 -8
BITMAP
FFF0
FFF0
FFF0
ENDCHAR
STARTCHAR 0332
ENCODING 818
SWIDTH 0 0
DWIDTH 0 0
BBX 25 3 -25 -8
BITMAP
FFFFFF80
FFFFFF80
FFFFFF80
ENDCHAR
STARTCHAR 0333
ENCODING 819
SWIDTH 0 0
DWIDTH 0 0
BBX 25 9 -25 -14
BITMAP
FFFFFF80
FFFFFF80
FFFFFF80
00000000
00000000
00000000
FFFFFF80
FFFFFF80
FFFFFF80
ENDCHAR
STARTCHAR 033E
ENCODING 830
SWIDTH 0 0
DWIDTH 0 0
BBX 4 12 -15 24
BITMAP
C0
60
70
70
70
F0
F0
E0
E0
E0
60
30
ENDCHAR
STARTCHAR 0342
ENCODING 834
SWIDTH 0 0
DWIDTH 0 0
BBX 17 6 -21 26
BITMAP
1E0080
3F8180
7FE300
63FE00
C0FE00
807800
ENDCHAR
STARTCHAR 0343
ENCODING 835
SWIDTH 0 0
DWIDTH 0 0
BBX 7 11 -16 24
BITMAP
78
FC
FE
FE
7E
06
06
04
0C
18
30
ENDCHAR
STARTCHAR 0344
ENCODING 836
SWIDTH 0 0
DWIDTH 0 0
BBX 16 12 -20 24
BITMAP
0030
0078
0078
0070
00F0
00E0
00C0
79DE
FDBF
FD3F
FD3F
781E
ENDCHAR
STARTCHAR 0345
ENCODING 837
SWIDTH 0 0
DWIDTH 0 0
BBX 5 10 -15 -13
BITMAP
60
70
70
70
70
F8
F8
F8
F8
70
ENDCHAR
STARTCHAR 0351
ENCODING 849
SWIDTH 0 0
DWIDTH 0 0
BBX 6 10 -15 25
BITMAP
3C
7C
F0
E0
E0
E0
E0
70
7C
1C
ENDCHAR
STARTCHAR 0357
ENCODING 855
SWIDTH 0 0
DWIDTH 0 0
BBX 5 10 -15 25
BITMAP
E0
F0
38
18
18
18
18
38
F0
C0
ENDCHAR
STARTCHAR 0359
ENCODING 857
SWIDTH 0 0
DWIDTH 0 0
BBX 11 12 -18 -13
BITMAP
0E00
0E00
0E00
EEE0
E4E0
F5E0
0E00
F5E0
F5E0
EEE0
0E00
0E00
ENDCHAR
STARTCHAR 035C
ENCODING 860
SWIDTH 0 0
DWIDTH 0 0
BBX 28 7 -14 -11
BITMAP
80000010
E0000070
7E0007E0
1FFFFF80
07FFFE00
01FFF800
003FC000
ENDCHAR
STARTCHAR 035D
ENCODING 861
SWIDTH 0 0
DWIDTH 0 0
BBX 28 7 -14 32
BITMAP
80000010
E0000070
7E0007E0
1FFFFF80
07FFFE00
01FFF800
003FC000
ENDCHAR
STARTCHAR 0361
ENCODING 865
SWIDTH 0 0
DWIDTH 0 0
BBX 28 7 -14 32
BITMAP
003FC000
01FFF800
07FFFE00
1FFFFF80
7E0007E0
E0000070
80000010
ENDCHAR
STARTCHAR 0363
ENCODING 867
SWIDTH 0 0
DWIDTH 0 0
BBX 14 13 -19 25
BITMAP
1F00
33C0
61E0
71E0
71E0
23E0
1DE0
79E0
F1E0
F1E4
F1E4
F1E4
7EF8
ENDCHAR
STARTCHAR 0364
ENCODING 868
SWIDTH 0 0
DWIDTH 0 0
BBX 12 13 -19 25
BITMAP
0F00
39C0
70E0
70E0
F0F0
F0F0
FFF0
F000
F000
7010
7830
3860
0FC0
ENDCHAR
STARTCHAR 0365
ENCODING 869
SWIDTH 0 0
DWIDTH 0 0
BBX 7 19 -16 25
BITMAP
38
7C
7C
7C
38
00
F8
78
78
78
78
78
78
78
78
78
78
78
FE
ENDCHAR
STARTCHAR 0366
ENCODING 870
SWIDTH 0 0
DWIDTH 0 0
BBX 12 13 -19 25
BITMAP
0F00
39C0
70E0
70E0
F0F0
F0F0
F0F0
F0F0
F0F0
70E0
70E0
39C0
1F80
ENDCHAR
STARTCHAR 0367
ENCODING 871
SWIDTH 0 0
DWIDTH 0 0
BBX 15 13 -21 25
BITMAP
FCFC
3C3C
3C3C
3C3C
3C3C
3C3C
3C3C
3C3C
3C3C
3C3C
3C7C
1CBC
0F3E
ENDCHAR
STARTCHAR 0368
ENCODING 872
SWIDTH 0 0
DWIDTH 0 0
BBX 12 13 -18 25
BITMAP
0F80
38C0
7860
70E0
F1E0
F1C0
F000
F000
F010
7020
7820
3840
0F80
ENDCHAR
STARTCHAR 0369
ENCODING 873
SWIDTH 0 0
DWIDTH 0 0
BBX 14 18 -19 25
BITMAP
03F0
00F0
00F0
00F0
00F0
1CF0
3AF0
71F0
70F0
F0F0
F0F0
F0F0
F0F0
F0F0
70F0
71F0
39F0
1EFC
ENDCHAR
STARTCHAR 036A
ENCODING 874
SWIDTH 0 0
DWIDTH 0 0
BBX 16 19 -20 24
BITMAP
FC00
3C00
3C00
3C00
3C00
3C00
3CF0
3D38
3E3C
3E3C
3C3C
3C3C
3C3C
3C3C
3C3C
3C3C
3C3C
3C3C
FFFF
ENDCHAR
STARTCHAR 036B
ENCODING 875
SWIDTH 0 0
DWIDTH 0 0
BBX 22 13 -24 25
BITMAP
FCE1C0
3F76E0
3E7CF0
3C78F0
3C78F0
3C78F0
3C78F0
3C78F0
3C78F0
3C78F0
3C78F0
3C78F0
FEFDFC
ENDCHAR
STARTCHAR 036C
ENCODING 876
SWIDTH 0 0
DWIDTH 0 0
BBX 12 13 -17 25
BITMAP
FCE0
3FF0
3EF0
3CF0
3CE0
3C00
3C00
3C00
3C00
3C00
3C00
3C00
FE00
ENDCHAR
STARTCHAR 036D
ENCODING 877
SWIDTH 0 0
DWIDTH 0 0
BBX 9 17 -17 25
BITMAP
1800
1800
1800
3800
7800
FF00
7800
7800
7800
7800
7800
7880
7880
7880
7880
7900
3F00
ENDCHAR
STARTCHAR 036E
ENCODING 878
SWIDTH 0 0
DWIDTH 0 0
BBX 14 13 -20 25
BITMAP
FE7C
3C18
3C10
1E10
1E20
1E20
0F40
0F40
07C0
0780
0380
0300
0300
ENDCHAR
STARTCHAR 036F
ENCODING 879
SWIDTH 0 0
DWIDTH 0 0
BBX 14 13 -19 25
BITMAP
FEF8
7C60
3C40
1EC0
1F80
0F00
0780
07C0
0FC0
09E0
11F0
30F0
F9FC
ENDCHAR
STARTCHAR 0374
ENCODING 884
SWIDTH 250 0
DWIDTH 12 0
BBX 8 11 2 24
BITMAP
06
0F
1F
1E
3E
3C
78
70
60
E0
C0
ENDCHAR
STARTCHAR 0375
ENCODING 885
SWIDTH 250 0
DWIDTH 12 0
BBX 8 11 1 -13
BITMAP
03
07
06
0E
1E
3C
7C
F8
F8
F0
60
ENDCHAR
STARTCHAR 037A
ENCODING 890
SWIDTH 437 0
DWIDTH 21 0
BBX 5 10 8 -13
BITMAP
60
70
70
70
70
F8
F8
F8
F8
70
ENDCHAR
STARTCHAR 037E
ENCODING 894
SWIDTH 270 0
DWIDTH 13 0
BBX 9 32 2 -9
BITMAP
3F00
7F80
7F80
7F80
7F80
3F00
0000
0000
0000
0000
0000
0000
0000
0000
0000
0000
3C00
7F00
FF00
FF80
FF80
FF80
3980
0180
0180
0300
0300
0600
0C00
3800
F000
4000
ENDCHAR
STARTCHAR 0384
ENCODING 900
SWIDTH 250 0
DWIDTH 12 0
BBX 8 11 4 24
BITMAP
06
0F
1F
1E
3E
3C
78
70
60
E0
C0
ENDCHAR
STARTCHAR 0385
ENCODING 901
SWIDTH 458 0
DWIDTH 22 0
BBX 16 12 3 24
BITMAP
0030
0078
0078
0070
00F0
00E0
00C0
79DE
FDBF
FD3F
FD3F
781E
ENDCHAR
STARTCHAR 0386
ENCODING 902
SWIDTH 770 0
DWIDTH 37 0
BBX 33 36 3 -1
BITMAP
0700000000
0780C00000
0F81C00000
0F01E00000
1F01E00000
1E03E00000
3C03F00000
3803F00000
7007F00000
6007F80000
4007F80000
000FF80000
000FFC0000
000BFC0000
0019FC0000
0019FE0000
0030FE0000
0030FE0000
0030FF0000
00607F0000
00607F0000
00607F8000
00C03F8000
00C03F8000
00C03FC000
01FFFFC000
01FFFFC000
01801FE000
03000FE000
03000FE000
03000FF000
060007F000
0E0007F800
1F000FFC00
FFF0FFFF80
FFF0FFFF80
ENDCHAR
STARTCHAR 0387
ENCODING 903
SWIDTH 270 0
DWIDTH 13 0
BBX 7 7 3 17
BITMAP
38
7C
FE
FE
FE
7C
38
ENDCHAR
STARTCHAR 0388
ENCODING 904
SWIDTH 937 0
DWIDTH 45 0
BBX 38 36 4 -1
BITMAP
0600000000
0F00000000
1F3FFFFFFC
1E3FFFFFFC
3E01FC01FC
3C01FC00FC
7801FC007C
7001FC003C
6001FC001C
C001FC001C
C001FC000C
0001FC060C
0001FC060C
0001FC0600
0001FC0E00
0001FC1E00
0001FC3E00
0001FFFE00
0001FFFE00
0001FC3E00
0001FC1E00
0001FC0E00
0001FC0E04
0001FC060C
0001FC060C
0001FC060C
0001FC000C
0001FC001C
0001FC001C
0001FC001C
0001FC003C
0001FC007C
0001FC00FC
0001FC01FC
003FFFFFFC
003FFFFFFC
ENDCHAR
STARTCHAR 0389
ENCODING 905
SWIDTH 1062 0
DWIDTH 51 0
BBX 45 36 4 -1
BITMAP
070000000000
0F0000000000
0F1FFFE7FFF8
1F1FFFE7FFF8
1E00FE003F80
3E00FE003F80
3C00FE003F80
3800FE003F80
7000FE003F80
6000FE003F80
C000FE003F80
0000FE003F80
0000FE003F80
0000FE003F80
0000FE003F80
0000FE003F80
0000FE003F80
0000FFFFFF80
0000FFFFFF80
0000FE003F80
0000FE003F80
0000FE003F80
0000FE003F80
0000FE003F80
0000FE003F80
0000FE003F80
0000FE003F80
0000FE003F80
0000FE003F80
0000FE003F80
0000FE003F80
0000FE003F80
0000FE003F80
0000FE003F80
001FFFE7FFF8
001FFFE7FFF8
ENDCHAR
STARTCHAR 038A
ENCODING 906
SWIDTH 687 0
DWIDTH 33 0
BBX 27 36 4 -1
BITMAP
07000000
0F000000
0F1FFFE0
1F1FFFE0
1E00FE00
1E00FE00
3C00FE00
3800FE00
7000FE00
6000FE00
C000FE00
4000FE00
0000FE00
0000FE00
0000FE00
0000FE00
0000FE00
0000FE00
0000FE00
0000FE00
0000FE00
0000FE00
0000FE00
0000FE00
0000FE00
0000FE00
0000FE00
0000FE00
0000FE00
0000FE00
0000FE00
0000FE00
0000FE00
0000FE00
001FFFE0
001FFFE0
ENDCHAR
STARTCHAR 038C
ENCODING 908
SWIDTH 854 0
DWIDTH 41 0
BBX 35 36 4 -1
BITMAP
07001E0000
0F00FFC000
0F03E1F000
1F07807800
1E0F003C00
3C1F003E00
381E003E00
703E001F00
607E001F80
E07E001F80
40FE001F80
00FE001FC0
00FE001FC0
00FE001FC0
01FE001FE0
01FE001FE0
01FE001FE0
01FE001FE0
01FE001FE0
01FE001FE0
01FE001FE0
01FE001FE0
01FE001FC0
00FE001FC0
00FE001FC0
00FE001FC0
007E001F80
007E001F80
003E001F00
003E001F00
001F003E00
000F003C00
0007807800
0003C0F000
0000FFC000
00003F0000
ENDCHAR
STARTCHAR 038E
ENCODING 910
SWIDTH 937 0
DWIDTH 45 0
BBX 40 36 4 -1
BITMAP
0600000000
0F300000F8
1F3E0003FC
1F1F8007FE
3E07C00E3F
3C03E01C3F
3801F0387F
7000F830FF
70007C60FF
E0007C60FE
C0003E607E
80003E4038
00003FC000
00001FC000
00001FC000
00001FC000
00001FC000
00001FC000
00001FC000
00001FC000
00001FC000
00001FC000
00001FC000
00001FC000
00001FC000
00001FC000
00001FC000
00001FC000
00001FC000
00001FC000
00001FC000
00001FC000
00001FC000
00001FC000
0001FFFE00
0001FFFE00
ENDCHAR
STARTCHAR 038F
ENCODING 911
SWIDTH 895 0
DWIDTH 43 0
BBX 36 36 4 -1
BITMAP
0E00000000
0F007FC000
1F03FFF800
1E07E0FC00
3E1FC07F00
3C3F803F80
787F001FC0
707F001FC0
E0FF001FE0
E0FE000FE0
C1FE000FF0
81FE000FF0
01FE000FF0
01FE000FF0
01FE000FF0
01FE000FF0
01FE000FF0
01FE000FF0
00FE000FE0
00FE000FE0
007F001FC0
007F001F80
003F001F80
001F803F00
0007807C00
0003C0F800
0080F1E020
0080318020
0080318020
0080318020
00FFF1FFE0
00FFF1FFE0
00FFF1FFE0
00FFF1FFE0
00FFF1FFE0
00FFF1FFE0
ENDCHAR
STARTCHAR 0390
ENCODING 912
SWIDTH 333 0
DWIDTH 16 0
BBX 16 36 -1 0
BITMAP
0078
0078
00F8
00F0
00E0
01C0
79DE
FDBF
FF3F
FD3F
781E
0000
0000
03C0
07E0
07E0
07E0
07C0
07C0
0780
0780
0700
0600
0600
0400
0400
0400
0404
0404
070C
07FC
07FC
07F8
07F8
03F0
01E0
ENDCHAR
STARTCHAR 0391
ENCODING 913
SWIDTH 750 0
DWIDTH 36 0
BBX 33 35 2 0
BITMAP
0000C00000
0001C00000
0001E00000
0001E00000
0003E00000
0003F00000
0003F00000
0007F00000
0007F80000
0007F80000
000FF80000
000FFC0000
000FFC0000
0019FC0000
0019FE0000
0019FE0000
0030FE0000
0030FF0000
0020FF0000
00607F0000
00607F8000
00407F8000
00C03F8000
00C03FC000
01FFFFC000
01FFFFC000
01801FE000
03001FE000
03000FE000
03000FF000
060007F000
060007F800
0F0007F800
FFF0FFFF80
FFF0FFFF80
ENDCHAR
STARTCHAR 0392
ENCODING 914
SWIDTH 687 0
DWIDTH 33 0
BBX 28 34 3 0
BITMAP
FFFFE000
FFFFFC00
0FE03F00
0FE01F80
0FE01FC0
0FE00FC0
0FE00FE0
0FE00FE0
0FE00FE0
0FE00FE0
0FE00FE0
0FE00FC0
0FE01F80
0FE01F00
0FE03E00
0FFFF000
0FFFF000
0FE07E00
0FE01F80
0FE01FC0
0FE00FE0
0FE00FE0
0FE00FF0
0FE00FF0
0FE00FF0
0FE00FF0
0FE00FF0
0FE00FF0
0FE00FE0
0FE01FE0
0FE01FC0
0FE03F80
FFFFFE00
FFFFF800
ENDCHAR
STARTCHAR 0393
ENCODING 915
SWIDTH 645 0
DWIDTH 31 0
BBX 26 34 3 0
BITMAP
FFFFFFC0
FFFFFFC0
07F03FC0
07F01FC0
07F00FC0
07F007C0
07F003C0
07F003C0
07F001C0
07F001C0
07F000C0
07F000C0
07F000C0
07F000C0
07F00000
07F00000
07F00000
07F00000
07F00000
07F00000
07F00000
07F00000
07F00000
07F00000
07F00000
07F00000
07F00000
07F00000
07F00000
07F00000
07F00000
07F00000
FFFF8000
FFFF8000
ENDCHAR
STARTCHAR 0394
ENCODING 916
SWIDTH 666 0
DWIDTH 32 0
BBX 28 35 3 0
BITMAP
00060000
00070000
000F0000
000F0000
001F8000
001F8000
001FC000
003FC000
003FC000
006FE000
006FE000
0047E000
00C7F000
00C3F000
0183F000
0183F800
0181F800
0301FC00
0301FC00
0600FC00
0600FE00
06007E00
0C007E00
0C007F00
08003F00
18003F00
18003F80
30001F80
30001FC0
3FFFFFC0
7FFFFFC0
7FFFFFE0
FFFFFFE0
FFFFFFE0
FFFFFFF0
ENDCHAR
STARTCHAR 0395
ENCODING 917
SWIDTH 687 0
DWIDTH 33 0
BBX 27 34 3 0
BITMAP
FFFFFFE0
FFFFFFE0
0FE00FE0
0FE007E0
0FE003E0
0FE001E0
0FE000E0
0FE000E0
0FE000E0
0FE03060
0FE03060
0FE03000
0FE07000
0FE07000
0FE0F000
0FE1F000
0FFFF000
0FFFF000
0FE1F000
0FE0F000
0FE07000
0FE03060
0FE03060
0FE03060
0FE00060
0FE00060
0FE000E0
0FE000E0
0FE001E0
0FE003E0
0FE007E0
0FE00FE0
FFFFFFE0
FFFFFFE0
ENDCHAR
STARTCHAR 0396
ENCODING 918
SWIDTH 645 0
DWIDTH 31 0
BBX 25 34 3 0
BITMAP
7FFFFF80
7FFFFF80
7F807F80
7E00FF00
7C01FF00
7801FE00
7003FE00
7003FC00
6007F800
6007F800
600FF000
400FF000
001FE000
003FE000
003FC000
007F8000
007F8000
00FF0000
00FF0000
01FE0000
03FE0000
03FC0080
07F80080
07F80080
0FF00180
0FF00180
1FE00380
1FE00380
3FC00780
7F800F80
7F801F80
FF007F80
FFFFFF80
FFFFFF80
ENDCHAR
STARTCHAR 0397
ENCODING 919
SWIDTH 812 0
DWIDTH 39 0
BBX 34 34 3 0
BITMAP
FFFF3FFFC0
FFFF3FFFC0
07F001FC00
07F001FC00
07F001FC00
07F001FC00
07F001FC00
07F001FC00
07F001FC00
07F001FC00
07F001FC00
07F001FC00
07F001FC00
07F001FC00
07F001FC00
07FFFFFC00
07FFFFFC00
07F001FC00
07F001FC00
07F001FC00
07F001FC00
07F001FC00
07F001FC00
07F001FC00
07F001FC00
07F001FC00
07F001FC00
07F001FC00
07F001FC00
07F001FC00
07F001FC00
07F001FC00
FFFF3FFFC0
FFFF3FFFC0
ENDCHAR
STARTCHAR 0398
ENCODING 920
SWIDTH 708 0
DWIDTH 34 0
BBX 29 36 3 -1
BITMAP
000F8000
007FF000
01F07C00
03C01E00
07800F00
0F800F80
1F800FC0
1F0007C0
3F0007E0
3F0007E0
7F0007F0
7F0007F0
7F3067F0
FF3067F8
FF3067F8
FF3FE7F8
FF3FE7F8
FF3FE7F8
FF3FE7F8
FF3FE7F8
FF3067F8
FF3067F8
FF3067F8
7F0007F0
7F0007F0
7F0007F0
3F0007E0
3F0007E0
1F0007C0
1F000FC0
0F800F80
07800F00
03C01E00
01E03C00
007FF000
001FC000
ENDCHAR
STARTCHAR 0399
ENCODING 921
SWIDTH 437 0
DWIDTH 21 0
BBX 16 34 3 0
BITMAP
FFFF
FFFF
07F0
07F0
07F0
07F0
07F0
07F0
07F0
07F0
07F0
07F0
07F0
07F0
07F0
07F0
07F0
07F0
07F0
07F0
07F0
07F0
07F0
07F0
07F0
07F0
07F0
07F0
07F0
07F0
07F0
07F0
FFFF
FFFF
ENDCHAR
STARTCHAR 039A
ENCODING 922
SWIDTH 770 0
DWIDTH 37 0
BBX 33 34 3 0
BITMAP
FFFF1FFE00
FFFF1FFE00
07F003F000
07F003C000
07F0038000
07F0030000
07F0060000
07F00C0000
07F01C0000
07F0380000
07F0300000
07F0600000
07F0E00000
07F1F00000
07F3F00000
07F7F80000
07FFF80000
07FFFC0000
07F9FE0000
07F1FE0000
07F0FF0000
07F0FF0000
07F07F8000
07F07F8000
07F03FC000
07F03FC000
07F01FE000
07F01FE000
07F00FF000
07F00FF800
07F007F800
07F007FC00
FFFF3FFF80
FFFF3FFF80
ENDCHAR
STARTCHAR 039B
ENCODING 923
SWIDTH 750 0
DWIDTH 36 0
BBX 33 35 2 0
BITMAP
0000C00000
0001C00000
0001E00000
0001E00000
0003E00000
0003F00000
0003F00000
0007F00000
0007F80000
0007F80000
000FF80000
000FFC0000
000FFC0000
0019FC0000
0019FE0000
0011FE0000
0030FE0000
0030FF0000
0020FF0000
00607F0000
00607F8000
00407F8000
00C03F8000
00C03FC000
01801FC000
01801FC000
01801FE000
03000FE000
03000FE000
03000FF000
060007F000
060007F800
0F0007F800
FFF0FFFF80
FFF0FFFF80
ENDCHAR
STARTCHAR 039C
ENCODING 924
SWIDTH 895 0
DWIDTH 43 0
BBX 39 34 2 -1
BITMAP
FFF0003FFE
FFF0003FFE
07F8003FC0
07F8003FC0
07F8007FC0
07FC007FC0
07FC005FC0
07FC005FC0
07FE00DFC0
06FE00DFC0
06FF009FC0
067F019FC0
067F019FC0
067F819FC0
063F811FC0
063F831FC0
063FC31FC0
061FC31FC0
061FE21FC0
060FE61FC0
060FE61FC0
060FF41FC0
0607F41FC0
0607FC1FC0
0603FC1FC0
0603F81FC0
0603F81FC0
0601F81FC0
0601F81FC0
0E01F01FC0
0F00F01FC0
3F80F01FC0
FFF071FFFE
FFF061FFFE
ENDCHAR
STARTCHAR 039D
ENCODING 925
SWIDTH 770 0
DWIDTH 37 0
BBX 34 35 2 -1
BITMAP
FFE00FFFC0
FFF00FFFC0
1FF001FE00
0FF800FC00
0FFC007800
07FC003000
03FE003000
03FF003000
03FF803000
03FF803000
037FC03000
033FE03000
033FE03000
031FF03000
030FF83000
030FF83000
0307FC3000
0303FE3000
0301FF3000
0301FF3000
0300FFB000
03007FF000
03007FF000
03003FF000
03001FF000
03001FF000
03000FF000
030007F000
030007F000
078003F000
078001F000
1FE001F000
FFFC00F000
FFFC007000
0000003000
ENDCHAR
STARTCHAR 039E
ENCODING 926
SWIDTH 687 0
DWIDTH 33 0
BBX 26 34 4 0
BITMAP
FFFFFFC0
FFFFFFC0
FFFFFFC0
FFFFFFC0
FFFFFFC0
FFFFFFC0
C00000C0
C00000C0
C00000C0
C00000C0
C00000C0
03003000
03003000
03003000
03FFF000
03FFF000
03FFF000
03FFF000
03FFF000
03003000
03003000
03003000
00000000
00000000
C00000C0
C00000C0
C00000C0
C00000C0
FFFFFFC0
FFFFFFC0
FFFFFFC0
FFFFFFC0
FFFFFFC0
FFFFFFC0
ENDCHAR
STARTCHAR 039F
ENCODING 927
SWIDTH 687 0
DWIDTH 33 0
BBX 28 36 3 -1
BITMAP
000F0000
007FE000
01F0F800
03C03C00
07801E00
0F801F00
0F001F00
1F000F80
3F000FC0
3F000FC0
7F000FC0
7F000FE0
7F000FE0
7F000FE0
FF000FF0
FF000FF0
FF000FF0
FF000FF0
FF000FF0
FF000FF0
FF000FF0
FF000FF0
FF000FE0
7F000FE0
7F000FE0
7F000FE0
3F000FC0
3F000FC0
1F000F80
1F000F80
0F801F00
07801E00
03C03C00
01E07800
007FE000
001F8000
ENDCHAR
STARTCHAR 03A0
ENCODING 928
SWIDTH 812 0
DWIDTH 39 0
BBX 34 34 3 0
BITMAP
FFFFFFFFC0
FFFFFFFFC0
07F003F800
07F003F800
07F003F800
07F003F800
07F003F800
07F003F800
07F003F800
07F003F800
07F003F800
07F003F800
07F003F800
07F003F800
07F003F800
07F003F800
07F003F800
07F003F800
07F003F800
07F003F800
07F003F800
07F003F800
07F003F800
07F003F800
07F003F800
07F003F800
07F003F800
07F003F800
07F003F800
07F003F800
07F003F800
07F003F800
FFFF3FFFC0
FFFF3FFFC0
ENDCHAR
STARTCHAR 03A1
ENCODING 929
SWIDTH 708 0
DWIDTH 34 0
BBX 29 34 3 0
BITMAP
FFFFF800
FFFFFF00
07F01FC0
07F00FE0
07F00FF0
07F007F0
07F007F8
07F007F8
07F007F8
07F007F8
07F007F8
07F007F8
07F007F0
07F00FF0
07F00FE0
07F01FC0
07FFFF00
07FFFC00
07F00000
07F00000
07F00000
07F00000
07F00000
07F00000
07F00000
07F00000
07F00000
07F00000
07F00000
07F00000
07F00000
07F00000
FFFF8000
FFFF8000
ENDCHAR
STARTCHAR 03A3
ENCODING 931
SWIDTH 687 0
DWIDTH 33 0
BBX 26 34 4 0
BITMAP
FFFFFFC0
FFFFFFC0
FF801FC0
7FC007C0
3FC003C0
3FE003C0
1FF001C0
0FF801C0
0FF800C0
07FC00C0
03FE00C0
01FE0000
01FF0000
00FF8000
007F8000
007FC000
003F8000
001F0000
001E0000
000C0000
00180000
00300040
00600040
00C000C0
018000C0
030000C0
060001C0
0C0003C0
1FFFFFC0
3FFFFFC0
7FFFFFC0
FFFFFFC0
FFFFFFC0
FFFFFFC0
ENDCHAR
STARTCHAR 03A4
ENCODING 932
SWIDTH 708 0
DWIDTH 34 0
BBX 29 34 3 0
BITMAP
FFFFFFF8
FFFFFFF8
FE1FC3F8
FC1FC1F8
F81FC0F8
F01FC078
F01FC078
E01FC038
E01FC038
E01FC038
C01FC018
C01FC018
C01FC018
801FC008
001FC000
001FC000
001FC000
001FC000
001FC000
001FC000
001FC000
001FC000
001FC000
001FC000
001FC000
001FC000
001FC000
001FC000
001FC000
001FC000
001FC000
001FC000
03FFFE00
03FFFE00
ENDCHAR
STARTCHAR 03A5
ENCODING 933
SWIDTH 708 0
DWIDTH 34 0
BBX 30 35 3 0
BITMAP
800003C0
F0000FF0
FC001FF8
1F0038FC
0F8070FC
07C0E1FC
03E0C3FC
01F1C3FC
01F183F8
00F981F8
00F900E0
00FF0000
007F0000
007F0000
007F0000
007F0000
007F0000
007F0000
007F0000
007F0000
007F0000
007F0000
007F0000
007F0000
007F0000
007F0000
007F0000
007F0000
007F0000
007F0000
007F0000
007F0000
007F0000
07FFF800
07FFF800
ENDCHAR
STARTCHAR 03A6
ENCODING 934
SWIDTH 854 0
DWIDTH 41 0
BBX 37 34 2 0
BITMAP
003FFFC000
003FFFC000
0001FC0000
0001FC0000
0001FC0000
0001FC0000
007FFFF000
03FFFFFE00
07E1FC3F00
1FC1FC1FC0
3F81FC0FE0
3F81FC0FE0
7F01FC07F0
7F01FC07F0
FF01FC07F8
FF01FC07F8
FF01FC07F8
FF01FC07F8
FF01FC07F8
FF01FC07F8
7F01FC07F0
7F01FC07F0
3F81FC0FE0
3F81FC0FE0
1FC1FC1FC0
0FE1FC3F00
03FFFFFE00
007FFFF000
0001FC0000
0001FC0000
0001FC0000
0001FC0000
003FFFC000
003FFFC000
ENDCHAR
STARTCHAR 03A7
ENCODING 935
SWIDTH 750 0
DWIDTH 36 0
BBX 33 34 2 0
BITMAP
7FFF1FFE00
7FFF1FFE00
0FFC03E000
07F803C000
03F8038000
03FC038000
01FE030000
01FE060000
00FF060000
00FF8C0000
007F980000
003FD80000
003FF00000
001FE00000
001FE00000
000FF00000
000FF00000
0007F80000
0007FC0000
0007FC0000
000FFE0000
001DFE0000
0018FF0000
0030FF0000
00707F8000
00607FC000
00C03FC000
01C03FE000
01801FE000
03801FF000
07000FF800
0F800FFC00
FFF07FFF80
FFF07FFF80
ENDCHAR
STARTCHAR 03A8
ENCODING 936
SWIDTH 937 0
DWIDTH 45 0
BBX 41 35 3 0
BITMAP
000000007C00
E01FFFE0FE00
FC1FFFE1FF00
3F00FE03FF80
1F00FE03FF80
1F80FE033F80
1F80FE073F80
1FC0FE063F80
1FC0FE063F00
1FC0FE061E00
1FC0FE060000
1FC0FE060000
1FC0FE060000
1FC0FE060000
1FC0FE060000
1FC0FE060000
1FC0FE060000
0FC0FE060000
0FC0FE0E0000
0FC0FE0C0000
07C0FE0C0000
07E0FE1C0000
03E0FE180000
01F0FE300000
00FCFEE00000
003FFFC00000
0000FE000000
0000FE000000
0000FE000000
0000FE000000
0000FE000000
0000FE000000
0000FE000000
001FFFE00000
001FFFE00000
ENDCHAR
STARTCHAR 03A9
ENCODING 937
SWIDTH 750 0
DWIDTH 36 0
BBX 29 35 4 0
BITMAP
001FC000
00FFF800
03F07E00
0FE03F80
1FC01FC0
3F800FE0
3F800FE0
7F800FF0
7F0007F0
FF0007F8
FF0007F8
FF0007F8
FF0007F8
FF0007F8
FF0007F8
FF0007F8
FF0007F8
7F0007F0
7F0007F0
3F800FE0
3F800FE0
1F800FC0
0FC01F80
03C01E00
01E07C00
4078F010
4018C010
4018C010
4018C010
7FF8FFF0
7FF8FFF0
7FF8FFF0
7FF8FFF0
7FF8FFF0
7FF8FFF0
ENDCHAR
STARTCHAR 03AA
ENCODING 938
SWIDTH 437 0
DWIDTH 21 0
BBX 16 43 3 0
BITMAP
781E
FC3F
FC3F
FC3F
FC3F
781E
0000
0000
0000
FFFF
FFFF
0FE0
0FE0
0FE0
0FE0
0FE0
0FE0
0FE0
0FE0
0FE0
0FE0
0FE0
0FE0
0FE0
0FE0
0FE0
0FE0
0FE0
0FE0
0FE0
0FE0
0FE0
0FE0
0FE0
0FE0
0FE0
0FE0
0FE0
0FE0
0FE0
0FE0
FFFF
FFFF
ENDCHAR
STARTCHAR 03AB
ENCODING 939
SWIDTH 708 0
DWIDTH 34 0
BBX 30 43 3 0
BITMAP
01E0F000
03F1F800
03F1F800
03F1F800
03F1F800
01E0F000
00000000
00000000
800003C0
F0000FF0
FC001FF8
1F0038FC
0F8070FC
07C0E1FC
03E0C3FC
01F0C3FC
01F183F8
00F981F8
00F900E0
00FF0000
007F0000
007F0000
007F0000
007F0000
007F0000
007F0000
007F0000
007F0000
007F0000
007F0000
007F0000
007F0000
007F0000
007F0000
007F0000
007F0000
007F0000
007F0000
007F0000
007F0000
007F0000
07FFF800
07FFF800
ENDCHAR
STARTCHAR 03AC
ENCODING 940
SWIDTH 604 0
DWIDTH 29 0
BBX 24 36 3 -1
BITMAP
0000E0
0001E0
0001E0
0003E0
0003C0
000780
000700
000F00
000E00
001C00
001800
000000
000000
03F03E
07F87E
0FFC7E
1FFCFE
1FFCFC
3E0FF8
7807F8
7007F0
6007F0
E007E0
C007E0
C00FC0
800F80
801F80
801F00
803F03
807F06
C0FF8E
E1FDFE
7FF9FE
7FF1FC
3FE0FC
0F8078
ENDCHAR
STARTCHAR 03AD
ENCODING 941
SWIDTH 458 0
DWIDTH 22 0
BBX 17 36 3 -1
BITMAP
000C00
001E00
003E00
003E00
007C00
007800
007000
00E000
00C000
01C000
018000
000000
000000
0FF800
1FFE00
3FFF00
7FFF00
7FFF00
780600
600000
600000
61F000
3FFC00
1FFC00
3FFC00
63F800
400000
C00000
C00180
E00380
F80F00
FFFF00
7FFE00
3FFC00
1FF800
07E000
ENDCHAR
STARTCHAR 03AE
ENCODING 942
SWIDTH 645 0
DWIDTH 31 0
BBX 26 48 2 -13
BITMAP
00003800
00007800
0000F800
0000F800
0000F000
0001E000
0001C000
00038000
00038000
00070000
00060000
00000000
00000000
3E01FE00
3F03FF00
7F87FF80
7F8FC180
FF9F80C0
FFDF00C0
E1FF00C0
C0FE00C0
80FE00C0
007E00C0
007C00C0
00FC01C0
00FC01C0
00FC0180
00FC0380
01F80380
01F80380
01F80780
01F80780
03F80780
03F00F80
01F00F00
01E01F00
00001F00
00001F00
00003F00
00003F00
00003F00
00007F00
00007F00
00007F00
00007F00
00007F00
00003E00
00001C00
ENDCHAR
STARTCHAR 03AF
ENCODING 943
SWIDTH 312 0
DWIDTH 15 0
BBX 10 36 4 -1
BITMAP
0380
07C0
07C0
0F80
0F80
1F00
1E00
3C00
3800
3000
6000
0000
0000
7800
FC00
FC00
FC00
F800
F800
F000
F000
E000
C000
C000
8000
8000
8000
8040
80C0
E180
FF80
FF80
FF00
7F00
7E00
3C00
ENDCHAR
STARTCHAR 03B0
ENCODING 944
SWIDTH 541 0
DWIDTH 26 0
BBX 23 36 1 0
BITMAP
007800
00F800
00F800
00F000
00E000
01C000
71DE00
F9BF00
FB3F00
F83F00
701E00
000000
000000
780600
FC0380
FC03C0
FC01E0
7C01F0
7C00F0
3C00F8
3C00FC
1C007C
1C007C
1C007E
0C007E
0C007E
0C007E
0C007E
0C00FE
0C00FC
0E00FC
0601FC
0783F8
03FFF0
01FFE0
007F00
ENDCHAR
STARTCHAR 03B1
ENCODING 945
SWIDTH 604 0
DWIDTH 29 0
BBX 24 23 3 0
BITMAP
03F03E
07F87E
0FFC7E
1FFCFE
1FFCFC
3E0FF8
7807F8
7007F0
6007F0
E007E0
C007E0
C00FC0
800F80
801F80
801F00
803F03
807F06
C0FF8E
E1FDFE
7FF9FE
7FF1FC
3FE0FC
0F8078
ENDCHAR
STARTCHAR 03B2
ENCODING 946
SWIDTH 541 0
DWIDTH 26 0
BBX 21 48 3 -13
BITMAP
01F800
07FE00
0FFF80
1FFF80
1FC1C0
3F80C0
3E0060
3E0060
7C0060
780060
780060
7000E0
7001E0
70E3C0
61FFC0
61FF80
61FF00
61FE00
60F900
600180
6000C0
6000E0
6000E0
6000F0
6000F0
6000F0
7000F0
7001F0
7801F8
7C03F0
6E0FF0
6FFFF0
67FFE0
63FFC0
61FF80
707F00
700000
F00000
F80000
F80000
FC0000
FC0000
FE0000
FE0000
FE0000
FE0000
7C0000
380000
ENDCHAR
STARTCHAR 03B3
ENCODING 947
SWIDTH 562 0
DWIDTH 27 0
BBX 25 35 2 -12
BITMAP
3E007F80
7F00FF00
7F80FE00
FF81FC00
FF81F800
FFC3F000
FFC3E000
C1E3C000
C0E38000
80E70000
00670000
00360000
003C0000
003C0000
00180000
00180000
00180000
00180000
001C0000
001C0000
003C0000
003C0000
003E0000
003E0000
003E0000
003E0000
007F0000
007F0000
007F0000
007F0000
007F0000
007F0000
007F0000
003E0000
001C0000
ENDCHAR
STARTCHAR 03B4
ENCODING 948
SWIDTH 479 0
DWIDTH 23 0
BBX 19 35 2 -1
BITMAP
1F0000
3FC000
7FF000
7FFC00
7FFF80
73FFE0
60FFE0
203FE0
300FE0
0C03E0
0300E0
00C000
03F000
07FC00
1FFE00
1FFF00
3FFF80
7FE0C0
7F80C0
FE0040
FC0060
F800E0
F000E0
E001E0
E001E0
C003E0
C007E0
C01FC0
603FC0
70FFC0
3FFF80
3FFF00
1FFF00
0FFC00
03F000
ENDCHAR
STARTCHAR 03B5
ENCODING 949
SWIDTH 458 0
DWIDTH 22 0
BBX 17 23 3 0
BITMAP
0FF800
1FFE00
3FFF00
7FFF00
7FFF00
780600
600000
600000
61F000
3FFC00
1FFC00
3FFC00
63F800
400000
C00000
C00180
E00380
F80F00
FFFF00
7FFE00
3FFC00
1FF800
07E000
ENDCHAR
STARTCHAR 03B6
ENCODING 950
SWIDTH 500 0
DWIDTH 24 0
BBX 20 45 3 -10
BITMAP
000780
380FC0
783FC0
787FC0
38FFC0
39FF80
1FFF00
0FFC00
078000
0C0000
0C0000
180000
180000
100000
300000
300000
600000
600000
600000
600000
C00000
C00000
C00000
C00000
C00000
C00000
C00000
E00000
E00000
700000
7FFF00
7FFFC0
3FFFE0
1FFFE0
0FFFF0
07FFF0
000030
000010
000010
000010
007020
00FC20
00FFC0
00FF80
003F00
ENDCHAR
STARTCHAR 03B7
ENCODING 951
SWIDTH 645 0
DWIDTH 31 0
BBX 26 35 2 -12
BITMAP
3E01FE00
3F03FF00
7F87FF80
7F8FC180
FF9F80C0
FFDF00C0
E1FF00C0
C0FE00C0
80FE00C0
007E00C0
007C00C0
00FC01C0
00FC01C0
00FC0180
00FC0380
01F80380
01F80380
01F80780
01F80780
03F80780
03F00F80
01F00F00
01E01F00
00001F00
00001F00
00003F00
00003F00
00003F00
00007F00
00007F00
00007F00
00007F00
00007F00
00003E00
00001C00
ENDCHAR
STARTCHAR 03B8
ENCODING 952
SWIDTH 666 0
DWIDTH 32 0
BBX 29 36 2 -1
BITMAP
00FC0000
03CF0000
07838000
0703C000
0F01E000
0F01F000
0F01F000
0F00F800
0F00F800
0F00F800
0780F800
0380FC00
01C0FC00
00E0FC00
0070FC00
001EFC00
0003FFF8
1E00FCF8
3F00FCF8
7F80FCF8
4FC0FCF8
8FC0FCF8
8FC0FC00
8FC0FC00
0FC0FC00
0FC0FC00
0FC0FC00
0FC0FC00
0FC0FC00
0FC0F800
0FC0F800
0FC0F000
07C1F000
07C1E000
01E38000
007E0000
ENDCHAR
STARTCHAR 03B9
ENCODING 953
SWIDTH 312 0
DWIDTH 15 0
BBX 9 23 4 0
BITMAP
7800
FC00
FC00
FC00
F800
F800
F000
F000
E000
C000
C000
8000
8000
8000
8080
8080
C180
FF80
FF00
FF00
FF00
7E00
3C00
ENDCHAR
STARTCHAR 03BA
ENCODING 954
SWIDTH 583 0
DWIDTH 28 0
BBX 24 23 2 0
BITMAP
1E00F8
3F01F8
7F01F8
7F83F8
FF83F8
FF87F0
C387E0
818FC0
809F80
00BF80
00FF00
00FF00
00FD00
01F900
03F101
07F181
1FE1C3
1FC1FF
3FC1FF
3F80FF
3F80FE
3F007E
0E003C
ENDCHAR
STARTCHAR 03BB
ENCODING 955
SWIDTH 520 0
DWIDTH 25 0
BBX 23 36 1 -1
BITMAP
3E0000
FF0000
FFC000
FFC000
FFE000
7FE000
00F000
003000
003000
001000
001800
001800
001800
003800
003800
007800
007C00
00FC00
00FC00
01FC00
01FC00
03FE00
03F600
07F600
07E200
0FE300
0FC380
1FC3C0
1F83E0
3F81F8
3F81FC
7F01FE
7F00FE
FE007E
FE007E
00001C
ENDCHAR
STARTCHAR 03BC
ENCODING 956
SWIDTH 604 0
DWIDTH 29 0
BBX 24 35 3 -12
BITMAP
3C03C0
7E03E0
7E07F0
FE07F0
FE07F0
FE07F0
FE07F0
FE07F0
FC07F0
FC07F0
FC07E0
7807E0
7803E0
7803C1
7803C1
3003C3
300783
3007C7
180FFF
1C1EFE
3FFE7E
33FC7E
31F03C
300000
300000
780000
780000
7C0000
7C0000
7C0000
7E0000
7E0000
7E0000
3E0000
1C0000
ENDCHAR
STARTCHAR 03BD
ENCODING 957
SWIDTH 479 0
DWIDTH 23 0
BBX 20 23 1 -1
BITMAP
700080
FC00C0
FC00C0
FE00E0
7F00E0
7F00F0
1F00F0
0F81F0
0781F0
0381F0
0183F0
00C7F0
00CFE0
00DFE0
007FC0
007FC0
007F80
007F80
007F00
007E00
007C00
00F000
00C000
ENDCHAR
STARTCHAR 03BE
ENCODING 958
SWIDTH 437 0
DWIDTH 21 0
BBX 17 45 3 -9
BITMAP
F03E00
F0FF80
79FF80
3FFF80
0FFF00
1FFE00
180000
100000
300000
200000
200000
200000
200000
207C00
21FF00
17FF00
1FFF00
1FFF00
3FFE00
38FC00
700000
600000
C00000
C00000
800000
800000
800000
800000
C00000
E00000
FFF800
7FFC00
7FFE00
3FFE00
3FFF00
0FFF00
000300
000100
000100
000100
078200
0FC200
0FFC00
07F800
03F000
ENDCHAR
STARTCHAR 03BF
ENCODING 959
SWIDTH 479 0
DWIDTH 23 0
BBX 19 23 2 0
BITMAP
03FC00
0FFE00
1FFF00
3FFF80
3FFFC0
7FC0C0
7F0040
FE0060
FC0060
F800E0
F000E0
E001E0
E001E0
C003E0
C007E0
C01FC0
603FC0
70FFC0
3FFF80
3FFF00
1FFF00
0FFC00
03F000
ENDCHAR
STARTCHAR 03C0
ENCODING 960
SWIDTH 645 0
DWIDTH 31 0
BBX 27 23 2 -1
BITMAP
07FFFFE0
1FFFFFE0
3FFFFFE0
7FFFFFE0
7FFFFFE0
FFFFFFE0
E0404000
C0404000
80404000
80404000
00C04000
00C04000
00C04000
01C04040
03C060C0
07C070C0
0FC07FC0
1FC07FC0
1FC07FC0
3FC07F80
3FC03F80
1F803F00
0F001E00
ENDCHAR
STARTCHAR 03C1
ENCODING 961
SWIDTH 500 0
DWIDTH 24 0
BBX 19 35 3 -12
BITMAP
03FC00
0FFE00
1FFF00
1FFF80
3FFFC0
3FC0C0
7F0040
7E0060
780060
7000E0
7000E0
6001E0
4003E0
4007E0
400FE0
403FC0
60FFC0
7FFFC0
7FFF80
7FFF00
5FFE00
6FFC00
63F000
600000
F00000
F00000
F80000
FC0000
FE0000
FF0000
FF0000
FF0000
FF0000
7E0000
3C0000
ENDCHAR
STARTCHAR 03C2
ENCODING 962
SWIDTH 458 0
DWIDTH 22 0
BBX 18 32 3 -9
BITMAP
00FF00
03FF80
07FFC0
0FFFC0
1FFFC0
3FFF80
300000
600000
400000
800000
800000
800000
800000
800000
800000
C00000
E00000
FFFC00
7FFE00
7FFF00
3FFF00
1FFF80
07FF80
000180
000080
000080
000080
078100
07E100
07FE00
07FC00
01F000
ENDCHAR
STARTCHAR 03C3
ENCODING 963
SWIDTH 520 0
DWIDTH 25 0
BBX 22 23 2 -1
BITMAP
03FFFC
0FFFFC
1FFFFC
3FFFFC
3FFFFC
7FFFFC
780C00
E00600
C00300
C00380
8001C0
8001C0
8001E0
8001E0
C003E0
C003E0
6007E0
7C1FE0
3FFFC0
1FFFC0
0FFF80
07FF00
01FC00
ENDCHAR
STARTCHAR 03C4
ENCODING 964
SWIDTH 479 0
DWIDTH 23 0
BBX 20 23 1 -1
BITMAP
03FFF0
0FFFF0
1FFFF0
3FFFF0
7FFFF0
7FFFF0
702000
E02000
C02000
C02000
002000
002000
002000
002020
003020
003860
003FE0
003FE0
003FE0
003FE0
001FC0
001FC0
000F80
ENDCHAR
STARTCHAR 03C5
ENCODING 965
SWIDTH 541 0
DWIDTH 26 0
BBX 23 23 1 0
BITMAP
780600
FC0700
FC03C0
FC01E0
7C01F0
7C00F0
3C00F8
3C00FC
1C007C
1C007C
1C007E
0C007E
0C007E
0C007E
0C007E
0C00FE
0C00FC
0E00FC
0601FC
0783F8
03FFF0
01FFE0
007F00
ENDCHAR
STARTCHAR 03C6
ENCODING 966
SWIDTH 604 0
DWIDTH 29 0
BBX 25 35 2 -12
BITMAP
0FC1F800
1FC3FE00
3FE7FE00
7FCFFF00
7FCFFF00
7F8F0380
F81E0180
C01C0080
801C0080
80180080
80180180
80180180
C0180380
C0100700
E0100F00
70101F00
7E10FE00
3FFFFE00
3FFFFC00
1FFFF800
0FFFF000
03FFE000
00FF0000
00180000
00180000
00180000
00180000
00380000
003C0000
003C0000
007E0000
007E0000
007E0000
007E0000
003C0000
ENDCHAR
STARTCHAR 03C7
ENCODING 967
SWIDTH 583 0
DWIDTH 28 0
BBX 28 36 1 -13
BITMAP
00001F00
7C003F80
FE003F80
FF007F00
FF807F00
FF80FE00
7FC0FE00
01C1FC00
00E1FC00
0063F800
0063F800
0037F000
0037F000
001FE000
001FE000
001FC000
003FC000
003F8000
007F8000
007F0000
00FF0000
00FF0000
01FD0000
03FD8000
03F88000
07F8C000
07F0C000
0FF06000
0FE06000
1FE03000
1FC03FE0
3F801FF0
3F801FF0
7F000FF0
7F0007F0
3E0003C0
ENDCHAR
STARTCHAR 03C8
ENCODING 968
SWIDTH 625 0
DWIDTH 30 0
BBX 26 48 2 -13
BITMAP
00020000
000F8000
001FC000
003FE000
003FE000
003FE000
003FE000
003FE000
003FC000
003FC000
001FC000
001FC000
001F8000
0E1F8200
3F0F8300
3F0F0380
7F0F0180
7F0F0180
FF0F0180
FE0E01C0
FC0E01C0
F80601C0
F00601C0
E00601C0
E00403C0
C00403C0
400407C0
60040780
60040F80
38043F80
3F04FF00
1FFFFE00
0FFFFE00
07FFF800
03FFF000
007F8000
00040000
00040000
000C0000
000E0000
000E0000
000F0000
001F0000
001F8000
001F8000
001F8000
001F8000
000F0000
ENDCHAR
STARTCHAR 03C9
ENCODING 969
SWIDTH 687 0
DWIDTH 33 0
BBX 29 23 2 -1
BITMAP
07000C00
1F800E00
1F800700
3F800780
7F8003C0
7F0303E0
7F0783F0
FE0FC1F0
FC0FC1F0
FC0FC1F8
F80FC1F8
F80FC1F8
F80FC1F8
F80F81F8
F80F81F8
F80781F8
780783F0
7C0703F0
3C0303F0
3E0707E0
1F0D8FC0
0FF8FF80
03F03F00
ENDCHAR
STARTCHAR 03CA
ENCODING 970
SWIDTH 312 0
DWIDTH 15 0
BBX 15 33 -1 -1
BITMAP
783C
FC7E
FC7E
FC7E
FC7E
783C
0000
0000
0000
0000
03C0
07C0
07E0
07C0
07C0
07C0
0780
0700
0700
0600
0600
0400
0400
0400
0404
040C
061C
07F8
07F8
07F8
07F0
03F0
01E0
ENDCHAR
STARTCHAR 03CB
ENCODING 971
SWIDTH 541 0
DWIDTH 26 0
BBX 23 33 1 -1
BITMAP
783C00
FC7E00
FC7E00
FC7E00
FC7E00
783C00
000000
000000
000000
000000
780E00
FC0700
FC0380
FC01C0
7C01E0
7C00F0
3C00F8
3C00FC
1C007C
1C007C
1C007E
0C007E
0C007E
0C007E
0C007E
0C00FE
0C00FC
0E00FC
0601FC
0783F8
03FFF0
01FFE0
007F00
ENDCHAR
STARTCHAR 03CC
ENCODING 972
SWIDTH 479 0
DWIDTH 23 0
BBX 19 36 2 -1
BITMAP
000700
000F00
001F00
001F00
003E00
003C00
003800
007000
007000
00E000
00C000
000000
000000
03FC00
0FFE00
1FFF00
3FFF80
3FFFC0
7FC0C0
7F0040
FE0060
FC0060
F800E0
F000E0
E001E0
E001E0
C003E0
C007E0
C01FC0
603FC0
70FFC0
3FFF80
3FFF00
1FFF00
0FFC00
03F000
ENDCHAR
STARTCHAR 03CD
ENCODING 973
SWIDTH 541 0
DWIDTH 26 0
BBX 23 36 1 -1
BITMAP
001C00
003C00
003C00
007C00
007800
00F000
00E000
01C000
018000
010000
030000
000000
000000
780600
FC0700
FC03C0
FC01E0
7C01F0
7C00F0
3C00F8
3C00FC
1C007C
1C007C
1C007E
0C007E
0C007E
0C007E
0C007E
0C00FE
0C00FC
0E00FC
0601FC
0783F8
03FFF0
01FFE0
007F00
ENDCHAR
STARTCHAR 03CE
ENCODING 974
SWIDTH 687 0
DWIDTH 33 0
BBX 29 36 2 -1
BITMAP
00007000
0000F000
0000F000
0001F000
0001E000
0001C000
0003C000
00038000
00070000
00060000
00040000
00040000
00000000
07000C00
1F800E00
1F800700
3F800780
7F8003C0
7F0303E0
7F0783F0
FE0FC1F0
FC0FC1F0
FC0FC1F8
F80FC1F8
F80FC1F8
F80FC1F8
F80F81F8
F80F81F8
F80781F8
780783F0
7C0703F0
3C0303F0
3E0707E0
1F0D8FC0
0FF8FF80
03F03F00
ENDCHAR
STARTCHAR 03CF
ENCODING 975
SWIDTH 770 0
DWIDTH 37 0
BBX 32 47 3 -13
BITMAP
FFFF1FFE
FFFF1FFE
07F003F0
07F003C0
07F00380
07F00300
07F00600
07F00C00
07F01C00
07F03800
07F03000
07F06000
07F0E000
07F1F000
07F3F800
07F7F800
07FFFC00
07FDFC00
07F9FE00
07F0FF00
07F0FF00
07F07F80
07F03FC0
07F03FC0
07F01FE0
07F01FE0
07F00FF0
07F007F8
07F007F8
07F003FC
07F003FE
07F001FE
FFFF00FF
FFFF01FF
000003FF
000007FE
00000FFC
00001FF8
00033FF0
0001FFE0
0000FFC0
00007F80
00003F00
00001E00
00000C00
00000600
00000300
ENDCHAR
STARTCHAR 03D0
ENCODING 976
SWIDTH 500 0
DWIDTH 24 0
BBX 21 35 2 -1
BITMAP
000FC0
007FF0
00E1F0
0180F8
0200F8
0400F8
0C01F8
0F03F0
1BFFE0
107F00
300000
200000
600000
600000
400000
43F000
CFFC00
DFFE00
FF8700
FF0700
FE0380
FC0380
FC03C0
F803C0
F807C0
F807C0
F007C0
700FC0
700FC0
701F80
303F80
387F00
1FFF00
0FFE00
03F800
ENDCHAR
STARTCHAR 03D1
ENCODING 977
SWIDTH 562 0
DWIDTH 27 0
BBX 29 36 2 -1
BITMAP
00FC0000
03CF0000
07838000
0703C000
0F01E000
0F01F000
0F01F000
0F00F800
0F00F800
0F00F800
0780F800
0380FC00
01C0FC00
00E0FC00
0070FC00
001EFC00
0003FFF8
1E00FCF8
3F00FCF8
7F80FCF8
4FC0FCF8
8FC0FCF8
8FC0FC00
8FC0FC00
0FC0FC00
0FC0FC00
0FC0FC00
0FC0FC00
0FC0FC00
0FC0F800
0FC0F800
0FC0F000
07C1F000
07C1E000
01E38000
007E0000
ENDCHAR
STARTCHAR 03D2
ENCODING 978
SWIDTH 708 0
DWIDTH 34 0
BBX 30 35 3 0
BITMAP
800003C0
F0000FF0
FC001FF8
1F0038FC
0F8070FC
07C0E1FC
03E0C3FC
01F1C3FC
01F183F8
00F981F8
00F900E0
00FF0000
007F0000
007F0000
007F0000
007F0000
007F0000
007F0000
007F0000
007F0000
007F0000
007F0000
007F0000
007F0000
007F0000
007F0000
007F0000
007F0000
007F0000
007F0000
007F0000
007F0000
007F0000
07FFF800
07FFF800
ENDCHAR
STARTCHAR 03D3
ENCODING 979
SWIDTH 937 0
DWIDTH 45 0
BBX 40 36 4 -1
BITMAP
0600000000
0F300000F8
1F3E0003FC
1F1F8007FE
3E07C00E3F
3C03E01C3F
3801F0387F
7000F830FF
70007C60FF
E0007C60FE
C0003E607E
80003E4038
00003FC000
00001FC000
00001FC000
00001FC000
00001FC000
00001FC000
00001FC000
00001FC000
00001FC000
00001FC000
00001FC000
00001FC000
00001FC000
00001FC000
00001FC000
00001FC000
00001FC000
00001FC000
00001FC000
00001FC000
00001FC000
00001FC000
0001FFFE00
0001FFFE00
ENDCHAR
STARTCHAR 03D4
ENCODING 980
SWIDTH 708 0
DWIDTH 34 0
BBX 30 43 3 0
BITMAP
01E0F000
03F1F800
03F1F800
03F1F800
03F1F800
01E0F000
00000000
00000000
800003C0
F0000FF0
FC001FF8
1F0038FC
0F8070FC
07C0E1FC
03E0C3FC
01F0C3FC
01F183F8
00F981F8
00F900E0
00FF0000
007F0000
007F0000
007F0000
007F0000
007F0000
007F0000
007F0000
007F0000
007F0000
007F0000
007F0000
007F0000
007F0000
007F0000
007F0000
007F0000
007F0000
007F0000
007F0000
007F0000
007F0000
07FFF800
07FFF800
ENDCHAR
STARTCHAR 03D5
ENCODING 981
SWIDTH 583 0
DWIDTH 28 0
BBX 24 47 2 -12
BITMAP
003C00
007E00
007E00
007E00
007E00
007E00
003C00
003C00
003C00
001800
001800
001800
01FFC0
07FFF0
0FFFF8
1FFFFC
3FFFFC
7FF80E
7FD806
7F1803
FC1803
F81803
F01807
E01807
C0180F
C0181F
C0187F
6019FE
601FFE
783FFC
3FFFFC
1FFFF8
0FFFE0
07FFC0
00FE00
001800
001800
001800
001800
003C00
003C00
003C00
007E00
007E00
007E00
007E00
003C00
ENDCHAR
STARTCHAR 03D6
ENCODING 982
SWIDTH 791 0
DWIDTH 38 0
BBX 35 23 2 -1
BITMAP
07FFFFFFE0
1FFFFFFFE0
3FFFFFFFE0
7FFFFFFFE0
7FFFFFFFE0
FFFFFFFFE0
E1C0003800
C3C0001C00
8780701E00
8780F01F00
0701F80F00
0F01F80F00
0F01F80F80
0F01F80F80
0F01F80F80
0F01F00F80
0F00F00F80
0780E01F00
0780601F00
03C0603E00
03E1B0FE00
00FF0FFC00
003E07F000
ENDCHAR
STARTCHAR 03D7
ENCODING 983
SWIDTH 583 0
DWIDTH 28 0
BBX 24 32 2 -9
BITMAP
1E00F8
3F01F8
7F01F8
7F83F8
FF83F8
FF87F0
C387E0
818FC0
809F80
00BF80
00FF00
00FF00
00FD00
01F900
03F101
07F183
1FE1C7
1FC1FF
3FC1FF
3F80FE
3F80FE
3F007E
0E003A
000006
000004
000004
007808
00FC18
00FFF0
00FFE0
007FC0
003F00
ENDCHAR
STARTCHAR 03D8
ENCODING 984
SWIDTH 687 0
DWIDTH 33 0
BBX 29 35 2 0
BITMAP
000FC000
00FFF800
03F07E00
0FC01F80
1FC00FC0
3F800FE0
7F800FF0
7F0007F0
FF0007F0
FF0007F8
FF0007F8
FF0007F8
FF0007F8
FF0007F8
FF0007F8
7F0007F0
7F0007F0
3F800FE0
1F800FC0
0FC01F80
03E03E00
01FFFC00
001FE000
001FC000
001FC000
001FC000
001FC000
001FC000
001FC000
001FC000
001FC000
001FC000
001FC000
01FFFE00
01FFFE00
ENDCHAR
STARTCHAR 03D9
ENCODING 985
SWIDTH 479 0
DWIDTH 23 0
BBX 19 35 2 -12
BITMAP
03FC00
0FFE00
1FFF00
3FFF80
3FFFC0
7FC0C0
7F0040
FE0060
FC0060
F800E0
F000E0
E001E0
E001E0
C003E0
C007E0
C01FC0
603FC0
70FFC0
7FFF80
3FFF00
1FFE00
0FFC00
07F000
00C000
00C000
00C000
00C000
01E000
01E000
01E000
03F000
03F000
03F000
03F000
01E000
ENDCHAR
STARTCHAR 03DA
ENCODING 986
SWIDTH 604 0
DWIDTH 29 0
BBX 28 34 2 0
BITMAP
00FE0030
07FFE030
0FFFFFE0
1FFFFFE0
3FFFFFC0
7FFFFF80
7C0FFF80
F0003F00
E0000300
E0000000
C0000000
C0000000
C0000000
C0000000
60000000
60000000
30000000
38000000
0C000000
07000000
01FFC000
003FC000
001FC000
001FC000
001FC000
001FC000
001FC000
001FC000
001FC000
001FC000
001FC000
001FC000
01FFFE00
01FFFE00
ENDCHAR
STARTCHAR 03DB
ENCODING 987
SWIDTH 500 0
DWIDTH 24 0
BBX 21 37 3 -10
BITMAP
000008
000008
000008
000018
0001F8
00FFF8
03FFF0
0FFFF0
1FFFE0
1FFFC0
3E0000
600000
400000
400000
800000
800000
800000
800000
800000
C00000
C00000
F00000
FFFC00
7FFE00
7FFF00
3FFF00
1FFF80
07FF80
000180
000080
000080
000080
078100
07E100
07FE00
07FC00
01F000
ENDCHAR
STARTCHAR 03DC
ENCODING 988
SWIDTH 666 0
DWIDTH 32 0
BBX 28 34 3 0
BITMAP
FFFFFFF0
FFFFFFF0
07F00FF0
07F003F0
07F001F0
07F001F0
07F000F0
07F000F0
07F00070
07F00070
07F00070
07F00030
07F00030
07F00000
07FFF000
07FFF000
07F0F000
07F07000
07F03000
07F03000
07F03000
07F01000
07F01000
07F00000
07F00000
07F00000
07F00000
07F00000
07F00000
07F00000
07F00000
07F00000
FFFF8000
FFFF8000
ENDCHAR
STARTCHAR 03DD
ENCODING 989
SWIDTH 520 0
DWIDTH 25 0
BBX 25 35 -2 -13
BITMAP
007FFF80
00FFFF80
00FFFF80
00FFFF80
00FFFF00
00FFFF00
00C00000
00C00000
00C00000
00C00000
00C00000
00FFFE00
00FFFE00
00FFFE00
00FFFE00
00FFFE00
00C00000
00C00000
00C00000
00C00000
00C00000
00C00000
00C00000
00C00000
00C00000
00C00000
00C00000
00C00000
70C00000
F8C00000
F8C00000
FDC00000
FF800000
FF000000
3E000000
ENDCHAR
STARTCHAR 03DE
ENCODING 990
SWIDTH 666 0
DWIDTH 32 0
BBX 29 35 2 -1
BITMAP
3F000000
7F800000
FFC00000
FFC00000
FFC00000
FCC00000
F8C00000
70C00040
00C00180
00C00380
01800F80
01803F80
0180FF00
0183FF00
010FFF00
033FFF00
03FFFE00
03FFFE00
03FFFE00
07FFE600
07FF8400
07FE0C00
07F80C00
0FE00C00
0F801800
0E001800
08001800
00001870
000018F8
000019F8
00001FF8
00001FF8
00001FF8
00000FF0
000003C0
ENDCHAR
STARTCHAR 03DF
ENCODING 991
SWIDTH 416 0
DWIDTH 20 0
BBX 18 42 0 -8
BITMAP
0F0000
1F8000
3F8000
7F8000
7F8000
C38000
818000
018000
030000
030000
060000
060000
0C0000
0C0000
180000
1FFF80
3FFFC0
3FFFC0
3FFFC0
1FFFC0
000180
000180
000380
000300
000700
000700
000F00
001E00
001E00
003E00
003C00
007C00
007C00
00F800
00F800
01F800
03F800
03F000
03F000
07F000
03E000
01C000
ENDCHAR
STARTCHAR 03E0
ENCODING 992
SWIDTH 750 0
DWIDTH 36 0
BBX 30 35 3 -1
BITMAP
03FC0000
0FFF0000
1FFFC000
3FFFE000
7FFFF000
707FF800
E01FFC00
E00FFE00
C007FF00
C003FF80
C003FFC0
C0067FC0
E0067FE0
600C3FF0
60183FF0
30306FF8
0030C7F8
0060C3F8
00C181F8
01C301FC
038600FC
0306007C
060C007C
0E18003C
1C30003C
1830E03C
3063F03C
70C7F038
E187F038
C187E078
0007C070
0007C0E0
0003C1C0
0001FF80
00007E00
ENDCHAR
STARTCHAR 03E1
ENCODING 993
SWIDTH 541 0
DWIDTH 26 0
BBX 27 41 -3 -8
BITMAP
F0000000
FF000000
FFC00000
7FF00000
03FC0000
007F0000
001F8000
0007C000
0003E000
0001F000
00007800
0000F800
0001FC00
0007FE00
001F8E00
007E0700
00FC0700
01F00380
00C00780
00000FC0
00003FC0
0000FDC0
0003F1C0
0007E0E0
001F80E0
000E00E0
000800E0
000000E0
000000E0
000000E0
000000E0
000000E0
000000E0
000001C0
000001C0
000001C0
000003C0
00000380
00000380
00000780
00000100
ENDCHAR
STARTCHAR 03F0
ENCODING 1008
SWIDTH 541 0
DWIDTH 26 0
BBX 24 23 2 0
BITMAP
1E00F8
3F01F8
7F01F8
7F83F8
FF83F8
FF87F0
C387E0
818FC0
809F80
00BF80
00FF00
00FF00
00FD00
01F900
03F101
07F181
1FE1C3
1FC1FF
3FC1FF
3F80FF
3F80FE
3F007E
0E003C
ENDCHAR
STARTCHAR 03F1
ENCODING 1009
SWIDTH 500 0
DWIDTH 24 0
BBX 19 35 3 -12
BITMAP
03FC00
0FFE00
1FFF00
1FFF80
3FFFC0
3FC0C0
7F0040
7E0060
780060
7000E0
7000E0
6001E0
4003E0
4007E0
400FE0
403FC0
60FFC0
7FFFC0
7FFF80
7FFF00
5FFE00
6FFC00
63F000
600000
F00000
F00000
F80000
FC0000
FE0000
FF0000
FF0000
FF0000
FF0000
7E0000
3C0000
ENDCHAR
STARTCHAR 03F2
ENCODING 1010
SWIDTH 437 0
DWIDTH 21 0
BBX 17 23 2 0
BITMAP
03FC00
0F0200
1E0100
3E0180
3E0000
7C0000
7C0000
FC0000
FC0000
FC0000
FC0000
FC0000
FC0000
FC0000
FC0000
7C0000
7C0000
7C0000
3E0080
1E0100
0F0300
078600
01F800
ENDCHAR
STARTCHAR 03F3
ENCODING 1011
SWIDTH 312 0
DWIDTH 15 0
BBX 14 44 -2 -12
BITMAP
0070
00F8
01FC
01FC
01FC
00F8
0070
0000
0000
0000
07FC
00FC
00FC
00FC
00FC
00FC
00FC
00FC
00FC
00FC
00FC
00FC
00FC
00FC
00FC
00FC
00FC
00FC
00FC
00FC
00FC
00FC
00FC
00FC
00FC
38FC
7CFC
FCFC
FCF8
F8F8
F8F8
71F0
31E0
1F80
ENDCHAR
STARTCHAR 03F4
ENCODING 1012
SWIDTH 687 0
DWIDTH 33 0
BBX 28 36 3 -1
BITMAP
000F0000
007FE000
01F0F800
03C03C00
07801E00
0F801F00
0F801F00
1F000F80
3F000FC0
3F000FC0
7F000FC0
7F000FE0
7F000FE0
7F000FE0
FF000FF0
FF000FF0
FF000FF0
FFFFFFF0
FFFFFFF0
FF000FF0
FF000FF0
FF000FF0
FF000FE0
7F000FE0
7F000FE0
7F000FE0
3F000FC0
3F000FC0
1F000F80
1F000F80
0F801F00
07801E00
03C03C00
01E07800
007FE000
001F8000
ENDCHAR
STARTCHAR 03F5
ENCODING 1013
SWIDTH 437 0
DWIDTH 21 0
BBX 17 23 2 0
BITMAP
03FC00
0F8200
1E0100
3E0180
3E0000
7C0000
7C0000
FC0000
FC0000
FC0000
FFFC00
FC0000
FC0000
FC0000
FC0000
7C0000
7C0000
7C0000
3E0080
1E0100
0F0300
078600
01F800
ENDCHAR
STARTCHAR 03F6
ENCODING 1014
SWIDTH 437 0
DWIDTH 21 0
BBX 17 23 2 0
BITMAP
1FE000
30F800
403C00
C03E00
003E00
001F00
001F00
001F00
001F80
001F80
1FFF80
001F80
001F80
001F80
001F80
001F00
001F00
001F00
803E00
403C00
607800
30F000
0FC000
ENDCHAR
STARTCHAR 03F9
ENCODING 1017
SWIDTH 604 0
DWIDTH 29 0
BBX 25 36 3 -1
BITMAP
001F0000
00FFE000
01F07800
07C01C00
0FC00E00
0F800600
1F800300
3F000300
3F000180
7F000000
7F000000
7F000000
7F000000
FF000000
FF000000
FF000000
FF000000
FF000000
FF000000
FF000000
FF000000
FF000000
FF000000
7F000000
7F000000
7F000000
7F000000
3F000180
3F000300
1F800300
0F800600
0F800E00
07C01C00
03E07800
00FFF000
003F8000
ENDCHAR
STARTCHAR 0400
ENCODING 1024
SWIDTH 687 0
DWIDTH 33 0
BBX 27 45 3 0
BITMAP
00E00000
01F00000
01F00000
00F80000
00780000
003C0000
000E0000
00060000
00020000
00000000
00000000
FFFFFFE0
0FE01FE0
0FE007E0
0FE003E0
0FE001E0
0FE001E0
0FE000E0
0FE000E0
0FE00060
0FE03060
0FE03060
0FE03000
0FE07000
0FE07000
0FE0F000
0FE1F000
0FFFF000
0FE1F000
0FE0F000
0FE07000
0FE07020
0FE03060
0FE03060
0FE03060
0FE00060
0FE00060
0FE000E0
0FE000E0
0FE001E0
0FE003E0
0FE003E0
0FE00FE0
FFFFFFE0
FFFFFFE0
ENDCHAR
STARTCHAR 0401
ENCODING 1025
SWIDTH 687 0
DWIDTH 33 0
BBX 27 43 3 0
BITMAP
01E07800
03F0FC00
03F0FC00
03F0FC00
03F0FC00
01E07800
00000000
00000000
00000000
FFFFFFE0
0FE01FE0
0FE007E0
0FE003E0
0FE001E0
0FE001E0
0FE000E0
0FE000E0
0FE000E0
0FE03060
0FE03060
0FE03000
0FE07000
0FE07000
0FE0F000
0FE1F000
0FFFF000
0FE1F000
0FE0F000
0FE07000
0FE07060
0FE03060
0FE03060
0FE03060
0FE00060
0FE000E0
0FE000E0
0FE000E0
0FE001E0
0FE003E0
0FE003E0
0FE00FE0
FFFFFFE0
FFFFFFE0
ENDCHAR
STARTCHAR 0402
ENCODING 1026
SWIDTH 875 0
DWIDTH 42 0
BBX 37 34 3 0
BITMAP
FFFFFFF800
FE3F87F800
F83F81F800
F03F80F800
E03F807800
E03F803800
C03F803800
C03F801800
803F801800
803F801800
803F801800
803F801800
003F800000
003F800000
003F83FC00
003F9FFF00
003FB83FC0
003FE00FE0
003F8007E0
003F8007F0
003F8003F0
003F8003F8
003F8003F8
003F8003F8
003F8003F8
003F8003F8
003F8F03F8
003F8F83F8
003F9F83F0
003F9F87F0
003F9F07E0
003F9E07C0
003F8F0F80
03FF87FE00
ENDCHAR
STARTCHAR 0403
ENCODING 1027
SWIDTH 645 0
DWIDTH 31 0
BBX 26 45 3 0
BITMAP
00003000
00007800
0000F800
0000F000
0001E000
0001C000
00038000
00070000
00060000
00000000
00000000
FFFFFFC0
FFFFFFC0
07F03FC0
07F01FC0
07F00FC0
07F007C0
07F003C0
07F003C0
07F001C0
07F001C0
07F001C0
07F000C0
07F000C0
07F000C0
07F00040
07F00000
07F00000
07F00000
07F00000
07F00000
07F00000
07F00000
07F00000
07F00000
07F00000
07F00000
07F00000
07F00000
07F00000
07F00000
07F00000
07F00000
07F00000
FFFF8000
ENDCHAR
STARTCHAR 0404
ENCODING 1028
SWIDTH 666 0
DWIDTH 32 0
BBX 26 35 3 0
BITMAP
003F8180
01F0E180
03C03B80
07801F80
0F800F80
1F800F80
3F000780
3F000780
7F000380
7F000380
7F000180
7F000180
FF000180
FF000180
FF000000
FF000000
FFFFF000
FF000000
FF000000
FF000000
FF000000
FF001E00
FF003F80
7F007F80
7F007FC0
7F007FC0
3F007FC0
3F003FC0
1F001FC0
1F800FC0
0F800780
07C00700
03C00F00
00F01C00
003FF000
ENDCHAR
STARTCHAR 0405
ENCODING 1029
SWIDTH 604 0
DWIDTH 29 0
BBX 23 35 4 0
BITMAP
03F800
0E1E18
380798
3003F8
7001F8
7000F8
F00078
F80038
FC0038
FE0018
FF0018
FFC018
7FE008
7FF800
3FFC00
3FFF00
1FFF80
07FFE0
03FFF0
00FFF8
807FFC
C01FFC
C00FFC
C003FE
E000FE
E0007E
E0003E
F0001E
F8001E
F8001C
FC001C
FE0018
EF0030
C38060
C1FF80
ENDCHAR
STARTCHAR 0406
ENCODING 1030
SWIDTH 437 0
DWIDTH 21 0
BBX 16 34 3 0
BITMAP
FFFF
07F0
07F0
07F0
07F0
07F0
07F0
07F0
07F0
07F0
07F0
07F0
07F0
07F0
07F0
07F0
07F0
07F0
07F0
07F0
07F0
07F0
07F0
07F0
07F0
07F0
07F0
07F0
07F0
07F0
07F0
07F0
07F0
FFFF
ENDCHAR
STARTCHAR 0407
ENCODING 1031
SWIDTH 437 0
DWIDTH 21 0
BBX 16 43 3 0
BITMAP
781E
FC3F
FC3F
FC3F
FC3F
781E
0000
0000
0000
FFFF
07F0
07F0
07F0
07F0
07F0
07F0
07F0
07F0
07F0
07F0
07F0
07F0
07F0
07F0
07F0
07F0
07F0
07F0
07F0
07F0
07F0
07F0
07F0
07F0
07F0
07F0
07F0
07F0
07F0
07F0
07F0
07F0
FFFF
ENDCHAR
ENDFONT
